<ttFont>
    <TTGlyph name=".notdef" xMin="55" yMin="-8" xMax="535" yMax="466">
      <contour>
        <pt x="535" y="466" on="1"/>
        <pt x="535" y="-8" on="1"/>
        <pt x="55" y="-8" on="1"/>
        <pt x="55" y="466" on="1"/>
      </contour>
      <contour>
        <pt x="108" y="414" on="1"/>
        <pt x="108" y="46" on="1"/>
        <pt x="484" y="46" on="1"/>
        <pt x="484" y="414" on="1"/>
      </contour>
    </TTGlyph>
    <TTGlyph name="A" xMin="9" yMin="0" xMax="624" yMax="643">
      <contour>
        <pt x="493" y="0" on="1"/>
        <pt x="441" y="138" on="1"/>
        <pt x="187" y="138" on="1"/>
        <pt x="138" y="0" on="1"/>
        <pt x="9" y="0" on="1"/>
        <pt x="250" y="643" on="1"/>
        <pt x="382" y="643" on="1"/>
        <pt x="624" y="0" on="1"/>
      </contour>
      <contour>
        <pt x="316" y="499" on="1"/>
        <pt x="225" y="238" on="1"/>
        <pt x="403" y="238" on="1"/>
      </contour>
    </TTGlyph>
    <TTGlyph name="B" xMin="63" yMin="0" xMax="552" yMax="643">
      <contour>
        <pt x="552" y="166" on="1"/>
        <pt x="552" y="125" on="0"/>
        <pt x="510" y="63" on="0"/>
        <pt x="446" y="21" on="0"/>
        <pt x="370" y="0" on="0"/>
        <pt x="336" y="0" on="1"/>
        <pt x="63" y="0" on="1"/>
        <pt x="63" y="643" on="1"/>
        <pt x="327" y="643" on="1"/>
        <pt x="365" y="643" on="0"/>
        <pt x="435" y="623" on="0"/>
        <pt x="488" y="584" on="0"/>
        <pt x="520" y="525" on="0"/>
        <pt x="520" y="486" on="1"/>
        <pt x="520" y="454" on="0"/>
        <pt x="499" y="407" on="0"/>
        <pt x="465" y="371" on="0"/>
        <pt x="418" y="344" on="0"/>
        <pt x="393" y="333" on="1"/>
        <pt x="428" y="322" on="0"/>
        <pt x="486" y="296" on="0"/>
        <pt x="528" y="257" on="0"/>
        <pt x="552" y="203" on="0"/>
      </contour>
      <contour>
        <pt x="388" y="460" on="1"/>
        <pt x="388" y="481" on="0"/>
        <pt x="370" y="511" on="0"/>
        <pt x="342" y="531" on="0"/>
        <pt x="307" y="541" on="0"/>
        <pt x="289" y="541" on="1"/>
        <pt x="195" y="541" on="1"/>
        <pt x="195" y="382" on="1"/>
        <pt x="280" y="382" on="1"/>
        <pt x="300" y="382" on="0"/>
        <pt x="339" y="392" on="0"/>
        <pt x="369" y="412" on="0"/>
        <pt x="388" y="441" on="0"/>
      </contour>
      <contour>
        <pt x="415" y="192" on="1"/>
        <pt x="415" y="217" on="0"/>
        <pt x="392" y="252" on="0"/>
        <pt x="356" y="273" on="0"/>
        <pt x="311" y="282" on="0"/>
        <pt x="289" y="282" on="1"/>
        <pt x="195" y="282" on="1"/>
        <pt x="195" y="102" on="1"/>
        <pt x="289" y="102" on="1"/>
        <pt x="315" y="102" on="0"/>
        <pt x="361" y="112" on="0"/>
        <pt x="395" y="133" on="0"/>
        <pt x="415" y="167" on="0"/>
      </contour>
    </TTGlyph>
    <TTGlyph name="C" xMin="48" yMin="-12" xMax="600" yMax="655">
      <contour>
        <pt x="600" y="216" on="1"/>
        <pt x="594" y="163" on="0"/>
        <pt x="544" y="79" on="0"/>
        <pt x="470" y="20" on="0"/>
        <pt x="378" y="-12" on="0"/>
        <pt x="330" y="-12" on="1"/>
        <pt x="255" y="-12" on="0"/>
        <pt x="148" y="44" on="0"/>
        <pt x="80" y="137" on="0"/>
        <pt x="48" y="257" on="0"/>
        <pt x="48" y="322" on="1"/>
        <pt x="48" y="390" on="0"/>
        <pt x="84" y="511" on="0"/>
        <pt x="154" y="602" on="0"/>
        <pt x="260" y="655" on="0"/>
        <pt x="330" y="655" on="1"/>
        <pt x="572" y="655" on="0"/>
        <pt x="592" y="439" on="1"/>
        <pt x="463" y="439" on="1"/>
        <pt x="455" y="496" on="0"/>
        <pt x="391" y="553" on="0"/>
        <pt x="330" y="553" on="1"/>
        <pt x="289" y="553" on="0"/>
        <pt x="232" y="520" on="0"/>
        <pt x="198" y="460" on="0"/>
        <pt x="183" y="374" on="0"/>
        <pt x="183" y="322" on="1"/>
        <pt x="183" y="268" on="0"/>
        <pt x="198" y="181" on="0"/>
        <pt x="232" y="121" on="0"/>
        <pt x="289" y="88" on="0"/>
        <pt x="330" y="88" on="1"/>
        <pt x="360" y="88" on="0"/>
        <pt x="403" y="109" on="0"/>
        <pt x="433" y="144" on="0"/>
        <pt x="451" y="190" on="0"/>
        <pt x="456" y="216" on="1"/>
        <pt x="600" y="216" on="1"/>
      </contour>
    </TTGlyph>
    <TTGlyph name="D" xMin="63" yMin="0" xMax="600" yMax="643">
      <contour>
        <pt x="600" y="322" on="1"/>
        <pt x="600" y="242" on="0"/>
        <pt x="548" y="122" on="0"/>
        <pt x="456" y="41" on="0"/>
        <pt x="331" y="0" on="0"/>
        <pt x="258" y="0" on="1"/>
        <pt x="63" y="0" on="1"/>
        <pt x="63" y="643" on="1"/>
        <pt x="258" y="643" on="1"/>
        <pt x="335" y="643" on="0"/>
        <pt x="461" y="599" on="0"/>
        <pt x="551" y="517" on="0"/>
        <pt x="600" y="398" on="0"/>
      </contour>
      <contour>
        <pt x="468" y="322" on="1"/>
        <pt x="468" y="541" on="0"/>
        <pt x="258" y="541" on="1"/>
        <pt x="195" y="541" on="1"/>
        <pt x="195" y="102" on="1"/>
        <pt x="258" y="102" on="1"/>
        <pt x="468" y="102" on="0"/>
      </contour>
    </TTGlyph>
    <TTGlyph name="E" xMin="63" yMin="0" xMax="496" yMax="643">
      <contour>
        <pt x="63" y="0" on="1"/>
        <pt x="63" y="643" on="1"/>
        <pt x="487" y="643" on="1"/>
        <pt x="487" y="541" on="1"/>
        <pt x="190" y="541" on="1"/>
        <pt x="190" y="382" on="1"/>
        <pt x="469" y="382" on="1"/>
        <pt x="469" y="285" on="1"/>
        <pt x="190" y="285" on="1"/>
        <pt x="190" y="102" on="1"/>
        <pt x="496" y="102" on="1"/>
        <pt x="496" y="0" on="1"/>
      </contour>
    </TTGlyph>
    <TTGlyph name="F" xMin="63" yMin="0" xMax="471" yMax="643">
      <contour>
        <pt x="195" y="280" on="1"/>
        <pt x="195" y="0" on="1"/>
        <pt x="63" y="0" on="1"/>
        <pt x="63" y="643" on="1"/>
        <pt x="471" y="643" on="1"/>
        <pt x="471" y="541" on="1"/>
        <pt x="195" y="541" on="1"/>
        <pt x="195" y="382" on="1"/>
        <pt x="453" y="382" on="1"/>
        <pt x="453" y="280" on="1"/>
      </contour>
    </TTGlyph>
    <TTGlyph name="G" xMin="48" yMin="-12" xMax="636" yMax="655">
      <contour>
        <pt x="628" y="28" on="1"/>
        <pt x="483" y="-12" on="0"/>
        <pt x="397" y="-12" on="1"/>
        <pt x="319" y="-12" on="0"/>
        <pt x="190" y="33" on="0"/>
        <pt x="98" y="117" on="0"/>
        <pt x="48" y="238" on="0"/>
        <pt x="48" y="315" on="1"/>
        <pt x="48" y="388" on="0"/>
        <pt x="97" y="513" on="0"/>
        <pt x="185" y="604" on="0"/>
        <pt x="304" y="655" on="0"/>
        <pt x="375" y="655" on="1"/>
        <pt x="499" y="655" on="0"/>
        <pt x="636" y="547" on="0"/>
        <pt x="636" y="441" on="1"/>
        <pt x="502" y="441" on="1"/>
        <pt x="501" y="471" on="0"/>
        <pt x="479" y="513" on="0"/>
        <pt x="443" y="540" on="0"/>
        <pt x="396" y="553" on="0"/>
        <pt x="370" y="553" on="1"/>
        <pt x="318" y="553" on="0"/>
        <pt x="246" y="510" on="0"/>
        <pt x="202" y="441" on="0"/>
        <pt x="183" y="355" on="0"/>
        <pt x="183" y="312" on="1"/>
        <pt x="183" y="262" on="0"/>
        <pt x="212" y="180" on="0"/>
        <pt x="267" y="122" on="0"/>
        <pt x="345" y="90" on="0"/>
        <pt x="394" y="90" on="1"/>
        <pt x="425" y="90" on="0"/>
        <pt x="493" y="103" on="1"/>
        <pt x="493" y="235" on="1"/>
        <pt x="378" y="235" on="1"/>
        <pt x="378" y="342" on="1"/>
        <pt x="628" y="342" on="1"/>
        <pt x="628" y="28" on="1"/>
      </contour>
    </TTGlyph>
    <TTGlyph name="H" xMin="63" yMin="0" xMax="574" yMax="643">
      <contour>
        <pt x="445" y="0" on="1"/>
        <pt x="445" y="285" on="1"/>
        <pt x="192" y="285" on="1"/>
        <pt x="192" y="0" on="1"/>
        <pt x="63" y="0" on="1"/>
        <pt x="63" y="643" on="1"/>
        <pt x="192" y="643" on="1"/>
        <pt x="192" y="387" on="1"/>
        <pt x="445" y="387" on="1"/>
        <pt x="445" y="643" on="1"/>
        <pt x="574" y="643" on="1"/>
        <pt x="574" y="0" on="1"/>
      </contour>
    </TTGlyph>
    <TTGlyph name="I" xMin="63" yMin="0" xMax="195" yMax="643">
      <contour>
        <pt x="63" y="0" on="1"/>
        <pt x="63" y="643" on="1"/>
        <pt x="195" y="643" on="1"/>
        <pt x="195" y="0" on="1"/>
      </contour>
    </TTGlyph>
    <TTGlyph name="J" xMin="48" yMin="-12" xMax="496" yMax="645">
      <contour>
        <pt x="496" y="190" on="1"/>
        <pt x="496" y="142" on="0"/>
        <pt x="457" y="67" on="0"/>
        <pt x="393" y="15" on="0"/>
        <pt x="311" y="-12" on="0"/>
        <pt x="268" y="-12" on="1"/>
        <pt x="207" y="-12" on="0"/>
        <pt x="123" y="15" on="0"/>
        <pt x="71" y="69" on="0"/>
        <pt x="48" y="149" on="0"/>
        <pt x="48" y="202" on="1"/>
        <pt x="183" y="202" on="1"/>
        <pt x="183" y="90" on="0"/>
        <pt x="264" y="90" on="1"/>
        <pt x="318" y="90" on="0"/>
        <pt x="363" y="141" on="0"/>
        <pt x="363" y="198" on="1"/>
        <pt x="363" y="645" on="1"/>
        <pt x="496" y="645" on="1"/>
        <pt x="496" y="190" on="1"/>
      </contour>
    </TTGlyph>
    <TTGlyph name="K" xMin="63" yMin="0" xMax="588" yMax="643">
      <contour>
        <pt x="427" y="0" on="1"/>
        <pt x="195" y="322" on="1"/>
        <pt x="195" y="0" on="1"/>
        <pt x="63" y="0" on="1"/>
        <pt x="63" y="643" on="1"/>
        <pt x="195" y="643" on="1"/>
        <pt x="195" y="367" on="1"/>
        <pt x="409" y="643" on="1"/>
        <pt x="561" y="643" on="1"/>
        <pt x="334" y="355" on="1"/>
        <pt x="588" y="0" on="1"/>
      </contour>
    </TTGlyph>
    <TTGlyph name="L" xMin="63" yMin="0" xMax="486" yMax="643">
      <contour>
        <pt x="63" y="0" on="1"/>
        <pt x="63" y="643" on="1"/>
        <pt x="195" y="643" on="1"/>
        <pt x="195" y="102" on="1"/>
        <pt x="486" y="102" on="1"/>
        <pt x="486" y="0" on="1"/>
      </contour>
    </TTGlyph>
    <TTGlyph name="M" xMin="63" yMin="0" xMax="766" yMax="646">
      <contour>
        <pt x="640" y="0" on="1"/>
        <pt x="640" y="534" on="1"/>
        <pt x="478" y="0" on="1"/>
        <pt x="349" y="0" on="1"/>
        <pt x="187" y="534" on="1"/>
        <pt x="187" y="0" on="1"/>
        <pt x="63" y="0" on="1"/>
        <pt x="63" y="643" on="1"/>
        <pt x="276" y="643" on="1"/>
        <pt x="414" y="178" on="1"/>
        <pt x="552" y="646" on="1"/>
        <pt x="766" y="646" on="1"/>
        <pt x="766" y="0" on="1"/>
      </contour>
    </TTGlyph>
    <TTGlyph name="N" xMin="63" yMin="0" xMax="622" yMax="643">
      <contour>
        <pt x="435" y="0" on="1"/>
        <pt x="187" y="514" on="1"/>
        <pt x="187" y="0" on="1"/>
        <pt x="63" y="0" on="1"/>
        <pt x="63" y="643" on="1"/>
        <pt x="249" y="643" on="1"/>
        <pt x="496" y="129" on="1"/>
        <pt x="496" y="643" on="1"/>
        <pt x="622" y="643" on="1"/>
        <pt x="622" y="0" on="1"/>
      </contour>
    </TTGlyph>
    <TTGlyph name="O" xMin="48" yMin="-12" xMax="658" yMax="655">
      <contour>
        <pt x="658" y="322" on="1"/>
        <pt x="658" y="249" on="0"/>
        <pt x="618" y="127" on="0"/>
        <pt x="540" y="38" on="0"/>
        <pt x="427" y="-12" on="0"/>
        <pt x="354" y="-12" on="1"/>
        <pt x="277" y="-12" on="0"/>
        <pt x="162" y="41" on="0"/>
        <pt x="86" y="131" on="0"/>
        <pt x="48" y="253" on="0"/>
        <pt x="48" y="322" on="1"/>
        <pt x="48" y="395" on="0"/>
        <pt x="89" y="517" on="0"/>
        <pt x="167" y="605" on="0"/>
        <pt x="281" y="655" on="0"/>
        <pt x="354" y="655" on="1"/>
        <pt x="430" y="655" on="0"/>
        <pt x="545" y="602" on="0"/>
        <pt x="620" y="511" on="0"/>
        <pt x="658" y="390" on="0"/>
      </contour>
      <contour>
        <pt x="523" y="322" on="1"/>
        <pt x="523" y="553" on="0"/>
        <pt x="354" y="553" on="1"/>
        <pt x="184" y="553" on="0"/>
        <pt x="184" y="322" on="1"/>
        <pt x="184" y="90" on="0"/>
        <pt x="354" y="90" on="1"/>
        <pt x="523" y="90" on="0"/>
      </contour>
    </TTGlyph>
    <TTGlyph name="P" xMin="63" yMin="0" xMax="535" yMax="643">
      <contour>
        <pt x="535" y="442" on="1"/>
        <pt x="535" y="388" on="0"/>
        <pt x="493" y="313" on="0"/>
        <pt x="424" y="266" on="0"/>
        <pt x="337" y="244" on="0"/>
        <pt x="291" y="244" on="1"/>
        <pt x="195" y="244" on="1"/>
        <pt x="195" y="0" on="1"/>
        <pt x="63" y="0" on="1"/>
        <pt x="63" y="643" on="1"/>
        <pt x="291" y="643" on="1"/>
        <pt x="340" y="643" on="0"/>
        <pt x="429" y="619" on="0"/>
        <pt x="496" y="569" on="0"/>
        <pt x="535" y="494" on="0"/>
      </contour>
      <contour>
        <pt x="402" y="442" on="1"/>
        <pt x="402" y="498" on="0"/>
        <pt x="324" y="541" on="0"/>
        <pt x="258" y="541" on="1"/>
        <pt x="195" y="541" on="1"/>
        <pt x="195" y="346" on="1"/>
        <pt x="258" y="346" on="1"/>
        <pt x="289" y="346" on="0"/>
        <pt x="341" y="355" on="0"/>
        <pt x="380" y="377" on="0"/>
        <pt x="402" y="414" on="0"/>
      </contour>
    </TTGlyph>
    <TTGlyph name="Q" xMin="48" yMin="-12" xMax="712" yMax="655">
      <contour>
        <pt x="481" y="0" on="1"/>
        <pt x="377" y="-12" on="0"/>
        <pt x="354" y="-12" on="1"/>
        <pt x="277" y="-12" on="0"/>
        <pt x="162" y="41" on="0"/>
        <pt x="86" y="131" on="0"/>
        <pt x="48" y="253" on="0"/>
        <pt x="48" y="322" on="1"/>
        <pt x="48" y="395" on="0"/>
        <pt x="89" y="517" on="0"/>
        <pt x="167" y="605" on="0"/>
        <pt x="281" y="655" on="0"/>
        <pt x="354" y="655" on="1"/>
        <pt x="430" y="655" on="0"/>
        <pt x="545" y="602" on="0"/>
        <pt x="620" y="511" on="0"/>
        <pt x="658" y="390" on="0"/>
        <pt x="658" y="322" on="1"/>
        <pt x="658" y="192" on="0"/>
        <pt x="583" y="105" on="1"/>
        <pt x="712" y="105" on="1"/>
        <pt x="712" y="0" on="1"/>
      </contour>
      <contour>
        <pt x="523" y="322" on="1"/>
        <pt x="523" y="553" on="0"/>
        <pt x="354" y="553" on="1"/>
        <pt x="184" y="553" on="0"/>
        <pt x="184" y="322" on="1"/>
        <pt x="184" y="90" on="0"/>
        <pt x="354" y="90" on="1"/>
        <pt x="523" y="90" on="0"/>
      </contour>
    </TTGlyph>
    <TTGlyph name="R" xMin="63" yMin="0" xMax="574" yMax="643">
      <contour>
        <pt x="438" y="0" on="1"/>
        <pt x="425" y="40" on="0"/>
        <pt x="417" y="116" on="0"/>
        <pt x="412" y="154" on="1"/>
        <pt x="405" y="204" on="0"/>
        <pt x="360" y="262" on="0"/>
        <pt x="312" y="262" on="1"/>
        <pt x="195" y="262" on="1"/>
        <pt x="195" y="0" on="1"/>
        <pt x="63" y="0" on="1"/>
        <pt x="63" y="643" on="1"/>
        <pt x="312" y="643" on="1"/>
        <pt x="559" y="643" on="0"/>
        <pt x="559" y="471" on="1"/>
        <pt x="559" y="440" on="0"/>
        <pt x="534" y="392" on="0"/>
        <pt x="495" y="355" on="0"/>
        <pt x="447" y="328" on="0"/>
        <pt x="423" y="319" on="1"/>
        <pt x="455" y="311" on="0"/>
        <pt x="508" y="286" on="0"/>
        <pt x="520" y="257" on="1"/>
        <pt x="529" y="234" on="0"/>
        <pt x="542" y="160" on="0"/>
        <pt x="553" y="83" on="0"/>
        <pt x="565" y="16" on="0"/>
        <pt x="574" y="0" on="1"/>
      </contour>
      <contour>
        <pt x="426" y="450" on="1"/>
        <pt x="426" y="472" on="0"/>
        <pt x="405" y="507" on="0"/>
        <pt x="372" y="529" on="0"/>
        <pt x="331" y="541" on="0"/>
        <pt x="312" y="541" on="1"/>
        <pt x="195" y="541" on="1"/>
        <pt x="195" y="364" on="1"/>
        <pt x="303" y="364" on="1"/>
        <pt x="322" y="364" on="0"/>
        <pt x="365" y="376" on="0"/>
        <pt x="402" y="398" on="0"/>
        <pt x="426" y="430" on="0"/>
      </contour>
    </TTGlyph>
    <TTGlyph name="S" xMin="48" yMin="-12" xMax="559" yMax="655">
      <contour>
        <pt x="559" y="187" on="1"/>
        <pt x="559" y="137" on="0"/>
        <pt x="511" y="62" on="0"/>
        <pt x="438" y="12" on="0"/>
        <pt x="348" y="-12" on="0"/>
        <pt x="306" y="-12" on="1"/>
        <pt x="255" y="-12" on="0"/>
        <pt x="162" y="15" on="0"/>
        <pt x="90" y="68" on="0"/>
        <pt x="48" y="148" on="0"/>
        <pt x="48" y="202" on="1"/>
        <pt x="183" y="202" on="1"/>
        <pt x="185" y="140" on="0"/>
        <pt x="253" y="90" on="0"/>
        <pt x="309" y="90" on="1"/>
        <pt x="329" y="90" on="0"/>
        <pt x="372" y="100" on="0"/>
        <pt x="407" y="121" on="0"/>
        <pt x="430" y="153" on="0"/>
        <pt x="430" y="175" on="1"/>
        <pt x="430" y="208" on="0"/>
        <pt x="376" y="246" on="0"/>
        <pt x="296" y="272" on="0"/>
        <pt x="201" y="296" on="0"/>
        <pt x="121" y="336" on="0"/>
        <pt x="67" y="401" on="0"/>
        <pt x="67" y="456" on="1"/>
        <pt x="67" y="504" on="0"/>
        <pt x="112" y="579" on="0"/>
        <pt x="182" y="629" on="0"/>
        <pt x="268" y="655" on="0"/>
        <pt x="309" y="655" on="1"/>
        <pt x="356" y="655" on="0"/>
        <pt x="441" y="632" on="0"/>
        <pt x="504" y="584" on="0"/>
        <pt x="541" y="512" on="0"/>
        <pt x="541" y="463" on="1"/>
        <pt x="406" y="463" on="1"/>
        <pt x="406" y="507" on="0"/>
        <pt x="350" y="558" on="0"/>
        <pt x="309" y="558" on="1"/>
        <pt x="290" y="558" on="0"/>
        <pt x="250" y="546" on="0"/>
        <pt x="217" y="524" on="0"/>
        <pt x="195" y="492" on="0"/>
        <pt x="195" y="471" on="1"/>
        <pt x="195" y="439" on="0"/>
        <pt x="249" y="403" on="0"/>
        <pt x="330" y="376" on="0"/>
        <pt x="424" y="351" on="0"/>
        <pt x="505" y="310" on="0"/>
        <pt x="559" y="242" on="0"/>
      </contour>
    </TTGlyph>
    <TTGlyph name="T" xMin="27" yMin="0" xMax="540" yMax="643">
      <contour>
        <pt x="349" y="541" on="1"/>
        <pt x="349" y="0" on="1"/>
        <pt x="216" y="0" on="1"/>
        <pt x="216" y="541" on="1"/>
        <pt x="27" y="541" on="1"/>
        <pt x="27" y="643" on="1"/>
        <pt x="540" y="643" on="1"/>
        <pt x="540" y="541" on="1"/>
      </contour>
    </TTGlyph>
    <TTGlyph name="U" xMin="63" yMin="-12" xMax="612" yMax="643">
      <contour>
        <pt x="612" y="265" on="1"/>
        <pt x="612" y="200" on="0"/>
        <pt x="570" y="97" on="0"/>
        <pt x="495" y="26" on="0"/>
        <pt x="391" y="-12" on="0"/>
        <pt x="330" y="-12" on="1"/>
        <pt x="265" y="-12" on="0"/>
        <pt x="165" y="29" on="0"/>
        <pt x="97" y="102" on="0"/>
        <pt x="63" y="204" on="0"/>
        <pt x="63" y="265" on="1"/>
        <pt x="63" y="643" on="1"/>
        <pt x="195" y="643" on="1"/>
        <pt x="195" y="265" on="1"/>
        <pt x="195" y="90" on="0"/>
        <pt x="334" y="90" on="1"/>
        <pt x="478" y="90" on="0"/>
        <pt x="478" y="265" on="1"/>
        <pt x="478" y="643" on="1"/>
        <pt x="612" y="643" on="1"/>
        <pt x="612" y="265" on="1"/>
      </contour>
    </TTGlyph>
    <TTGlyph name="V" xMin="9" yMin="0" xMax="648" yMax="643">
      <contour>
        <pt x="403" y="0" on="1"/>
        <pt x="246" y="0" on="1"/>
        <pt x="9" y="643" on="1"/>
        <pt x="151" y="643" on="1"/>
        <pt x="328" y="148" on="1"/>
        <pt x="507" y="643" on="1"/>
        <pt x="648" y="643" on="1"/>
      </contour>
    </TTGlyph>
    <TTGlyph name="W" xMin="9" yMin="0" xMax="882" yMax="643">
      <contour>
        <pt x="721" y="0" on="1"/>
        <pt x="570" y="0" on="1"/>
        <pt x="445" y="481" on="1"/>
        <pt x="321" y="0" on="1"/>
        <pt x="169" y="0" on="1"/>
        <pt x="9" y="643" on="1"/>
        <pt x="151" y="643" on="1"/>
        <pt x="249" y="160" on="1"/>
        <pt x="375" y="643" on="1"/>
        <pt x="516" y="643" on="1"/>
        <pt x="640" y="160" on="1"/>
        <pt x="739" y="643" on="1"/>
        <pt x="882" y="643" on="1"/>
      </contour>
    </TTGlyph>
    <TTGlyph name="X" xMin="9" yMin="0" xMax="607" yMax="643">
      <contour>
        <pt x="456" y="0" on="1"/>
        <pt x="297" y="244" on="1"/>
        <pt x="142" y="0" on="1"/>
        <pt x="9" y="0" on="1"/>
        <pt x="232" y="334" on="1"/>
        <pt x="28" y="643" on="1"/>
        <pt x="178" y="643" on="1"/>
        <pt x="316" y="426" on="1"/>
        <pt x="453" y="643" on="1"/>
        <pt x="591" y="643" on="1"/>
        <pt x="381" y="334" on="1"/>
        <pt x="607" y="0" on="1"/>
      </contour>
    </TTGlyph>
    <TTGlyph name="Y" xMin="9" yMin="0" xMax="573" yMax="643">
      <contour>
        <pt x="358" y="243" on="1"/>
        <pt x="358" y="0" on="1"/>
        <pt x="225" y="0" on="1"/>
        <pt x="225" y="243" on="1"/>
        <pt x="9" y="643" on="1"/>
        <pt x="156" y="643" on="1"/>
        <pt x="291" y="373" on="1"/>
        <pt x="426" y="643" on="1"/>
        <pt x="573" y="643" on="1"/>
      </contour>
    </TTGlyph>
    <TTGlyph name="Z" xMin="40" yMin="0" xMax="523" yMax="643">
      <contour>
        <pt x="40" y="0" on="1"/>
        <pt x="40" y="111" on="1"/>
        <pt x="363" y="541" on="1"/>
        <pt x="60" y="541" on="1"/>
        <pt x="60" y="643" on="1"/>
        <pt x="517" y="643" on="1"/>
        <pt x="517" y="531" on="1"/>
        <pt x="193" y="102" on="1"/>
        <pt x="523" y="102" on="1"/>
        <pt x="523" y="0" on="1"/>
      </contour>
    </TTGlyph>
    <TTGlyph name="a" xMin="40" yMin="-12" xMax="450" yMax="457">
      <contour>
        <pt x="340" y="0" on="1"/>
        <pt x="338" y="8" on="0"/>
        <pt x="330" y="42" on="0"/>
        <pt x="328" y="52" on="1"/>
        <pt x="307" y="34" on="0"/>
        <pt x="275" y="9" on="0"/>
        <pt x="245" y="-6" on="0"/>
        <pt x="213" y="-12" on="0"/>
        <pt x="193" y="-12" on="1"/>
        <pt x="161" y="-12" on="0"/>
        <pt x="105" y="7" on="0"/>
        <pt x="64" y="43" on="0"/>
        <pt x="40" y="93" on="0"/>
        <pt x="40" y="124" on="1"/>
        <pt x="40" y="171" on="0"/>
        <pt x="78" y="235" on="0"/>
        <pt x="138" y="274" on="0"/>
        <pt x="214" y="291" on="0"/>
        <pt x="252" y="291" on="1"/>
        <pt x="318" y="291" on="1"/>
        <pt x="318" y="313" on="0"/>
        <pt x="313" y="349" on="0"/>
        <pt x="298" y="374" on="0"/>
        <pt x="270" y="387" on="0"/>
        <pt x="246" y="387" on="1"/>
        <pt x="226" y="387" on="0"/>
        <pt x="201" y="379" on="0"/>
        <pt x="187" y="362" on="0"/>
        <pt x="180" y="338" on="0"/>
        <pt x="177" y="322" on="1"/>
        <pt x="58" y="322" on="1"/>
        <pt x="58" y="382" on="0"/>
        <pt x="159" y="457" on="0"/>
        <pt x="249" y="457" on="1"/>
        <pt x="274" y="457" on="0"/>
        <pt x="330" y="448" on="0"/>
        <pt x="379" y="427" on="0"/>
        <pt x="418" y="393" on="0"/>
        <pt x="426" y="367" on="1"/>
        <pt x="436" y="336" on="0"/>
        <pt x="436" y="259" on="1"/>
        <pt x="436" y="160" on="1"/>
        <pt x="436" y="112" on="0"/>
        <pt x="443" y="26" on="0"/>
        <pt x="450" y="0" on="1"/>
      </contour>
      <contour>
        <pt x="318" y="222" on="1"/>
        <pt x="309" y="223" on="0"/>
        <pt x="288" y="223" on="0"/>
        <pt x="276" y="223" on="1"/>
        <pt x="162" y="223" on="0"/>
        <pt x="162" y="132" on="1"/>
        <pt x="162" y="106" on="0"/>
        <pt x="202" y="67" on="0"/>
        <pt x="231" y="67" on="1"/>
        <pt x="260" y="67" on="0"/>
        <pt x="294" y="93" on="0"/>
        <pt x="312" y="136" on="0"/>
        <pt x="318" y="192" on="0"/>
      </contour>
    </TTGlyph>
    <TTGlyph name="ampersand" xMin="48" yMin="-12" xMax="694" yMax="655">
      <contour>
        <pt x="540" y="0" on="1"/>
        <pt x="492" y="45" on="1"/>
        <pt x="427" y="-12" on="0"/>
        <pt x="298" y="-12" on="1"/>
        <pt x="252" y="-12" on="0"/>
        <pt x="163" y="8" on="0"/>
        <pt x="92" y="53" on="0"/>
        <pt x="48" y="123" on="0"/>
        <pt x="48" y="174" on="1"/>
        <pt x="48" y="302" on="0"/>
        <pt x="181" y="366" on="1"/>
        <pt x="99" y="432" on="0"/>
        <pt x="99" y="523" on="1"/>
        <pt x="99" y="560" on="0"/>
        <pt x="135" y="610" on="0"/>
        <pt x="191" y="641" on="0"/>
        <pt x="257" y="655" on="0"/>
        <pt x="286" y="655" on="1"/>
        <pt x="316" y="655" on="0"/>
        <pt x="379" y="642" on="0"/>
        <pt x="432" y="612" on="0"/>
        <pt x="465" y="565" on="0"/>
        <pt x="465" y="531" on="1"/>
        <pt x="465" y="497" on="0"/>
        <pt x="441" y="444" on="0"/>
        <pt x="404" y="400" on="0"/>
        <pt x="357" y="363" on="0"/>
        <pt x="333" y="346" on="1"/>
        <pt x="384" y="280" on="0"/>
        <pt x="475" y="198" on="1"/>
        <pt x="499" y="261" on="0"/>
        <pt x="496" y="339" on="1"/>
        <pt x="618" y="339" on="1"/>
        <pt x="613" y="280" on="0"/>
        <pt x="586" y="168" on="0"/>
        <pt x="561" y="117" on="1"/>
        <pt x="605" y="64" on="0"/>
        <pt x="694" y="0" on="1"/>
      </contour>
      <contour>
        <pt x="355" y="513" on="1"/>
        <pt x="355" y="522" on="0"/>
        <pt x="344" y="541" on="0"/>
        <pt x="326" y="557" on="0"/>
        <pt x="303" y="567" on="0"/>
        <pt x="291" y="567" on="1"/>
        <pt x="258" y="567" on="0"/>
        <pt x="216" y="534" on="0"/>
        <pt x="216" y="510" on="1"/>
        <pt x="216" y="471" on="0"/>
        <pt x="276" y="408" on="1"/>
        <pt x="290" y="418" on="0"/>
        <pt x="318" y="442" on="0"/>
        <pt x="341" y="469" on="0"/>
        <pt x="355" y="498" on="0"/>
      </contour>
      <contour>
        <pt x="415" y="114" on="1"/>
        <pt x="300" y="217" on="0"/>
        <pt x="237" y="295" on="1"/>
        <pt x="174" y="232" on="0"/>
        <pt x="174" y="186" on="1"/>
        <pt x="174" y="159" on="0"/>
        <pt x="196" y="117" on="0"/>
        <pt x="232" y="90" on="0"/>
        <pt x="277" y="76" on="0"/>
        <pt x="301" y="76" on="1"/>
        <pt x="377" y="76" on="0"/>
      </contour>
    </TTGlyph>
    <TTGlyph name="asciicircum" xMin="55" yMin="547" xMax="522" yMax="843">
      <contour>
        <pt x="460" y="547" on="1"/>
        <pt x="289" y="718" on="1"/>
        <pt x="117" y="547" on="1"/>
        <pt x="55" y="609" on="1"/>
        <pt x="289" y="843" on="1"/>
        <pt x="522" y="609" on="1"/>
      </contour>
    </TTGlyph>
    <TTGlyph name="asciitilde" xMin="55" yMin="157" xMax="520" yMax="322">
      <contour>
        <pt x="520" y="231" on="1"/>
        <pt x="484" y="197" on="0"/>
        <pt x="404" y="163" on="0"/>
        <pt x="369" y="163" on="1"/>
        <pt x="337" y="163" on="0"/>
        <pt x="289" y="180" on="0"/>
        <pt x="252" y="201" on="0"/>
        <pt x="220" y="219" on="0"/>
        <pt x="204" y="219" on="1"/>
        <pt x="184" y="219" on="0"/>
        <pt x="126" y="195" on="0"/>
        <pt x="91" y="157" on="1"/>
        <pt x="55" y="253" on="1"/>
        <pt x="91" y="293" on="0"/>
        <pt x="173" y="322" on="0"/>
        <pt x="204" y="322" on="1"/>
        <pt x="240" y="322" on="0"/>
        <pt x="286" y="305" on="0"/>
        <pt x="320" y="284" on="0"/>
        <pt x="349" y="267" on="0"/>
        <pt x="369" y="267" on="1"/>
        <pt x="387" y="267" on="0"/>
        <pt x="436" y="293" on="0"/>
        <pt x="454" y="310" on="1"/>
        <pt x="520" y="231" on="1"/>
      </contour>
    </TTGlyph>
    <TTGlyph name="asterisk" xMin="55" yMin="232" xMax="514" yMax="694">
      <contour>
        <pt x="457" y="298" on="1"/>
        <pt x="343" y="366" on="1"/>
        <pt x="343" y="232" on="1"/>
        <pt x="231" y="232" on="1"/>
        <pt x="231" y="366" on="1"/>
        <pt x="117" y="298" on="1"/>
        <pt x="55" y="394" on="1"/>
        <pt x="175" y="463" on="1"/>
        <pt x="55" y="531" on="1"/>
        <pt x="117" y="627" on="1"/>
        <pt x="229" y="562" on="1"/>
        <pt x="229" y="694" on="1"/>
        <pt x="343" y="694" on="1"/>
        <pt x="343" y="562" on="1"/>
        <pt x="457" y="627" on="1"/>
        <pt x="514" y="529" on="1"/>
        <pt x="399" y="463" on="1"/>
        <pt x="514" y="396" on="1"/>
      </contour>
    </TTGlyph>
    <TTGlyph name="at" xMin="36" yMin="-189" xMax="891" yMax="655">
      <contour>
        <pt x="891" y="273" on="1"/>
        <pt x="891" y="228" on="0"/>
        <pt x="869" y="133" on="0"/>
        <pt x="822" y="54" on="0"/>
        <pt x="749" y="3" on="0"/>
        <pt x="699" y="3" on="1"/>
        <pt x="607" y="3" on="0"/>
        <pt x="570" y="75" on="1"/>
        <pt x="514" y="7" on="0"/>
        <pt x="441" y="7" on="1"/>
        <pt x="397" y="7" on="0"/>
        <pt x="325" y="45" on="0"/>
        <pt x="274" y="106" on="0"/>
        <pt x="247" y="183" on="0"/>
        <pt x="247" y="223" on="1"/>
        <pt x="247" y="266" on="0"/>
        <pt x="271" y="348" on="0"/>
        <pt x="318" y="411" on="0"/>
        <pt x="388" y="450" on="0"/>
        <pt x="433" y="450" on="1"/>
        <pt x="499" y="450" on="0"/>
        <pt x="550" y="391" on="1"/>
        <pt x="550" y="436" on="1"/>
        <pt x="672" y="436" on="1"/>
        <pt x="672" y="142" on="1"/>
        <pt x="672" y="119" on="0"/>
        <pt x="695" y="96" on="0"/>
        <pt x="709" y="96" on="1"/>
        <pt x="722" y="96" on="0"/>
        <pt x="744" y="118" on="0"/>
        <pt x="760" y="156" on="0"/>
        <pt x="769" y="208" on="0"/>
        <pt x="769" y="238" on="1"/>
        <pt x="769" y="308" on="0"/>
        <pt x="729" y="424" on="0"/>
        <pt x="654" y="507" on="0"/>
        <pt x="546" y="553" on="0"/>
        <pt x="477" y="553" on="1"/>
        <pt x="405" y="553" on="0"/>
        <pt x="287" y="497" on="0"/>
        <pt x="204" y="403" on="0"/>
        <pt x="159" y="280" on="0"/>
        <pt x="159" y="213" on="1"/>
        <pt x="159" y="151" on="0"/>
        <pt x="210" y="43" on="0"/>
        <pt x="294" y="-38" on="0"/>
        <pt x="400" y="-84" on="0"/>
        <pt x="456" y="-84" on="1"/>
        <pt x="606" y="-84" on="0"/>
        <pt x="678" y="-56" on="1"/>
        <pt x="678" y="-174" on="1"/>
        <pt x="552" y="-189" on="0"/>
        <pt x="496" y="-189" on="1"/>
        <pt x="400" y="-189" on="0"/>
        <pt x="232" y="-131" on="0"/>
        <pt x="107" y="-24" on="0"/>
        <pt x="36" y="130" on="0"/>
        <pt x="36" y="226" on="1"/>
        <pt x="36" y="322" on="0"/>
        <pt x="108" y="481" on="0"/>
        <pt x="231" y="593" on="0"/>
        <pt x="393" y="655" on="0"/>
        <pt x="483" y="655" on="1"/>
        <pt x="569" y="655" on="0"/>
        <pt x="718" y="599" on="0"/>
        <pt x="828" y="498" on="0"/>
        <pt x="891" y="357" on="0"/>
      </contour>
      <contour>
        <pt x="550" y="235" on="1"/>
        <pt x="550" y="357" on="0"/>
        <pt x="462" y="357" on="1"/>
        <pt x="438" y="357" on="0"/>
        <pt x="403" y="330" on="0"/>
        <pt x="382" y="291" on="0"/>
        <pt x="372" y="245" on="0"/>
        <pt x="372" y="226" on="1"/>
        <pt x="372" y="205" on="0"/>
        <pt x="381" y="161" on="0"/>
        <pt x="402" y="124" on="0"/>
        <pt x="435" y="100" on="0"/>
        <pt x="459" y="100" on="1"/>
        <pt x="485" y="100" on="0"/>
        <pt x="520" y="127" on="0"/>
        <pt x="541" y="167" on="0"/>
        <pt x="550" y="215" on="0"/>
      </contour>
    </TTGlyph>
    <TTGlyph name="b" xMin="58" yMin="-12" xMax="507" yMax="643">
      <contour>
        <pt x="507" y="216" on="1"/>
        <pt x="507" y="165" on="0"/>
        <pt x="478" y="81" on="0"/>
        <pt x="424" y="21" on="0"/>
        <pt x="348" y="-12" on="0"/>
        <pt x="301" y="-12" on="1"/>
        <pt x="259" y="-12" on="0"/>
        <pt x="195" y="22" on="0"/>
        <pt x="178" y="51" on="1"/>
        <pt x="178" y="0" on="1"/>
        <pt x="58" y="0" on="1"/>
        <pt x="58" y="643" on="1"/>
        <pt x="178" y="643" on="1"/>
        <pt x="178" y="405" on="1"/>
        <pt x="199" y="428" on="0"/>
        <pt x="261" y="457" on="0"/>
        <pt x="309" y="457" on="1"/>
        <pt x="368" y="457" on="0"/>
        <pt x="444" y="410" on="0"/>
        <pt x="489" y="339" on="0"/>
        <pt x="507" y="254" on="0"/>
      </contour>
      <contour>
        <pt x="387" y="216" on="1"/>
        <pt x="387" y="241" on="0"/>
        <pt x="376" y="299" on="0"/>
        <pt x="351" y="349" on="0"/>
        <pt x="308" y="382" on="0"/>
        <pt x="276" y="382" on="1"/>
        <pt x="177" y="382" on="0"/>
        <pt x="177" y="220" on="1"/>
        <pt x="177" y="197" on="0"/>
        <pt x="187" y="144" on="0"/>
        <pt x="211" y="98" on="0"/>
        <pt x="251" y="67" on="0"/>
        <pt x="280" y="67" on="1"/>
        <pt x="309" y="67" on="0"/>
        <pt x="350" y="94" on="0"/>
        <pt x="375" y="137" on="0"/>
        <pt x="387" y="190" on="0"/>
      </contour>
    </TTGlyph>
    <TTGlyph name="backslash" xMin="55" yMin="-275" xMax="502" yMax="831">
      <contour>
        <pt x="414" y="-275" on="1"/>
        <pt x="55" y="747" on="1"/>
        <pt x="145" y="831" on="1"/>
        <pt x="502" y="-186" on="1"/>
      </contour>
    </TTGlyph>
    <TTGlyph name="bar" xMin="121" yMin="-230" xMax="229" yMax="709">
      <contour>
        <pt x="121" y="-230" on="1"/>
        <pt x="121" y="709" on="1"/>
        <pt x="229" y="709" on="1"/>
        <pt x="229" y="-230" on="1"/>
      </contour>
    </TTGlyph>
    <TTGlyph name="braceleft" xMin="70" yMin="-398" xMax="387" yMax="850">
      <contour>
        <pt x="387" y="-398" on="1"/>
        <pt x="310" y="-398" on="0"/>
        <pt x="221" y="-325" on="0"/>
        <pt x="177" y="-199" on="0"/>
        <pt x="166" y="-29" on="0"/>
        <pt x="166" y="69" on="1"/>
        <pt x="166" y="96" on="0"/>
        <pt x="136" y="133" on="0"/>
        <pt x="100" y="166" on="0"/>
        <pt x="70" y="201" on="0"/>
        <pt x="70" y="226" on="1"/>
        <pt x="70" y="251" on="0"/>
        <pt x="100" y="286" on="0"/>
        <pt x="136" y="319" on="0"/>
        <pt x="166" y="357" on="0"/>
        <pt x="166" y="384" on="1"/>
        <pt x="166" y="481" on="0"/>
        <pt x="177" y="651" on="0"/>
        <pt x="221" y="777" on="0"/>
        <pt x="310" y="850" on="0"/>
        <pt x="387" y="850" on="1"/>
        <pt x="387" y="738" on="1"/>
        <pt x="352" y="738" on="0"/>
        <pt x="310" y="689" on="0"/>
        <pt x="288" y="596" on="0"/>
        <pt x="280" y="458" on="0"/>
        <pt x="280" y="370" on="1"/>
        <pt x="280" y="331" on="0"/>
        <pt x="257" y="280" on="0"/>
        <pt x="228" y="247" on="0"/>
        <pt x="205" y="230" on="0"/>
        <pt x="205" y="226" on="1"/>
        <pt x="205" y="222" on="0"/>
        <pt x="228" y="206" on="0"/>
        <pt x="257" y="174" on="0"/>
        <pt x="280" y="121" on="0"/>
        <pt x="280" y="81" on="1"/>
        <pt x="280" y="-7" on="0"/>
        <pt x="288" y="-144" on="0"/>
        <pt x="310" y="-238" on="0"/>
        <pt x="352" y="-287" on="0"/>
        <pt x="387" y="-287" on="1"/>
        <pt x="387" y="-398" on="1"/>
      </contour>
    </TTGlyph>
    <TTGlyph name="braceright" xMin="55" yMin="-398" xMax="370" yMax="850">
      <contour>
        <pt x="370" y="226" on="1"/>
        <pt x="370" y="201" on="0"/>
        <pt x="341" y="166" on="0"/>
        <pt x="305" y="133" on="0"/>
        <pt x="276" y="96" on="0"/>
        <pt x="276" y="69" on="1"/>
        <pt x="276" y="-29" on="0"/>
        <pt x="265" y="-199" on="0"/>
        <pt x="221" y="-325" on="0"/>
        <pt x="132" y="-398" on="0"/>
        <pt x="55" y="-398" on="1"/>
        <pt x="55" y="-285" on="1"/>
        <pt x="89" y="-285" on="0"/>
        <pt x="132" y="-236" on="0"/>
        <pt x="154" y="-143" on="0"/>
        <pt x="162" y="-6" on="0"/>
        <pt x="162" y="82" on="1"/>
        <pt x="162" y="121" on="0"/>
        <pt x="186" y="173" on="0"/>
        <pt x="214" y="206" on="0"/>
        <pt x="238" y="222" on="0"/>
        <pt x="238" y="226" on="1"/>
        <pt x="238" y="230" on="0"/>
        <pt x="214" y="246" on="0"/>
        <pt x="186" y="279" on="0"/>
        <pt x="162" y="331" on="0"/>
        <pt x="162" y="370" on="1"/>
        <pt x="162" y="458" on="0"/>
        <pt x="154" y="596" on="0"/>
        <pt x="132" y="690" on="0"/>
        <pt x="89" y="739" on="0"/>
        <pt x="55" y="739" on="1"/>
        <pt x="55" y="850" on="1"/>
        <pt x="132" y="850" on="0"/>
        <pt x="221" y="778" on="0"/>
        <pt x="265" y="652" on="0"/>
        <pt x="276" y="482" on="0"/>
        <pt x="276" y="385" on="1"/>
        <pt x="276" y="358" on="0"/>
        <pt x="305" y="320" on="0"/>
        <pt x="341" y="287" on="0"/>
        <pt x="370" y="251" on="0"/>
      </contour>
    </TTGlyph>
    <TTGlyph name="bracketleft" xMin="73" yMin="-177" xMax="274" yMax="643">
      <contour>
        <pt x="73" y="-177" on="1"/>
        <pt x="73" y="643" on="1"/>
        <pt x="274" y="643" on="1"/>
        <pt x="274" y="562" on="1"/>
        <pt x="181" y="562" on="1"/>
        <pt x="181" y="-96" on="1"/>
        <pt x="274" y="-96" on="1"/>
        <pt x="274" y="-177" on="1"/>
      </contour>
    </TTGlyph>
    <TTGlyph name="bracketright" xMin="73" yMin="-177" xMax="274" yMax="643">
      <contour>
        <pt x="73" y="-177" on="1"/>
        <pt x="73" y="-96" on="1"/>
        <pt x="168" y="-96" on="1"/>
        <pt x="168" y="562" on="1"/>
        <pt x="73" y="562" on="1"/>
        <pt x="73" y="643" on="1"/>
        <pt x="274" y="643" on="1"/>
        <pt x="274" y="-177" on="1"/>
      </contour>
    </TTGlyph>
    <TTGlyph name="c" xMin="40" yMin="-12" xMax="421" yMax="457">
      <contour>
        <pt x="421" y="163" on="1"/>
        <pt x="421" y="-12" on="0"/>
        <pt x="237" y="-12" on="1"/>
        <pt x="40" y="-12" on="0"/>
        <pt x="40" y="217" on="1"/>
        <pt x="40" y="335" on="0"/>
        <pt x="143" y="457" on="0"/>
        <pt x="237" y="457" on="1"/>
        <pt x="421" y="457" on="0"/>
        <pt x="421" y="289" on="1"/>
        <pt x="303" y="289" on="1"/>
        <pt x="295" y="382" on="0"/>
        <pt x="243" y="382" on="1"/>
        <pt x="219" y="382" on="0"/>
        <pt x="185" y="367" on="0"/>
        <pt x="164" y="330" on="0"/>
        <pt x="154" y="267" on="0"/>
        <pt x="154" y="220" on="1"/>
        <pt x="154" y="177" on="0"/>
        <pt x="161" y="117" on="0"/>
        <pt x="179" y="80" on="0"/>
        <pt x="209" y="63" on="0"/>
        <pt x="232" y="63" on="1"/>
        <pt x="253" y="63" on="0"/>
        <pt x="280" y="80" on="0"/>
        <pt x="295" y="107" on="0"/>
        <pt x="301" y="143" on="0"/>
        <pt x="301" y="163" on="1"/>
        <pt x="421" y="163" on="1"/>
      </contour>
    </TTGlyph>
    <TTGlyph name="circledash" xMin="55" yMin="-38" xMax="598" yMax="501">
      <component glyphName="u1700" x="0" y="0" flags="0x0"/>
    </TTGlyph>
    <TTGlyph name="colon" xMin="40" yMin="-23" xMax="225" yMax="466">
      <contour>
        <pt x="225" y="376" on="1"/>
        <pt x="225" y="358" on="0"/>
        <pt x="209" y="325" on="0"/>
        <pt x="184" y="300" on="0"/>
        <pt x="151" y="286" on="0"/>
        <pt x="133" y="286" on="1"/>
        <pt x="115" y="286" on="0"/>
        <pt x="81" y="300" on="0"/>
        <pt x="55" y="325" on="0"/>
        <pt x="40" y="358" on="0"/>
        <pt x="40" y="376" on="1"/>
        <pt x="40" y="395" on="0"/>
        <pt x="55" y="428" on="0"/>
        <pt x="81" y="452" on="0"/>
        <pt x="115" y="466" on="0"/>
        <pt x="133" y="466" on="1"/>
        <pt x="151" y="466" on="0"/>
        <pt x="184" y="452" on="0"/>
        <pt x="209" y="428" on="0"/>
        <pt x="225" y="395" on="0"/>
      </contour>
      <contour>
        <pt x="225" y="67" on="1"/>
        <pt x="225" y="49" on="0"/>
        <pt x="209" y="16" on="0"/>
        <pt x="184" y="-9" on="0"/>
        <pt x="151" y="-23" on="0"/>
        <pt x="133" y="-23" on="1"/>
        <pt x="115" y="-23" on="0"/>
        <pt x="81" y="-9" on="0"/>
        <pt x="55" y="16" on="0"/>
        <pt x="40" y="49" on="0"/>
        <pt x="40" y="67" on="1"/>
        <pt x="40" y="86" on="0"/>
        <pt x="55" y="119" on="0"/>
        <pt x="81" y="143" on="0"/>
        <pt x="115" y="157" on="0"/>
        <pt x="133" y="157" on="1"/>
        <pt x="151" y="157" on="0"/>
        <pt x="184" y="143" on="0"/>
        <pt x="209" y="119" on="0"/>
        <pt x="225" y="86" on="0"/>
      </contour>
    </TTGlyph>
    <TTGlyph name="comma" xMin="40" yMin="-146" xMax="217" yMax="160">
      <contour>
        <pt x="217" y="67" on="1"/>
        <pt x="217" y="34" on="0"/>
        <pt x="197" y="-29" on="0"/>
        <pt x="164" y="-86" on="0"/>
        <pt x="122" y="-131" on="0"/>
        <pt x="99" y="-146" on="1"/>
        <pt x="87" y="-128" on="1"/>
        <pt x="97" y="-120" on="0"/>
        <pt x="117" y="-94" on="0"/>
        <pt x="132" y="-61" on="0"/>
        <pt x="142" y="-24" on="0"/>
        <pt x="142" y="-5" on="1"/>
        <pt x="142" y="0" on="0"/>
        <pt x="142" y="8" on="0"/>
        <pt x="141" y="13" on="1"/>
        <pt x="136" y="10" on="0"/>
        <pt x="118" y="2" on="0"/>
        <pt x="97" y="-4" on="0"/>
        <pt x="78" y="-8" on="0"/>
        <pt x="72" y="-8" on="1"/>
        <pt x="61" y="-8" on="0"/>
        <pt x="40" y="34" on="0"/>
        <pt x="40" y="67" on="1"/>
        <pt x="40" y="85" on="0"/>
        <pt x="54" y="119" on="0"/>
        <pt x="77" y="144" on="0"/>
        <pt x="109" y="160" on="0"/>
        <pt x="127" y="160" on="1"/>
        <pt x="148" y="160" on="0"/>
        <pt x="182" y="143" on="0"/>
        <pt x="205" y="117" on="0"/>
        <pt x="217" y="83" on="0"/>
      </contour>
    </TTGlyph>
    <TTGlyph name="d" xMin="40" yMin="-12" xMax="487" yMax="643">
      <contour>
        <pt x="367" y="0" on="1"/>
        <pt x="367" y="61" on="1"/>
        <pt x="309" y="-12" on="0"/>
        <pt x="246" y="-12" on="1"/>
        <pt x="195" y="-12" on="0"/>
        <pt x="117" y="25" on="0"/>
        <pt x="66" y="88" on="0"/>
        <pt x="40" y="170" on="0"/>
        <pt x="40" y="216" on="1"/>
        <pt x="40" y="331" on="0"/>
        <pt x="146" y="457" on="0"/>
        <pt x="237" y="457" on="1"/>
        <pt x="280" y="457" on="0"/>
        <pt x="340" y="434" on="0"/>
        <pt x="367" y="405" on="1"/>
        <pt x="367" y="643" on="1"/>
        <pt x="487" y="643" on="1"/>
        <pt x="487" y="0" on="1"/>
      </contour>
      <contour>
        <pt x="369" y="220" on="1"/>
        <pt x="369" y="382" on="0"/>
        <pt x="270" y="382" on="1"/>
        <pt x="238" y="382" on="0"/>
        <pt x="195" y="349" on="0"/>
        <pt x="169" y="299" on="0"/>
        <pt x="159" y="241" on="0"/>
        <pt x="159" y="216" on="1"/>
        <pt x="159" y="190" on="0"/>
        <pt x="171" y="138" on="0"/>
        <pt x="196" y="94" on="0"/>
        <pt x="236" y="67" on="0"/>
        <pt x="265" y="67" on="1"/>
        <pt x="294" y="67" on="0"/>
        <pt x="334" y="98" on="0"/>
        <pt x="358" y="144" on="0"/>
        <pt x="369" y="197" on="0"/>
      </contour>
    </TTGlyph>
    <TTGlyph name="dollar" xMin="25" yMin="-92" xMax="486" yMax="708">
      <contour>
        <pt x="486" y="187" on="1"/>
        <pt x="486" y="143" on="0"/>
        <pt x="450" y="74" on="0"/>
        <pt x="391" y="23" on="0"/>
        <pt x="317" y="-8" on="0"/>
        <pt x="279" y="-12" on="1"/>
        <pt x="279" y="-92" on="1"/>
        <pt x="232" y="-92" on="1"/>
        <pt x="232" y="-12" on="1"/>
        <pt x="138" y="-1" on="0"/>
        <pt x="25" y="107" on="0"/>
        <pt x="25" y="202" on="1"/>
        <pt x="145" y="202" on="1"/>
        <pt x="145" y="103" on="0"/>
        <pt x="232" y="91" on="1"/>
        <pt x="232" y="276" on="1"/>
        <pt x="192" y="289" on="0"/>
        <pt x="122" y="315" on="0"/>
        <pt x="71" y="354" on="0"/>
        <pt x="42" y="411" on="0"/>
        <pt x="42" y="456" on="1"/>
        <pt x="42" y="499" on="0"/>
        <pt x="76" y="572" on="0"/>
        <pt x="131" y="624" on="0"/>
        <pt x="199" y="654" on="0"/>
        <pt x="232" y="654" on="1"/>
        <pt x="232" y="708" on="1"/>
        <pt x="279" y="708" on="1"/>
        <pt x="279" y="655" on="1"/>
        <pt x="318" y="655" on="0"/>
        <pt x="388" y="628" on="0"/>
        <pt x="439" y="577" on="0"/>
        <pt x="469" y="506" on="0"/>
        <pt x="469" y="463" on="1"/>
        <pt x="348" y="463" on="1"/>
        <pt x="348" y="544" on="0"/>
        <pt x="279" y="556" on="1"/>
        <pt x="279" y="376" on="1"/>
        <pt x="321" y="364" on="0"/>
        <pt x="396" y="336" on="0"/>
        <pt x="453" y="295" on="0"/>
        <pt x="486" y="233" on="0"/>
      </contour>
      <contour>
        <pt x="232" y="553" on="1"/>
        <pt x="159" y="534" on="0"/>
        <pt x="159" y="471" on="1"/>
        <pt x="159" y="423" on="0"/>
        <pt x="232" y="393" on="1"/>
      </contour>
      <contour>
        <pt x="369" y="175" on="1"/>
        <pt x="369" y="229" on="0"/>
        <pt x="279" y="262" on="1"/>
        <pt x="279" y="91" on="1"/>
        <pt x="296" y="94" on="0"/>
        <pt x="328" y="107" on="0"/>
        <pt x="354" y="128" on="0"/>
        <pt x="369" y="157" on="0"/>
      </contour>
    </TTGlyph>
    <TTGlyph name="e" xMin="40" yMin="-12" xMax="453" yMax="457">
      <contour>
        <pt x="444" y="138" on="1"/>
        <pt x="429" y="-12" on="0"/>
        <pt x="246" y="-12" on="1"/>
        <pt x="189" y="-12" on="0"/>
        <pt x="110" y="24" on="0"/>
        <pt x="61" y="87" on="0"/>
        <pt x="40" y="172" on="0"/>
        <pt x="40" y="220" on="1"/>
        <pt x="40" y="272" on="0"/>
        <pt x="67" y="359" on="0"/>
        <pt x="120" y="422" on="0"/>
        <pt x="200" y="457" on="0"/>
        <pt x="253" y="457" on="1"/>
        <pt x="307" y="457" on="0"/>
        <pt x="383" y="419" on="0"/>
        <pt x="431" y="357" on="0"/>
        <pt x="453" y="275" on="0"/>
        <pt x="453" y="232" on="1"/>
        <pt x="453" y="223" on="0"/>
        <pt x="452" y="206" on="0"/>
        <pt x="451" y="198" on="1"/>
        <pt x="163" y="198" on="1"/>
        <pt x="163" y="167" on="0"/>
        <pt x="170" y="117" on="0"/>
        <pt x="188" y="82" on="0"/>
        <pt x="222" y="63" on="0"/>
        <pt x="249" y="63" on="1"/>
        <pt x="313" y="63" on="0"/>
        <pt x="322" y="138" on="1"/>
      </contour>
      <contour>
        <pt x="327" y="274" on="1"/>
        <pt x="327" y="382" on="0"/>
        <pt x="246" y="382" on="1"/>
        <pt x="163" y="382" on="0"/>
        <pt x="163" y="274" on="1"/>
      </contour>
    </TTGlyph>
    <TTGlyph name="eight" xMin="31" yMin="-12" xMax="480" yMax="655">
      <contour>
        <pt x="480" y="166" on="1"/>
        <pt x="480" y="116" on="0"/>
        <pt x="441" y="48" on="0"/>
        <pt x="378" y="6" on="0"/>
        <pt x="298" y="-12" on="0"/>
        <pt x="256" y="-12" on="1"/>
        <pt x="211" y="-12" on="0"/>
        <pt x="129" y="8" on="0"/>
        <pt x="68" y="50" on="0"/>
        <pt x="31" y="118" on="0"/>
        <pt x="31" y="166" on="1"/>
        <pt x="31" y="205" on="0"/>
        <pt x="51" y="264" on="0"/>
        <pt x="85" y="307" on="0"/>
        <pt x="129" y="336" on="0"/>
        <pt x="153" y="345" on="1"/>
        <pt x="130" y="353" on="0"/>
        <pt x="90" y="377" on="0"/>
        <pt x="60" y="411" on="0"/>
        <pt x="42" y="458" on="0"/>
        <pt x="42" y="490" on="1"/>
        <pt x="42" y="537" on="0"/>
        <pt x="80" y="601" on="0"/>
        <pt x="141" y="639" on="0"/>
        <pt x="217" y="655" on="0"/>
        <pt x="256" y="655" on="1"/>
        <pt x="295" y="655" on="0"/>
        <pt x="371" y="640" on="0"/>
        <pt x="431" y="603" on="0"/>
        <pt x="469" y="537" on="0"/>
        <pt x="469" y="486" on="1"/>
        <pt x="469" y="456" on="0"/>
        <pt x="448" y="410" on="0"/>
        <pt x="414" y="376" on="0"/>
        <pt x="371" y="353" on="0"/>
        <pt x="349" y="345" on="1"/>
        <pt x="373" y="337" on="0"/>
        <pt x="420" y="310" on="0"/>
        <pt x="457" y="266" on="0"/>
        <pt x="480" y="206" on="0"/>
      </contour>
      <contour>
        <pt x="336" y="475" on="1"/>
        <pt x="336" y="514" on="0"/>
        <pt x="291" y="558" on="0"/>
        <pt x="256" y="558" on="1"/>
        <pt x="220" y="558" on="0"/>
        <pt x="175" y="514" on="0"/>
        <pt x="175" y="475" on="1"/>
        <pt x="175" y="436" on="0"/>
        <pt x="220" y="393" on="0"/>
        <pt x="256" y="393" on="1"/>
        <pt x="291" y="393" on="0"/>
        <pt x="336" y="436" on="0"/>
      </contour>
      <contour>
        <pt x="351" y="189" on="1"/>
        <pt x="351" y="232" on="0"/>
        <pt x="301" y="292" on="0"/>
        <pt x="256" y="292" on="1"/>
        <pt x="233" y="292" on="0"/>
        <pt x="199" y="275" on="0"/>
        <pt x="175" y="246" on="0"/>
        <pt x="163" y="209" on="0"/>
        <pt x="163" y="189" on="1"/>
        <pt x="163" y="146" on="0"/>
        <pt x="213" y="85" on="0"/>
        <pt x="256" y="85" on="1"/>
        <pt x="278" y="85" on="0"/>
        <pt x="314" y="102" on="0"/>
        <pt x="338" y="131" on="0"/>
        <pt x="351" y="169" on="0"/>
      </contour>
    </TTGlyph>
    <TTGlyph name="emdash" xMin="0" yMin="163" xMax="851" yMax="277">
      <contour>
        <pt x="0" y="163" on="1"/>
        <pt x="0" y="277" on="1"/>
        <pt x="851" y="277" on="1"/>
        <pt x="851" y="163" on="1"/>
      </contour>
    </TTGlyph>
    <TTGlyph name="endash" xMin="0" yMin="163" xMax="480" yMax="277">
      <contour>
        <pt x="0" y="163" on="1"/>
        <pt x="0" y="277" on="1"/>
        <pt x="480" y="277" on="1"/>
        <pt x="480" y="163" on="1"/>
      </contour>
    </TTGlyph>
    <TTGlyph name="equal" xMin="25" yMin="61" xMax="565" yMax="385">
      <contour>
        <pt x="565" y="61" on="1"/>
        <pt x="25" y="61" on="1"/>
        <pt x="25" y="175" on="1"/>
        <pt x="565" y="175" on="1"/>
      </contour>
      <contour>
        <pt x="565" y="271" on="1"/>
        <pt x="25" y="271" on="1"/>
        <pt x="25" y="385" on="1"/>
        <pt x="565" y="385" on="1"/>
      </contour>
    </TTGlyph>
    <TTGlyph name="exclam" xMin="56" yMin="-23" xMax="240" yMax="813">
      <contour>
        <pt x="240" y="67" on="1"/>
        <pt x="240" y="29" on="0"/>
        <pt x="186" y="-23" on="0"/>
        <pt x="148" y="-23" on="1"/>
        <pt x="110" y="-23" on="0"/>
        <pt x="56" y="29" on="0"/>
        <pt x="56" y="67" on="1"/>
        <pt x="56" y="105" on="0"/>
        <pt x="110" y="157" on="0"/>
        <pt x="148" y="157" on="1"/>
        <pt x="186" y="157" on="0"/>
        <pt x="240" y="105" on="0"/>
      </contour>
      <contour>
        <pt x="148" y="813" on="1"/>
        <pt x="175" y="813" on="0"/>
        <pt x="206" y="774" on="0"/>
        <pt x="208" y="751" on="1"/>
        <pt x="210" y="730" on="0"/>
        <pt x="212" y="681" on="0"/>
        <pt x="212" y="652" on="1"/>
        <pt x="212" y="596" on="0"/>
        <pt x="207" y="483" on="0"/>
        <pt x="198" y="382" on="0"/>
        <pt x="188" y="296" on="0"/>
        <pt x="183" y="267" on="1"/>
        <pt x="178" y="239" on="0"/>
        <pt x="166" y="210" on="0"/>
        <pt x="148" y="210" on="1"/>
        <pt x="130" y="210" on="0"/>
        <pt x="118" y="239" on="0"/>
        <pt x="113" y="267" on="1"/>
        <pt x="108" y="296" on="0"/>
        <pt x="98" y="382" on="0"/>
        <pt x="89" y="483" on="0"/>
        <pt x="84" y="596" on="0"/>
        <pt x="84" y="652" on="1"/>
        <pt x="84" y="681" on="0"/>
        <pt x="86" y="730" on="0"/>
        <pt x="88" y="751" on="1"/>
        <pt x="90" y="774" on="0"/>
        <pt x="121" y="813" on="0"/>
      </contour>
    </TTGlyph>
    <TTGlyph name="f" xMin="9" yMin="0" xMax="316" yMax="655">
      <contour>
        <pt x="316" y="562" on="1"/>
        <pt x="291" y="576" on="0"/>
        <pt x="265" y="576" on="1"/>
        <pt x="232" y="576" on="0"/>
        <pt x="210" y="543" on="0"/>
        <pt x="210" y="510" on="1"/>
        <pt x="210" y="445" on="1"/>
        <pt x="303" y="445" on="1"/>
        <pt x="303" y="369" on="1"/>
        <pt x="210" y="369" on="1"/>
        <pt x="210" y="0" on="1"/>
        <pt x="88" y="0" on="1"/>
        <pt x="88" y="369" on="1"/>
        <pt x="9" y="369" on="1"/>
        <pt x="9" y="445" on="1"/>
        <pt x="88" y="445" on="1"/>
        <pt x="88" y="513" on="1"/>
        <pt x="88" y="591" on="0"/>
        <pt x="156" y="655" on="0"/>
        <pt x="226" y="655" on="1"/>
        <pt x="269" y="655" on="0"/>
        <pt x="316" y="639" on="1"/>
        <pt x="316" y="562" on="1"/>
      </contour>
    </TTGlyph>
    <TTGlyph name="five" xMin="34" yMin="-12" xMax="477" yMax="643">
      <contour>
        <pt x="477" y="226" on="1"/>
        <pt x="477" y="173" on="0"/>
        <pt x="441" y="86" on="0"/>
        <pt x="377" y="23" on="0"/>
        <pt x="291" y="-12" on="0"/>
        <pt x="241" y="-12" on="1"/>
        <pt x="154" y="-12" on="0"/>
        <pt x="40" y="77" on="0"/>
        <pt x="34" y="163" on="1"/>
        <pt x="154" y="163" on="1"/>
        <pt x="154" y="85" on="0"/>
        <pt x="241" y="85" on="1"/>
        <pt x="270" y="85" on="0"/>
        <pt x="311" y="108" on="0"/>
        <pt x="338" y="146" on="0"/>
        <pt x="351" y="194" on="0"/>
        <pt x="351" y="219" on="1"/>
        <pt x="351" y="328" on="0"/>
        <pt x="258" y="328" on="1"/>
        <pt x="220" y="328" on="0"/>
        <pt x="176" y="296" on="0"/>
        <pt x="157" y="259" on="1"/>
        <pt x="43" y="259" on="1"/>
        <pt x="61" y="643" on="1"/>
        <pt x="441" y="643" on="1"/>
        <pt x="441" y="541" on="1"/>
        <pt x="178" y="541" on="1"/>
        <pt x="169" y="373" on="1"/>
        <pt x="208" y="420" on="0"/>
        <pt x="300" y="420" on="1"/>
        <pt x="341" y="420" on="0"/>
        <pt x="406" y="387" on="0"/>
        <pt x="452" y="333" on="0"/>
        <pt x="477" y="263" on="0"/>
      </contour>
    </TTGlyph>
    <TTGlyph name="four" xMin="19" yMin="0" xMax="492" yMax="643">
      <contour>
        <pt x="411" y="141" on="1"/>
        <pt x="411" y="0" on="1"/>
        <pt x="291" y="0" on="1"/>
        <pt x="291" y="141" on="1"/>
        <pt x="19" y="141" on="1"/>
        <pt x="19" y="256" on="1"/>
        <pt x="256" y="643" on="1"/>
        <pt x="411" y="643" on="1"/>
        <pt x="411" y="243" on="1"/>
        <pt x="492" y="243" on="1"/>
        <pt x="492" y="141" on="1"/>
      </contour>
      <contour>
        <pt x="291" y="525" on="1"/>
        <pt x="129" y="243" on="1"/>
        <pt x="291" y="243" on="1"/>
      </contour>
    </TTGlyph>
    <TTGlyph name="g" xMin="40" yMin="-177" xMax="487" yMax="457">
      <contour>
        <pt x="487" y="4" on="1"/>
        <pt x="487" y="-84" on="0"/>
        <pt x="373" y="-177" on="0"/>
        <pt x="267" y="-177" on="1"/>
        <pt x="206" y="-177" on="0"/>
        <pt x="128" y="-154" on="0"/>
        <pt x="82" y="-118" on="0"/>
        <pt x="64" y="-71" on="0"/>
        <pt x="64" y="-47" on="1"/>
        <pt x="184" y="-47" on="1"/>
        <pt x="184" y="-70" on="0"/>
        <pt x="228" y="-101" on="0"/>
        <pt x="268" y="-101" on="1"/>
        <pt x="299" y="-101" on="0"/>
        <pt x="337" y="-85" on="0"/>
        <pt x="359" y="-44" on="0"/>
        <pt x="367" y="24" on="0"/>
        <pt x="367" y="75" on="1"/>
        <pt x="308" y="1" on="0"/>
        <pt x="246" y="1" on="1"/>
        <pt x="196" y="1" on="0"/>
        <pt x="119" y="33" on="0"/>
        <pt x="67" y="91" on="0"/>
        <pt x="40" y="169" on="0"/>
        <pt x="40" y="216" on="1"/>
        <pt x="40" y="331" on="0"/>
        <pt x="146" y="457" on="0"/>
        <pt x="237" y="457" on="1"/>
        <pt x="280" y="457" on="0"/>
        <pt x="339" y="431" on="0"/>
        <pt x="367" y="405" on="1"/>
        <pt x="367" y="445" on="1"/>
        <pt x="487" y="445" on="1"/>
      </contour>
      <contour>
        <pt x="369" y="220" on="1"/>
        <pt x="369" y="382" on="0"/>
        <pt x="270" y="382" on="1"/>
        <pt x="238" y="382" on="0"/>
        <pt x="195" y="349" on="0"/>
        <pt x="169" y="299" on="0"/>
        <pt x="159" y="241" on="0"/>
        <pt x="159" y="216" on="1"/>
        <pt x="159" y="190" on="0"/>
        <pt x="171" y="141" on="0"/>
        <pt x="197" y="104" on="0"/>
        <pt x="237" y="82" on="0"/>
        <pt x="265" y="82" on="1"/>
        <pt x="293" y="82" on="0"/>
        <pt x="333" y="108" on="0"/>
        <pt x="358" y="148" on="0"/>
        <pt x="369" y="197" on="0"/>
      </contour>
    </TTGlyph>
    <TTGlyph name="grave" xMin="-23" yMin="534" xMax="175" yMax="694">
      <contour>
        <pt x="112" y="534" on="1"/>
        <pt x="-23" y="694" on="1"/>
        <pt x="94" y="694" on="1"/>
        <pt x="175" y="534" on="1"/>
      </contour>
    </TTGlyph>
    <TTGlyph name="greater" xMin="178" yMin="34" xMax="712" yMax="499">
      <contour>
        <pt x="712" y="238" on="1"/>
        <pt x="178" y="34" on="1"/>
        <pt x="178" y="120" on="1"/>
        <pt x="571" y="267" on="1"/>
        <pt x="178" y="414" on="1"/>
        <pt x="178" y="499" on="1"/>
        <pt x="712" y="295" on="1"/>
      </contour>
    </TTGlyph>
    <TTGlyph name="h" xMin="58" yMin="0" xMax="474" yMax="643">
      <contour>
        <pt x="352" y="0" on="1"/>
        <pt x="352" y="267" on="1"/>
        <pt x="352" y="385" on="0"/>
        <pt x="273" y="385" on="1"/>
        <pt x="250" y="385" on="0"/>
        <pt x="214" y="360" on="0"/>
        <pt x="190" y="322" on="0"/>
        <pt x="178" y="277" on="0"/>
        <pt x="178" y="258" on="1"/>
        <pt x="178" y="0" on="1"/>
        <pt x="58" y="0" on="1"/>
        <pt x="58" y="643" on="1"/>
        <pt x="178" y="643" on="1"/>
        <pt x="178" y="399" on="1"/>
        <pt x="202" y="431" on="0"/>
        <pt x="272" y="457" on="0"/>
        <pt x="324" y="457" on="1"/>
        <pt x="400" y="457" on="0"/>
        <pt x="474" y="369" on="0"/>
        <pt x="474" y="303" on="1"/>
        <pt x="474" y="0" on="1"/>
      </contour>
    </TTGlyph>
    <TTGlyph name="hyphen" xMin="55" yMin="163" xMax="451" yMax="277">
      <contour>
        <pt x="451" y="163" on="1"/>
        <pt x="55" y="163" on="1"/>
        <pt x="55" y="277" on="1"/>
        <pt x="451" y="277" on="1"/>
      </contour>
    </TTGlyph>
    <TTGlyph name="i" xMin="48" yMin="0" xMax="187" yMax="643">
      <contour>
        <pt x="48" y="526" on="1"/>
        <pt x="48" y="643" on="1"/>
        <pt x="187" y="643" on="1"/>
        <pt x="187" y="526" on="1"/>
      </contour>
      <contour>
        <pt x="58" y="0" on="1"/>
        <pt x="58" y="445" on="1"/>
        <pt x="178" y="445" on="1"/>
        <pt x="178" y="0" on="1"/>
      </contour>
    </TTGlyph>
    <TTGlyph name="j" xMin="-18" yMin="-188" xMax="264" yMax="643">
      <contour>
        <pt x="264" y="526" on="1"/>
        <pt x="126" y="526" on="1"/>
        <pt x="126" y="643" on="1"/>
        <pt x="264" y="643" on="1"/>
      </contour>
      <contour>
        <pt x="256" y="-72" on="1"/>
        <pt x="256" y="-126" on="0"/>
        <pt x="175" y="-188" on="0"/>
        <pt x="112" y="-188" on="1"/>
        <pt x="79" y="-188" on="0"/>
        <pt x="8" y="-167" on="0"/>
        <pt x="-18" y="-144" on="1"/>
        <pt x="36" y="-69" on="1"/>
        <pt x="60" y="-90" on="0"/>
        <pt x="85" y="-90" on="1"/>
        <pt x="106" y="-90" on="0"/>
        <pt x="135" y="-66" on="0"/>
        <pt x="135" y="-45" on="1"/>
        <pt x="135" y="445" on="1"/>
        <pt x="256" y="445" on="1"/>
      </contour>
    </TTGlyph>
    <TTGlyph name="k" xMin="58" yMin="0" xMax="477" yMax="643">
      <contour>
        <pt x="330" y="0" on="1"/>
        <pt x="178" y="232" on="1"/>
        <pt x="178" y="0" on="1"/>
        <pt x="58" y="0" on="1"/>
        <pt x="58" y="643" on="1"/>
        <pt x="178" y="643" on="1"/>
        <pt x="178" y="268" on="1"/>
        <pt x="318" y="445" on="1"/>
        <pt x="462" y="445" on="1"/>
        <pt x="301" y="253" on="1"/>
        <pt x="477" y="0" on="1"/>
      </contour>
    </TTGlyph>
    <TTGlyph name="l" xMin="58" yMin="0" xMax="178" yMax="643">
      <contour>
        <pt x="58" y="0" on="1"/>
        <pt x="58" y="643" on="1"/>
        <pt x="178" y="643" on="1"/>
        <pt x="178" y="0" on="1"/>
      </contour>
    </TTGlyph>
    <TTGlyph name="less" xMin="178" yMin="34" xMax="712" yMax="499">
      <contour>
        <pt x="712" y="34" on="1"/>
        <pt x="178" y="238" on="1"/>
        <pt x="178" y="295" on="1"/>
        <pt x="712" y="499" on="1"/>
        <pt x="712" y="414" on="1"/>
        <pt x="319" y="267" on="1"/>
        <pt x="712" y="120" on="1"/>
      </contour>
    </TTGlyph>
    <TTGlyph name="m" xMin="58" yMin="0" xMax="754" yMax="457">
      <contour>
        <pt x="634" y="0" on="1"/>
        <pt x="634" y="285" on="1"/>
        <pt x="634" y="325" on="0"/>
        <pt x="591" y="382" on="0"/>
        <pt x="558" y="382" on="1"/>
        <pt x="538" y="382" on="0"/>
        <pt x="505" y="361" on="0"/>
        <pt x="480" y="328" on="0"/>
        <pt x="466" y="286" on="0"/>
        <pt x="466" y="264" on="1"/>
        <pt x="466" y="0" on="1"/>
        <pt x="346" y="0" on="1"/>
        <pt x="346" y="285" on="1"/>
        <pt x="346" y="325" on="0"/>
        <pt x="306" y="382" on="0"/>
        <pt x="271" y="382" on="1"/>
        <pt x="248" y="382" on="0"/>
        <pt x="214" y="359" on="0"/>
        <pt x="190" y="323" on="0"/>
        <pt x="178" y="279" on="0"/>
        <pt x="178" y="258" on="1"/>
        <pt x="178" y="0" on="1"/>
        <pt x="58" y="0" on="1"/>
        <pt x="58" y="445" on="1"/>
        <pt x="178" y="445" on="1"/>
        <pt x="178" y="383" on="1"/>
        <pt x="206" y="424" on="0"/>
        <pt x="270" y="457" on="0"/>
        <pt x="318" y="457" on="1"/>
        <pt x="368" y="457" on="0"/>
        <pt x="431" y="423" on="0"/>
        <pt x="454" y="375" on="1"/>
        <pt x="471" y="400" on="0"/>
        <pt x="502" y="432" on="0"/>
        <pt x="537" y="450" on="0"/>
        <pt x="577" y="457" on="0"/>
        <pt x="603" y="457" on="1"/>
        <pt x="641" y="457" on="0"/>
        <pt x="698" y="432" on="0"/>
        <pt x="735" y="388" on="0"/>
        <pt x="754" y="328" on="0"/>
        <pt x="754" y="292" on="1"/>
        <pt x="754" y="0" on="1"/>
      </contour>
    </TTGlyph>
    <TTGlyph name="multiply" xMin="94" yMin="43" xMax="457" yMax="406">
      <contour>
        <pt x="375" y="43" on="1"/>
        <pt x="276" y="144" on="1"/>
        <pt x="175" y="43" on="1"/>
        <pt x="94" y="123" on="1"/>
        <pt x="195" y="225" on="1"/>
        <pt x="96" y="324" on="1"/>
        <pt x="175" y="405" on="1"/>
        <pt x="276" y="304" on="1"/>
        <pt x="376" y="406" on="1"/>
        <pt x="457" y="325" on="1"/>
        <pt x="357" y="225" on="1"/>
        <pt x="456" y="124" on="1"/>
      </contour>
    </TTGlyph>
    <TTGlyph name="n" xMin="46" yMin="0" xMax="462" yMax="457">
      <contour>
        <pt x="340" y="0" on="1"/>
        <pt x="340" y="267" on="1"/>
        <pt x="340" y="385" on="0"/>
        <pt x="261" y="385" on="1"/>
        <pt x="216" y="385" on="0"/>
        <pt x="166" y="310" on="0"/>
        <pt x="166" y="244" on="1"/>
        <pt x="166" y="0" on="1"/>
        <pt x="46" y="0" on="1"/>
        <pt x="46" y="445" on="1"/>
        <pt x="166" y="445" on="1"/>
        <pt x="166" y="390" on="1"/>
        <pt x="179" y="411" on="0"/>
        <pt x="209" y="437" on="0"/>
        <pt x="244" y="452" on="0"/>
        <pt x="286" y="457" on="0"/>
        <pt x="312" y="457" on="1"/>
        <pt x="384" y="457" on="0"/>
        <pt x="462" y="375" on="0"/>
        <pt x="462" y="303" on="1"/>
        <pt x="462" y="0" on="1"/>
      </contour>
    </TTGlyph>
    <TTGlyph name="nine" xMin="30" yMin="-12" xMax="481" yMax="655">
      <contour>
        <pt x="481" y="349" on="1"/>
        <pt x="481" y="288" on="0"/>
        <pt x="459" y="160" on="0"/>
        <pt x="405" y="55" on="0"/>
        <pt x="312" y="-12" on="0"/>
        <pt x="241" y="-12" on="1"/>
        <pt x="205" y="-12" on="0"/>
        <pt x="134" y="14" on="0"/>
        <pt x="77" y="60" on="0"/>
        <pt x="42" y="123" on="0"/>
        <pt x="42" y="160" on="1"/>
        <pt x="166" y="160" on="1"/>
        <pt x="166" y="127" on="0"/>
        <pt x="207" y="85" on="0"/>
        <pt x="238" y="85" on="1"/>
        <pt x="274" y="85" on="0"/>
        <pt x="320" y="136" on="0"/>
        <pt x="347" y="207" on="0"/>
        <pt x="357" y="283" on="0"/>
        <pt x="357" y="307" on="1"/>
        <pt x="337" y="272" on="0"/>
        <pt x="253" y="231" on="0"/>
        <pt x="204" y="231" on="1"/>
        <pt x="158" y="231" on="0"/>
        <pt x="92" y="269" on="0"/>
        <pt x="50" y="326" on="0"/>
        <pt x="30" y="395" on="0"/>
        <pt x="30" y="426" on="1"/>
        <pt x="30" y="469" on="0"/>
        <pt x="57" y="551" on="0"/>
        <pt x="113" y="616" on="0"/>
        <pt x="198" y="655" on="0"/>
        <pt x="256" y="655" on="1"/>
        <pt x="325" y="655" on="0"/>
        <pt x="412" y="600" on="0"/>
        <pt x="462" y="512" on="0"/>
        <pt x="481" y="403" on="0"/>
      </contour>
      <contour>
        <pt x="336" y="439" on="1"/>
        <pt x="336" y="558" on="0"/>
        <pt x="247" y="558" on="1"/>
        <pt x="159" y="558" on="0"/>
        <pt x="159" y="439" on="1"/>
        <pt x="159" y="321" on="0"/>
        <pt x="247" y="321" on="1"/>
        <pt x="336" y="321" on="0"/>
      </contour>
    </TTGlyph>
    <TTGlyph name="notequal" xMin="30" yMin="-83" xMax="583" yMax="519">
      <contour>
        <pt x="256" y="76" on="1"/>
        <pt x="115" y="-83" on="1"/>
        <pt x="30" y="-8" on="1"/>
        <pt x="103" y="76" on="1"/>
        <pt x="43" y="76" on="1"/>
        <pt x="43" y="190" on="1"/>
        <pt x="205" y="190" on="1"/>
        <pt x="264" y="256" on="1"/>
        <pt x="43" y="256" on="1"/>
        <pt x="43" y="370" on="1"/>
        <pt x="364" y="370" on="1"/>
        <pt x="496" y="519" on="1"/>
        <pt x="580" y="442" on="1"/>
        <pt x="516" y="370" on="1"/>
        <pt x="583" y="370" on="1"/>
        <pt x="583" y="256" on="1"/>
        <pt x="415" y="256" on="1"/>
        <pt x="357" y="190" on="1"/>
        <pt x="583" y="190" on="1"/>
        <pt x="583" y="76" on="1"/>
      </contour>
    </TTGlyph>
    <TTGlyph name="numbersign" xMin="55" yMin="-23" xMax="519" yMax="483">
      <contour>
        <pt x="415" y="76" on="1"/>
        <pt x="402" y="-23" on="1"/>
        <pt x="288" y="-23" on="1"/>
        <pt x="301" y="76" on="1"/>
        <pt x="235" y="76" on="1"/>
        <pt x="222" y="-23" on="1"/>
        <pt x="108" y="-23" on="1"/>
        <pt x="121" y="76" on="1"/>
        <pt x="55" y="76" on="1"/>
        <pt x="55" y="190" on="1"/>
        <pt x="136" y="190" on="1"/>
        <pt x="144" y="256" on="1"/>
        <pt x="55" y="256" on="1"/>
        <pt x="55" y="370" on="1"/>
        <pt x="159" y="370" on="1"/>
        <pt x="175" y="483" on="1"/>
        <pt x="289" y="483" on="1"/>
        <pt x="273" y="370" on="1"/>
        <pt x="339" y="370" on="1"/>
        <pt x="355" y="483" on="1"/>
        <pt x="469" y="483" on="1"/>
        <pt x="453" y="370" on="1"/>
        <pt x="519" y="370" on="1"/>
        <pt x="519" y="256" on="1"/>
        <pt x="438" y="256" on="1"/>
        <pt x="430" y="190" on="1"/>
        <pt x="519" y="190" on="1"/>
        <pt x="519" y="76" on="1"/>
      </contour>
      <contour>
        <pt x="258" y="256" on="1"/>
        <pt x="250" y="190" on="1"/>
        <pt x="316" y="190" on="1"/>
        <pt x="324" y="256" on="1"/>
      </contour>
    </TTGlyph>
    <TTGlyph name="o" xMin="40" yMin="-12" xMax="499" yMax="457">
      <contour>
        <pt x="499" y="222" on="1"/>
        <pt x="499" y="170" on="0"/>
        <pt x="465" y="84" on="0"/>
        <pt x="404" y="22" on="0"/>
        <pt x="320" y="-12" on="0"/>
        <pt x="270" y="-12" on="1"/>
        <pt x="218" y="-12" on="0"/>
        <pt x="133" y="24" on="0"/>
        <pt x="73" y="87" on="0"/>
        <pt x="40" y="173" on="0"/>
        <pt x="40" y="222" on="1"/>
        <pt x="40" y="273" on="0"/>
        <pt x="74" y="360" on="0"/>
        <pt x="135" y="422" on="0"/>
        <pt x="220" y="457" on="0"/>
        <pt x="270" y="457" on="1"/>
        <pt x="322" y="457" on="0"/>
        <pt x="407" y="420" on="0"/>
        <pt x="467" y="357" on="0"/>
        <pt x="499" y="271" on="0"/>
      </contour>
      <contour>
        <pt x="378" y="222" on="1"/>
        <pt x="378" y="381" on="0"/>
        <pt x="270" y="381" on="1"/>
        <pt x="216" y="381" on="0"/>
        <pt x="160" y="298" on="0"/>
        <pt x="160" y="222" on="1"/>
        <pt x="160" y="147" on="0"/>
        <pt x="216" y="64" on="0"/>
        <pt x="270" y="64" on="1"/>
        <pt x="378" y="64" on="0"/>
      </contour>
    </TTGlyph>
    <TTGlyph name="one" xMin="88" yMin="0" xMax="361" yMax="643">
      <contour>
        <pt x="241" y="0" on="1"/>
        <pt x="241" y="517" on="1"/>
        <pt x="172" y="458" on="0"/>
        <pt x="88" y="433" on="1"/>
        <pt x="88" y="543" on="1"/>
        <pt x="186" y="581" on="0"/>
        <pt x="250" y="643" on="1"/>
        <pt x="361" y="643" on="1"/>
        <pt x="361" y="0" on="1"/>
      </contour>
    </TTGlyph>
    <TTGlyph name="p" xMin="58" yMin="-177" xMax="507" yMax="457">
      <contour>
        <pt x="507" y="229" on="1"/>
        <pt x="507" y="114" on="0"/>
        <pt x="400" y="-12" on="0"/>
        <pt x="309" y="-12" on="1"/>
        <pt x="286" y="-12" on="0"/>
        <pt x="251" y="-7" on="0"/>
        <pt x="221" y="5" on="0"/>
        <pt x="193" y="25" on="0"/>
        <pt x="178" y="40" on="1"/>
        <pt x="178" y="-177" on="1"/>
        <pt x="58" y="-177" on="1"/>
        <pt x="58" y="445" on="1"/>
        <pt x="178" y="445" on="1"/>
        <pt x="178" y="384" on="1"/>
        <pt x="235" y="457" on="0"/>
        <pt x="301" y="457" on="1"/>
        <pt x="350" y="457" on="0"/>
        <pt x="427" y="422" on="0"/>
        <pt x="480" y="361" on="0"/>
        <pt x="507" y="277" on="0"/>
      </contour>
      <contour>
        <pt x="387" y="229" on="1"/>
        <pt x="387" y="255" on="0"/>
        <pt x="375" y="308" on="0"/>
        <pt x="350" y="351" on="0"/>
        <pt x="309" y="378" on="0"/>
        <pt x="280" y="378" on="1"/>
        <pt x="251" y="378" on="0"/>
        <pt x="211" y="347" on="0"/>
        <pt x="187" y="301" on="0"/>
        <pt x="177" y="247" on="0"/>
        <pt x="177" y="225" on="1"/>
        <pt x="177" y="63" on="0"/>
        <pt x="276" y="63" on="1"/>
        <pt x="308" y="63" on="0"/>
        <pt x="351" y="96" on="0"/>
        <pt x="376" y="146" on="0"/>
        <pt x="387" y="204" on="0"/>
      </contour>
    </TTGlyph>
    <TTGlyph name="parenleft" xMin="73" yMin="-471" xMax="424" yMax="924">
      <contour>
        <pt x="289" y="-471" on="1"/>
        <pt x="173" y="-325" on="0"/>
        <pt x="73" y="24" on="0"/>
        <pt x="73" y="225" on="1"/>
        <pt x="73" y="426" on="0"/>
        <pt x="185" y="770" on="0"/>
        <pt x="294" y="924" on="1"/>
        <pt x="424" y="924" on="1"/>
        <pt x="306" y="758" on="0"/>
        <pt x="187" y="400" on="0"/>
        <pt x="187" y="225" on="1"/>
        <pt x="187" y="37" on="0"/>
        <pt x="302" y="-320" on="0"/>
        <pt x="424" y="-471" on="1"/>
      </contour>
    </TTGlyph>
    <TTGlyph name="parenright" xMin="40" yMin="-471" xMax="391" yMax="924">
      <contour>
        <pt x="391" y="225" on="1"/>
        <pt x="391" y="25" on="0"/>
        <pt x="291" y="-326" on="0"/>
        <pt x="175" y="-471" on="1"/>
        <pt x="40" y="-471" on="1"/>
        <pt x="102" y="-396" on="0"/>
        <pt x="191" y="-230" on="0"/>
        <pt x="249" y="-53" on="0"/>
        <pt x="277" y="132" on="0"/>
        <pt x="277" y="225" on="1"/>
        <pt x="277" y="400" on="0"/>
        <pt x="160" y="758" on="0"/>
        <pt x="40" y="924" on="1"/>
        <pt x="171" y="924" on="1"/>
        <pt x="279" y="770" on="0"/>
        <pt x="391" y="426" on="0"/>
      </contour>
    </TTGlyph>
    <TTGlyph name="percent" xMin="63" yMin="-69" xMax="738" yMax="498">
      <contour>
        <pt x="268" y="-69" on="1"/>
        <pt x="181" y="4" on="1"/>
        <pt x="528" y="498" on="1"/>
        <pt x="621" y="429" on="1"/>
      </contour>
      <contour>
        <pt x="336" y="352" on="1"/>
        <pt x="336" y="326" on="0"/>
        <pt x="314" y="277" on="0"/>
        <pt x="277" y="239" on="0"/>
        <pt x="229" y="216" on="0"/>
        <pt x="202" y="216" on="1"/>
        <pt x="173" y="216" on="0"/>
        <pt x="123" y="239" on="0"/>
        <pt x="85" y="277" on="0"/>
        <pt x="63" y="326" on="0"/>
        <pt x="63" y="352" on="1"/>
        <pt x="63" y="380" on="0"/>
        <pt x="85" y="431" on="0"/>
        <pt x="123" y="469" on="0"/>
        <pt x="173" y="492" on="0"/>
        <pt x="202" y="492" on="1"/>
        <pt x="229" y="492" on="0"/>
        <pt x="277" y="469" on="0"/>
        <pt x="314" y="431" on="0"/>
        <pt x="336" y="380" on="0"/>
      </contour>
      <contour>
        <pt x="738" y="79" on="1"/>
        <pt x="738" y="52" on="0"/>
        <pt x="716" y="2" on="0"/>
        <pt x="679" y="-36" on="0"/>
        <pt x="630" y="-59" on="0"/>
        <pt x="603" y="-59" on="1"/>
        <pt x="575" y="-59" on="0"/>
        <pt x="525" y="-36" on="0"/>
        <pt x="487" y="2" on="0"/>
        <pt x="465" y="52" on="0"/>
        <pt x="465" y="79" on="1"/>
        <pt x="465" y="107" on="0"/>
        <pt x="487" y="157" on="0"/>
        <pt x="525" y="195" on="0"/>
        <pt x="575" y="217" on="0"/>
        <pt x="603" y="217" on="1"/>
        <pt x="630" y="217" on="0"/>
        <pt x="679" y="195" on="0"/>
        <pt x="716" y="157" on="0"/>
        <pt x="738" y="107" on="0"/>
      </contour>
      <contour>
        <pt x="244" y="352" on="1"/>
        <pt x="244" y="370" on="0"/>
        <pt x="218" y="400" on="0"/>
        <pt x="202" y="400" on="1"/>
        <pt x="182" y="400" on="0"/>
        <pt x="154" y="370" on="0"/>
        <pt x="154" y="352" on="1"/>
        <pt x="154" y="334" on="0"/>
        <pt x="182" y="306" on="0"/>
        <pt x="202" y="306" on="1"/>
        <pt x="218" y="306" on="0"/>
        <pt x="244" y="334" on="0"/>
      </contour>
      <contour>
        <pt x="646" y="79" on="1"/>
        <pt x="646" y="96" on="0"/>
        <pt x="619" y="126" on="0"/>
        <pt x="603" y="126" on="1"/>
        <pt x="583" y="126" on="0"/>
        <pt x="556" y="96" on="0"/>
        <pt x="556" y="79" on="1"/>
        <pt x="556" y="60" on="0"/>
        <pt x="583" y="31" on="0"/>
        <pt x="603" y="31" on="1"/>
        <pt x="619" y="31" on="0"/>
        <pt x="646" y="60" on="0"/>
      </contour>
    </TTGlyph>
    <TTGlyph name="period" xMin="40" yMin="-23" xMax="225" yMax="157">
      <contour>
        <pt x="225" y="67" on="1"/>
        <pt x="225" y="49" on="0"/>
        <pt x="209" y="16" on="0"/>
        <pt x="184" y="-9" on="0"/>
        <pt x="151" y="-23" on="0"/>
        <pt x="133" y="-23" on="1"/>
        <pt x="115" y="-23" on="0"/>
        <pt x="81" y="-9" on="0"/>
        <pt x="55" y="16" on="0"/>
        <pt x="40" y="49" on="0"/>
        <pt x="40" y="67" on="1"/>
        <pt x="40" y="86" on="0"/>
        <pt x="55" y="119" on="0"/>
        <pt x="81" y="143" on="0"/>
        <pt x="115" y="157" on="0"/>
        <pt x="133" y="157" on="1"/>
        <pt x="151" y="157" on="0"/>
        <pt x="184" y="143" on="0"/>
        <pt x="209" y="119" on="0"/>
        <pt x="225" y="86" on="0"/>
      </contour>
    </TTGlyph>
    <TTGlyph name="plus" xMin="93" yMin="27" xMax="489" yMax="426">
      <contour>
        <pt x="489" y="169" on="1"/>
        <pt x="348" y="169" on="1"/>
        <pt x="348" y="27" on="1"/>
        <pt x="234" y="27" on="1"/>
        <pt x="234" y="169" on="1"/>
        <pt x="93" y="169" on="1"/>
        <pt x="93" y="283" on="1"/>
        <pt x="234" y="283" on="1"/>
        <pt x="234" y="426" on="1"/>
        <pt x="348" y="426" on="1"/>
        <pt x="348" y="283" on="1"/>
        <pt x="489" y="283" on="1"/>
      </contour>
    </TTGlyph>
    <TTGlyph name="q" xMin="40" yMin="-177" xMax="487" yMax="457">
      <contour>
        <pt x="367" y="-177" on="1"/>
        <pt x="367" y="40" on="1"/>
        <pt x="350" y="25" on="0"/>
        <pt x="323" y="5" on="0"/>
        <pt x="293" y="-7" on="0"/>
        <pt x="259" y="-12" on="0"/>
        <pt x="237" y="-12" on="1"/>
        <pt x="146" y="-12" on="0"/>
        <pt x="40" y="114" on="0"/>
        <pt x="40" y="229" on="1"/>
        <pt x="40" y="278" on="0"/>
        <pt x="67" y="362" on="0"/>
        <pt x="120" y="423" on="0"/>
        <pt x="196" y="457" on="0"/>
        <pt x="246" y="457" on="1"/>
        <pt x="324" y="457" on="0"/>
        <pt x="367" y="384" on="1"/>
        <pt x="367" y="445" on="1"/>
        <pt x="487" y="445" on="1"/>
        <pt x="487" y="-177" on="1"/>
      </contour>
      <contour>
        <pt x="369" y="225" on="1"/>
        <pt x="369" y="249" on="0"/>
        <pt x="358" y="303" on="0"/>
        <pt x="333" y="348" on="0"/>
        <pt x="293" y="378" on="0"/>
        <pt x="265" y="378" on="1"/>
        <pt x="235" y="378" on="0"/>
        <pt x="195" y="349" on="0"/>
        <pt x="170" y="305" on="0"/>
        <pt x="159" y="253" on="0"/>
        <pt x="159" y="229" on="1"/>
        <pt x="159" y="202" on="0"/>
        <pt x="170" y="143" on="0"/>
        <pt x="196" y="95" on="0"/>
        <pt x="239" y="63" on="0"/>
        <pt x="270" y="63" on="1"/>
        <pt x="369" y="63" on="0"/>
      </contour>
    </TTGlyph>
    <TTGlyph name="question" xMin="12" yMin="-11" xMax="393" yMax="773">
      <contour>
        <pt x="269" y="58" on="1"/>
        <pt x="269" y="31" on="0"/>
        <pt x="230" y="-11" on="0"/>
        <pt x="201" y="-11" on="1"/>
        <pt x="171" y="-11" on="0"/>
        <pt x="135" y="34" on="0"/>
        <pt x="135" y="58" on="1"/>
        <pt x="135" y="82" on="0"/>
        <pt x="171" y="121" on="0"/>
        <pt x="201" y="121" on="1"/>
        <pt x="230" y="121" on="0"/>
        <pt x="269" y="82" on="0"/>
      </contour>
      <contour>
        <pt x="393" y="581" on="1"/>
        <pt x="393" y="542" on="0"/>
        <pt x="373" y="490" on="0"/>
        <pt x="343" y="454" on="0"/>
        <pt x="309" y="428" on="0"/>
        <pt x="279" y="402" on="0"/>
        <pt x="259" y="370" on="0"/>
        <pt x="259" y="346" on="1"/>
        <pt x="259" y="200" on="1"/>
        <pt x="145" y="200" on="1"/>
        <pt x="145" y="363" on="1"/>
        <pt x="145" y="392" on="0"/>
        <pt x="165" y="433" on="0"/>
        <pt x="195" y="464" on="0"/>
        <pt x="230" y="490" on="0"/>
        <pt x="260" y="519" on="0"/>
        <pt x="280" y="555" on="0"/>
        <pt x="280" y="581" on="1"/>
        <pt x="280" y="596" on="0"/>
        <pt x="266" y="623" on="0"/>
        <pt x="244" y="644" on="0"/>
        <pt x="216" y="657" on="0"/>
        <pt x="202" y="657" on="1"/>
        <pt x="172" y="657" on="0"/>
        <pt x="126" y="610" on="0"/>
        <pt x="126" y="567" on="1"/>
        <pt x="126" y="558" on="1"/>
        <pt x="12" y="558" on="1"/>
        <pt x="12" y="567" on="1"/>
        <pt x="12" y="604" on="0"/>
        <pt x="39" y="677" on="0"/>
        <pt x="89" y="736" on="0"/>
        <pt x="159" y="773" on="0"/>
        <pt x="202" y="773" on="1"/>
        <pt x="246" y="773" on="0"/>
        <pt x="317" y="739" on="0"/>
        <pt x="366" y="685" on="0"/>
        <pt x="393" y="616" on="0"/>
      </contour>
    </TTGlyph>
    <TTGlyph name="quotedbl" xMin="63" yMin="384" xMax="400" yMax="643">
      <contour>
        <pt x="378" y="384" on="1"/>
        <pt x="291" y="384" on="1"/>
        <pt x="267" y="643" on="1"/>
        <pt x="400" y="643" on="1"/>
      </contour>
      <contour>
        <pt x="172" y="384" on="1"/>
        <pt x="85" y="384" on="1"/>
        <pt x="63" y="643" on="1"/>
        <pt x="195" y="643" on="1"/>
      </contour>
    </TTGlyph>
    <TTGlyph name="quotedblleft" xMin="55" yMin="567" xMax="481" yMax="873">
      <contour>
        <pt x="232" y="660" on="1"/>
        <pt x="232" y="642" on="0"/>
        <pt x="219" y="608" on="0"/>
        <pt x="196" y="583" on="0"/>
        <pt x="165" y="567" on="0"/>
        <pt x="147" y="567" on="1"/>
        <pt x="126" y="567" on="0"/>
        <pt x="92" y="584" on="0"/>
        <pt x="68" y="610" on="0"/>
        <pt x="55" y="643" on="0"/>
        <pt x="55" y="660" on="1"/>
        <pt x="55" y="693" on="0"/>
        <pt x="75" y="756" on="0"/>
        <pt x="108" y="812" on="0"/>
        <pt x="151" y="858" on="0"/>
        <pt x="174" y="873" on="1"/>
        <pt x="196" y="855" on="1"/>
        <pt x="185" y="846" on="0"/>
        <pt x="161" y="819" on="0"/>
        <pt x="142" y="786" on="0"/>
        <pt x="130" y="748" on="0"/>
        <pt x="130" y="729" on="1"/>
        <pt x="130" y="720" on="0"/>
        <pt x="132" y="714" on="1"/>
        <pt x="140" y="717" on="0"/>
        <pt x="161" y="724" on="0"/>
        <pt x="181" y="729" on="0"/>
        <pt x="198" y="733" on="0"/>
        <pt x="202" y="733" on="1"/>
        <pt x="217" y="728" on="0"/>
        <pt x="232" y="689" on="0"/>
      </contour>
      <contour>
        <pt x="481" y="660" on="1"/>
        <pt x="481" y="642" on="0"/>
        <pt x="467" y="608" on="0"/>
        <pt x="444" y="583" on="0"/>
        <pt x="413" y="567" on="0"/>
        <pt x="396" y="567" on="1"/>
        <pt x="374" y="567" on="0"/>
        <pt x="340" y="584" on="0"/>
        <pt x="316" y="610" on="0"/>
        <pt x="304" y="643" on="0"/>
        <pt x="304" y="660" on="1"/>
        <pt x="304" y="693" on="0"/>
        <pt x="324" y="756" on="0"/>
        <pt x="357" y="812" on="0"/>
        <pt x="400" y="858" on="0"/>
        <pt x="423" y="873" on="1"/>
        <pt x="444" y="855" on="1"/>
        <pt x="433" y="846" on="0"/>
        <pt x="410" y="819" on="0"/>
        <pt x="391" y="786" on="0"/>
        <pt x="379" y="748" on="0"/>
        <pt x="379" y="729" on="1"/>
        <pt x="379" y="720" on="0"/>
        <pt x="381" y="714" on="1"/>
        <pt x="396" y="720" on="0"/>
        <pt x="441" y="733" on="0"/>
        <pt x="451" y="733" on="1"/>
        <pt x="466" y="728" on="0"/>
        <pt x="481" y="689" on="0"/>
      </contour>
    </TTGlyph>
    <TTGlyph name="quotedblright" xMin="40" yMin="567" xMax="466" yMax="873">
      <contour>
        <pt x="466" y="780" on="1"/>
        <pt x="466" y="747" on="0"/>
        <pt x="446" y="683" on="0"/>
        <pt x="413" y="627" on="0"/>
        <pt x="370" y="582" on="0"/>
        <pt x="348" y="567" on="1"/>
        <pt x="327" y="585" on="1"/>
        <pt x="337" y="593" on="0"/>
        <pt x="360" y="620" on="0"/>
        <pt x="379" y="653" on="0"/>
        <pt x="391" y="691" on="0"/>
        <pt x="391" y="711" on="1"/>
        <pt x="391" y="715" on="0"/>
        <pt x="391" y="723" on="0"/>
        <pt x="390" y="726" on="1"/>
        <pt x="382" y="723" on="0"/>
        <pt x="361" y="716" on="0"/>
        <pt x="341" y="710" on="0"/>
        <pt x="323" y="706" on="0"/>
        <pt x="319" y="706" on="1"/>
        <pt x="305" y="711" on="0"/>
        <pt x="289" y="751" on="0"/>
        <pt x="289" y="780" on="1"/>
        <pt x="289" y="798" on="0"/>
        <pt x="303" y="832" on="0"/>
        <pt x="326" y="857" on="0"/>
        <pt x="358" y="873" on="0"/>
        <pt x="376" y="873" on="1"/>
        <pt x="397" y="873" on="0"/>
        <pt x="431" y="856" on="0"/>
        <pt x="454" y="829" on="0"/>
        <pt x="466" y="796" on="0"/>
      </contour>
      <contour>
        <pt x="217" y="780" on="1"/>
        <pt x="217" y="747" on="0"/>
        <pt x="197" y="683" on="0"/>
        <pt x="164" y="627" on="0"/>
        <pt x="121" y="582" on="0"/>
        <pt x="99" y="567" on="1"/>
        <pt x="78" y="585" on="1"/>
        <pt x="88" y="593" on="0"/>
        <pt x="111" y="620" on="0"/>
        <pt x="130" y="653" on="0"/>
        <pt x="142" y="691" on="0"/>
        <pt x="142" y="711" on="1"/>
        <pt x="142" y="715" on="0"/>
        <pt x="142" y="723" on="0"/>
        <pt x="141" y="726" on="1"/>
        <pt x="133" y="723" on="0"/>
        <pt x="113" y="716" on="0"/>
        <pt x="93" y="710" on="0"/>
        <pt x="76" y="706" on="0"/>
        <pt x="72" y="706" on="1"/>
        <pt x="56" y="711" on="0"/>
        <pt x="40" y="751" on="0"/>
        <pt x="40" y="780" on="1"/>
        <pt x="40" y="798" on="0"/>
        <pt x="54" y="832" on="0"/>
        <pt x="77" y="857" on="0"/>
        <pt x="109" y="873" on="0"/>
        <pt x="127" y="873" on="1"/>
        <pt x="148" y="873" on="0"/>
        <pt x="182" y="856" on="0"/>
        <pt x="205" y="829" on="0"/>
        <pt x="217" y="796" on="0"/>
      </contour>
    </TTGlyph>
    <TTGlyph name="quoteleft" xMin="55" yMin="567" xMax="232" yMax="873">
      <contour>
        <pt x="232" y="660" on="1"/>
        <pt x="232" y="642" on="0"/>
        <pt x="219" y="608" on="0"/>
        <pt x="196" y="583" on="0"/>
        <pt x="165" y="567" on="0"/>
        <pt x="147" y="567" on="1"/>
        <pt x="126" y="567" on="0"/>
        <pt x="92" y="584" on="0"/>
        <pt x="68" y="610" on="0"/>
        <pt x="55" y="643" on="0"/>
        <pt x="55" y="660" on="1"/>
        <pt x="55" y="693" on="0"/>
        <pt x="75" y="756" on="0"/>
        <pt x="108" y="812" on="0"/>
        <pt x="151" y="858" on="0"/>
        <pt x="174" y="873" on="1"/>
        <pt x="196" y="853" on="1"/>
        <pt x="185" y="845" on="0"/>
        <pt x="161" y="819" on="0"/>
        <pt x="142" y="786" on="0"/>
        <pt x="130" y="748" on="0"/>
        <pt x="130" y="729" on="1"/>
        <pt x="130" y="720" on="0"/>
        <pt x="132" y="714" on="1"/>
        <pt x="140" y="717" on="0"/>
        <pt x="161" y="724" on="0"/>
        <pt x="181" y="729" on="0"/>
        <pt x="198" y="733" on="0"/>
        <pt x="202" y="733" on="1"/>
        <pt x="217" y="728" on="0"/>
        <pt x="232" y="688" on="0"/>
      </contour>
    </TTGlyph>
    <TTGlyph name="quoteright" xMin="40" yMin="567" xMax="217" yMax="873">
      <contour>
        <pt x="217" y="780" on="1"/>
        <pt x="217" y="747" on="0"/>
        <pt x="197" y="683" on="0"/>
        <pt x="164" y="627" on="0"/>
        <pt x="121" y="582" on="0"/>
        <pt x="99" y="567" on="1"/>
        <pt x="78" y="585" on="1"/>
        <pt x="88" y="593" on="0"/>
        <pt x="111" y="620" on="0"/>
        <pt x="130" y="653" on="0"/>
        <pt x="142" y="691" on="0"/>
        <pt x="142" y="711" on="1"/>
        <pt x="142" y="715" on="0"/>
        <pt x="142" y="724" on="0"/>
        <pt x="141" y="726" on="1"/>
        <pt x="133" y="723" on="0"/>
        <pt x="113" y="716" on="0"/>
        <pt x="93" y="710" on="0"/>
        <pt x="76" y="706" on="0"/>
        <pt x="72" y="706" on="1"/>
        <pt x="56" y="711" on="0"/>
        <pt x="40" y="751" on="0"/>
        <pt x="40" y="780" on="1"/>
        <pt x="40" y="798" on="0"/>
        <pt x="54" y="832" on="0"/>
        <pt x="77" y="857" on="0"/>
        <pt x="109" y="873" on="0"/>
        <pt x="127" y="873" on="1"/>
        <pt x="148" y="873" on="0"/>
        <pt x="182" y="856" on="0"/>
        <pt x="205" y="829" on="0"/>
        <pt x="217" y="796" on="0"/>
      </contour>
    </TTGlyph>
    <TTGlyph name="quotesingle" xMin="115" yMin="384" xMax="249" yMax="643">
      <contour>
        <pt x="226" y="384" on="1"/>
        <pt x="139" y="384" on="1"/>
        <pt x="115" y="643" on="1"/>
        <pt x="249" y="643" on="1"/>
      </contour>
    </TTGlyph>
    <TTGlyph name="r" xMin="58" yMin="0" xMax="330" yMax="457">
      <contour>
        <pt x="330" y="355" on="1"/>
        <pt x="178" y="355" on="0"/>
        <pt x="178" y="228" on="1"/>
        <pt x="178" y="0" on="1"/>
        <pt x="58" y="0" on="1"/>
        <pt x="58" y="445" on="1"/>
        <pt x="178" y="445" on="1"/>
        <pt x="178" y="376" on="1"/>
        <pt x="190" y="398" on="0"/>
        <pt x="216" y="429" on="0"/>
        <pt x="250" y="449" on="0"/>
        <pt x="297" y="457" on="0"/>
        <pt x="330" y="457" on="1"/>
        <pt x="330" y="355" on="1"/>
      </contour>
    </TTGlyph>
    <TTGlyph name="s" xMin="40" yMin="-12" xMax="423" yMax="457">
      <contour>
        <pt x="423" y="139" on="1"/>
        <pt x="423" y="98" on="0"/>
        <pt x="389" y="41" on="0"/>
        <pt x="333" y="5" on="0"/>
        <pt x="262" y="-12" on="0"/>
        <pt x="226" y="-12" on="1"/>
        <pt x="186" y="-12" on="0"/>
        <pt x="118" y="4" on="0"/>
        <pt x="68" y="40" on="0"/>
        <pt x="40" y="97" on="0"/>
        <pt x="40" y="138" on="1"/>
        <pt x="160" y="138" on="1"/>
        <pt x="162" y="96" on="0"/>
        <pt x="197" y="63" on="0"/>
        <pt x="237" y="63" on="1"/>
        <pt x="265" y="63" on="0"/>
        <pt x="307" y="96" on="0"/>
        <pt x="307" y="123" on="1"/>
        <pt x="307" y="147" on="0"/>
        <pt x="269" y="172" on="0"/>
        <pt x="212" y="189" on="0"/>
        <pt x="146" y="205" on="0"/>
        <pt x="89" y="234" on="0"/>
        <pt x="51" y="283" on="0"/>
        <pt x="51" y="324" on="1"/>
        <pt x="51" y="353" on="0"/>
        <pt x="77" y="402" on="0"/>
        <pt x="125" y="437" on="0"/>
        <pt x="191" y="457" on="0"/>
        <pt x="232" y="457" on="1"/>
        <pt x="412" y="457" on="0"/>
        <pt x="412" y="315" on="1"/>
        <pt x="292" y="315" on="1"/>
        <pt x="291" y="351" on="0"/>
        <pt x="264" y="382" on="0"/>
        <pt x="226" y="382" on="1"/>
        <pt x="199" y="382" on="0"/>
        <pt x="168" y="350" on="0"/>
        <pt x="168" y="329" on="1"/>
        <pt x="168" y="311" on="0"/>
        <pt x="206" y="292" on="0"/>
        <pt x="262" y="277" on="0"/>
        <pt x="329" y="261" on="0"/>
        <pt x="385" y="230" on="0"/>
        <pt x="423" y="180" on="0"/>
      </contour>
    </TTGlyph>
    <TTGlyph name="semicolon" xMin="40" yMin="-146" xMax="225" yMax="466">
      <contour>
        <pt x="225" y="376" on="1"/>
        <pt x="225" y="358" on="0"/>
        <pt x="209" y="325" on="0"/>
        <pt x="184" y="300" on="0"/>
        <pt x="151" y="286" on="0"/>
        <pt x="133" y="286" on="1"/>
        <pt x="115" y="286" on="0"/>
        <pt x="81" y="300" on="0"/>
        <pt x="55" y="325" on="0"/>
        <pt x="40" y="358" on="0"/>
        <pt x="40" y="376" on="1"/>
        <pt x="40" y="395" on="0"/>
        <pt x="55" y="428" on="0"/>
        <pt x="81" y="452" on="0"/>
        <pt x="115" y="466" on="0"/>
        <pt x="133" y="466" on="1"/>
        <pt x="151" y="466" on="0"/>
        <pt x="184" y="452" on="0"/>
        <pt x="209" y="428" on="0"/>
        <pt x="225" y="395" on="0"/>
      </contour>
      <contour>
        <pt x="217" y="67" on="1"/>
        <pt x="217" y="34" on="0"/>
        <pt x="197" y="-29" on="0"/>
        <pt x="164" y="-85" on="0"/>
        <pt x="122" y="-131" on="0"/>
        <pt x="99" y="-146" on="1"/>
        <pt x="78" y="-128" on="1"/>
        <pt x="88" y="-119" on="0"/>
        <pt x="111" y="-92" on="0"/>
        <pt x="130" y="-59" on="0"/>
        <pt x="142" y="-21" on="0"/>
        <pt x="142" y="-2" on="1"/>
        <pt x="142" y="2" on="0"/>
        <pt x="142" y="10" on="0"/>
        <pt x="141" y="13" on="1"/>
        <pt x="133" y="10" on="0"/>
        <pt x="113" y="3" on="0"/>
        <pt x="93" y="-4" on="0"/>
        <pt x="76" y="-8" on="0"/>
        <pt x="72" y="-8" on="1"/>
        <pt x="66" y="-8" on="0"/>
        <pt x="40" y="25" on="0"/>
        <pt x="40" y="67" on="1"/>
        <pt x="40" y="85" on="0"/>
        <pt x="54" y="119" on="0"/>
        <pt x="77" y="144" on="0"/>
        <pt x="109" y="160" on="0"/>
        <pt x="127" y="160" on="1"/>
        <pt x="148" y="160" on="0"/>
        <pt x="182" y="143" on="0"/>
        <pt x="205" y="117" on="0"/>
        <pt x="217" y="83" on="0"/>
      </contour>
    </TTGlyph>
    <TTGlyph name="seven" xMin="40" yMin="0" xMax="471" yMax="643">
      <contour>
        <pt x="253" y="0" on="1"/>
        <pt x="105" y="0" on="1"/>
        <pt x="351" y="541" on="1"/>
        <pt x="40" y="541" on="1"/>
        <pt x="40" y="643" on="1"/>
        <pt x="471" y="643" on="1"/>
        <pt x="471" y="519" on="1"/>
      </contour>
    </TTGlyph>
    <TTGlyph name="six" xMin="30" yMin="-12" xMax="481" yMax="655">
      <contour>
        <pt x="481" y="217" on="1"/>
        <pt x="481" y="176" on="0"/>
        <pt x="456" y="94" on="0"/>
        <pt x="401" y="29" on="0"/>
        <pt x="315" y="-12" on="0"/>
        <pt x="255" y="-12" on="1"/>
        <pt x="190" y="-12" on="0"/>
        <pt x="103" y="40" on="0"/>
        <pt x="51" y="125" on="0"/>
        <pt x="30" y="235" on="0"/>
        <pt x="30" y="292" on="1"/>
        <pt x="30" y="354" on="0"/>
        <pt x="50" y="483" on="0"/>
        <pt x="103" y="588" on="0"/>
        <pt x="196" y="655" on="0"/>
        <pt x="270" y="655" on="1"/>
        <pt x="309" y="655" on="0"/>
        <pt x="379" y="630" on="0"/>
        <pt x="432" y="585" on="0"/>
        <pt x="466" y="522" on="0"/>
        <pt x="469" y="483" on="1"/>
        <pt x="345" y="483" on="1"/>
        <pt x="345" y="514" on="0"/>
        <pt x="304" y="558" on="0"/>
        <pt x="273" y="558" on="1"/>
        <pt x="237" y="558" on="0"/>
        <pt x="191" y="506" on="0"/>
        <pt x="164" y="434" on="0"/>
        <pt x="154" y="358" on="0"/>
        <pt x="154" y="334" on="1"/>
        <pt x="167" y="351" on="0"/>
        <pt x="194" y="379" on="0"/>
        <pt x="229" y="400" on="0"/>
        <pt x="275" y="412" on="0"/>
        <pt x="307" y="412" on="1"/>
        <pt x="349" y="412" on="0"/>
        <pt x="414" y="378" on="0"/>
        <pt x="458" y="323" on="0"/>
        <pt x="481" y="253" on="0"/>
      </contour>
      <contour>
        <pt x="351" y="204" on="1"/>
        <pt x="351" y="322" on="0"/>
        <pt x="264" y="322" on="1"/>
        <pt x="175" y="322" on="0"/>
        <pt x="175" y="204" on="1"/>
        <pt x="175" y="85" on="0"/>
        <pt x="264" y="85" on="1"/>
        <pt x="351" y="85" on="0"/>
      </contour>
    </TTGlyph>
    <TTGlyph name="slash" xMin="55" yMin="-275" xMax="502" yMax="831">
      <contour>
        <pt x="144" y="-275" on="1"/>
        <pt x="55" y="-186" on="1"/>
        <pt x="412" y="831" on="1"/>
        <pt x="502" y="747" on="1"/>
      </contour>
    </TTGlyph>
    <TTGlyph name="t" xMin="27" yMin="-11" xMax="351" yMax="577">
      <contour>
        <pt x="351" y="4" on="1"/>
        <pt x="307" y="-11" on="0"/>
        <pt x="259" y="-11" on="1"/>
        <pt x="232" y="-11" on="0"/>
        <pt x="181" y="5" on="0"/>
        <pt x="140" y="36" on="0"/>
        <pt x="115" y="80" on="0"/>
        <pt x="115" y="108" on="1"/>
        <pt x="115" y="369" on="1"/>
        <pt x="27" y="369" on="1"/>
        <pt x="27" y="445" on="1"/>
        <pt x="115" y="445" on="1"/>
        <pt x="115" y="514" on="1"/>
        <pt x="235" y="577" on="1"/>
        <pt x="235" y="445" on="1"/>
        <pt x="342" y="445" on="1"/>
        <pt x="342" y="369" on="1"/>
        <pt x="235" y="369" on="1"/>
        <pt x="235" y="142" on="1"/>
        <pt x="235" y="72" on="0"/>
        <pt x="306" y="72" on="1"/>
        <pt x="331" y="72" on="0"/>
        <pt x="351" y="79" on="1"/>
        <pt x="351" y="4" on="1"/>
      </contour>
    </TTGlyph>
    <TTGlyph name="three" xMin="42" yMin="-12" xMax="469" yMax="655">
      <contour>
        <pt x="469" y="181" on="1"/>
        <pt x="469" y="137" on="0"/>
        <pt x="432" y="66" on="0"/>
        <pt x="371" y="16" on="0"/>
        <pt x="295" y="-12" on="0"/>
        <pt x="256" y="-12" on="1"/>
        <pt x="42" y="-12" on="0"/>
        <pt x="42" y="181" on="1"/>
        <pt x="168" y="181" on="1"/>
        <pt x="168" y="138" on="0"/>
        <pt x="213" y="85" on="0"/>
        <pt x="249" y="85" on="1"/>
        <pt x="291" y="85" on="0"/>
        <pt x="343" y="139" on="0"/>
        <pt x="343" y="190" on="1"/>
        <pt x="343" y="224" on="0"/>
        <pt x="322" y="263" on="0"/>
        <pt x="281" y="282" on="0"/>
        <pt x="221" y="286" on="0"/>
        <pt x="183" y="286" on="1"/>
        <pt x="183" y="384" on="1"/>
        <pt x="215" y="384" on="0"/>
        <pt x="268" y="391" on="0"/>
        <pt x="307" y="409" on="0"/>
        <pt x="328" y="441" on="0"/>
        <pt x="328" y="466" on="1"/>
        <pt x="328" y="510" on="0"/>
        <pt x="288" y="558" on="0"/>
        <pt x="252" y="558" on="1"/>
        <pt x="214" y="558" on="0"/>
        <pt x="166" y="514" on="0"/>
        <pt x="166" y="474" on="1"/>
        <pt x="42" y="474" on="1"/>
        <pt x="42" y="516" on="0"/>
        <pt x="73" y="583" on="0"/>
        <pt x="129" y="630" on="0"/>
        <pt x="208" y="655" on="0"/>
        <pt x="256" y="655" on="1"/>
        <pt x="301" y="655" on="0"/>
        <pt x="373" y="628" on="0"/>
        <pt x="425" y="580" on="0"/>
        <pt x="453" y="512" on="0"/>
        <pt x="453" y="471" on="1"/>
        <pt x="453" y="442" on="0"/>
        <pt x="433" y="398" on="0"/>
        <pt x="400" y="367" on="0"/>
        <pt x="357" y="344" on="0"/>
        <pt x="334" y="336" on="1"/>
        <pt x="361" y="329" on="0"/>
        <pt x="409" y="306" on="0"/>
        <pt x="447" y="269" on="0"/>
        <pt x="469" y="217" on="0"/>
      </contour>
    </TTGlyph>
    <TTGlyph name="two" xMin="28" yMin="0" xMax="483" yMax="655">
      <contour>
        <pt x="28" y="0" on="1"/>
        <pt x="28" y="115" on="1"/>
        <pt x="131" y="192" on="0"/>
        <pt x="260" y="309" on="0"/>
        <pt x="332" y="394" on="0"/>
        <pt x="357" y="451" on="0"/>
        <pt x="357" y="469" on="1"/>
        <pt x="357" y="487" on="0"/>
        <pt x="345" y="519" on="0"/>
        <pt x="323" y="543" on="0"/>
        <pt x="293" y="558" on="0"/>
        <pt x="276" y="558" on="1"/>
        <pt x="235" y="558" on="0"/>
        <pt x="181" y="505" on="0"/>
        <pt x="181" y="466" on="1"/>
        <pt x="52" y="466" on="1"/>
        <pt x="52" y="511" on="0"/>
        <pt x="90" y="582" on="0"/>
        <pt x="153" y="630" on="0"/>
        <pt x="232" y="655" on="0"/>
        <pt x="273" y="655" on="1"/>
        <pt x="317" y="655" on="0"/>
        <pt x="394" y="630" on="0"/>
        <pt x="451" y="584" on="0"/>
        <pt x="483" y="516" on="0"/>
        <pt x="483" y="474" on="1"/>
        <pt x="483" y="439" on="0"/>
        <pt x="456" y="364" on="0"/>
        <pt x="386" y="274" on="0"/>
        <pt x="262" y="167" on="0"/>
        <pt x="166" y="102" on="1"/>
        <pt x="483" y="102" on="1"/>
        <pt x="483" y="0" on="1"/>
      </contour>
    </TTGlyph>
    <TTGlyph name="u" xMin="58" yMin="-12" xMax="474" yMax="445">
      <contour>
        <pt x="352" y="0" on="1"/>
        <pt x="352" y="60" on="1"/>
        <pt x="338" y="39" on="0"/>
        <pt x="310" y="11" on="0"/>
        <pt x="277" y="-6" on="0"/>
        <pt x="235" y="-12" on="0"/>
        <pt x="208" y="-12" on="1"/>
        <pt x="136" y="-12" on="0"/>
        <pt x="58" y="67" on="0"/>
        <pt x="58" y="142" on="1"/>
        <pt x="58" y="445" on="1"/>
        <pt x="178" y="445" on="1"/>
        <pt x="178" y="178" on="1"/>
        <pt x="178" y="60" on="0"/>
        <pt x="258" y="60" on="1"/>
        <pt x="352" y="60" on="0"/>
        <pt x="352" y="196" on="1"/>
        <pt x="352" y="445" on="1"/>
        <pt x="474" y="445" on="1"/>
        <pt x="474" y="0" on="1"/>
      </contour>
    </TTGlyph>
    <TTGlyph name="u1000" xMin="55" yMin="-23" xMax="921" yMax="466">
      <contour>
        <pt x="921" y="222" on="1"/>
        <pt x="921" y="171" on="0"/>
        <pt x="882" y="82" on="0"/>
        <pt x="816" y="16" on="0"/>
        <pt x="728" y="-23" on="0"/>
        <pt x="678" y="-23" on="1"/>
        <pt x="675" y="-23" on="0"/>
        <pt x="658" y="-23" on="0"/>
        <pt x="637" y="-20" on="0"/>
        <pt x="615" y="-16" on="0"/>
        <pt x="607" y="-11" on="1"/>
        <pt x="652" y="94" on="1"/>
        <pt x="658" y="93" on="0"/>
        <pt x="670" y="91" on="0"/>
        <pt x="678" y="91" on="1"/>
        <pt x="705" y="91" on="0"/>
        <pt x="752" y="112" on="0"/>
        <pt x="788" y="148" on="0"/>
        <pt x="808" y="195" on="0"/>
        <pt x="808" y="222" on="1"/>
        <pt x="808" y="248" on="0"/>
        <pt x="788" y="295" on="0"/>
        <pt x="752" y="331" on="0"/>
        <pt x="705" y="352" on="0"/>
        <pt x="678" y="352" on="1"/>
        <pt x="651" y="352" on="0"/>
        <pt x="602" y="323" on="0"/>
        <pt x="566" y="279" on="0"/>
        <pt x="544" y="229" on="0"/>
        <pt x="544" y="207" on="1"/>
        <pt x="544" y="135" on="0"/>
        <pt x="508" y="24" on="0"/>
        <pt x="454" y="-23" on="1"/>
        <pt x="388" y="70" on="1"/>
        <pt x="400" y="86" on="0"/>
        <pt x="416" y="112" on="0"/>
        <pt x="426" y="141" on="0"/>
        <pt x="430" y="179" on="0"/>
        <pt x="430" y="207" on="1"/>
        <pt x="430" y="233" on="0"/>
        <pt x="413" y="285" on="0"/>
        <pt x="380" y="326" on="0"/>
        <pt x="331" y="352" on="0"/>
        <pt x="300" y="352" on="1"/>
        <pt x="268" y="352" on="0"/>
        <pt x="220" y="326" on="0"/>
        <pt x="186" y="285" on="0"/>
        <pt x="169" y="233" on="0"/>
        <pt x="169" y="207" on="1"/>
        <pt x="169" y="179" on="0"/>
        <pt x="173" y="141" on="0"/>
        <pt x="183" y="112" on="0"/>
        <pt x="199" y="86" on="0"/>
        <pt x="211" y="70" on="1"/>
        <pt x="145" y="-23" on="1"/>
        <pt x="91" y="24" on="0"/>
        <pt x="55" y="135" on="0"/>
        <pt x="55" y="207" on="1"/>
        <pt x="55" y="259" on="0"/>
        <pt x="92" y="353" on="0"/>
        <pt x="158" y="424" on="0"/>
        <pt x="247" y="466" on="0"/>
        <pt x="300" y="466" on="1"/>
        <pt x="360" y="466" on="0"/>
        <pt x="458" y="412" on="0"/>
        <pt x="490" y="367" on="1"/>
        <pt x="519" y="408" on="0"/>
        <pt x="615" y="466" on="0"/>
        <pt x="678" y="466" on="1"/>
        <pt x="728" y="466" on="0"/>
        <pt x="816" y="427" on="0"/>
        <pt x="882" y="361" on="0"/>
        <pt x="921" y="272" on="0"/>
      </contour>
    </TTGlyph>
    <TTGlyph name="u1000.kham" xMin="55" yMin="-23" xMax="921" yMax="466">
      <contour>
        <pt x="921" y="222" on="1"/>
        <pt x="921" y="171" on="0"/>
        <pt x="882" y="82" on="0"/>
        <pt x="816" y="16" on="0"/>
        <pt x="728" y="-23" on="0"/>
        <pt x="678" y="-23" on="1"/>
        <pt x="660" y="-23" on="0"/>
        <pt x="621" y="-17" on="0"/>
        <pt x="607" y="-11" on="1"/>
        <pt x="652" y="94" on="1"/>
        <pt x="664" y="91" on="0"/>
        <pt x="678" y="91" on="1"/>
        <pt x="705" y="91" on="0"/>
        <pt x="752" y="112" on="0"/>
        <pt x="788" y="148" on="0"/>
        <pt x="808" y="195" on="0"/>
        <pt x="808" y="222" on="1"/>
        <pt x="808" y="248" on="0"/>
        <pt x="788" y="295" on="0"/>
        <pt x="752" y="331" on="0"/>
        <pt x="705" y="352" on="0"/>
        <pt x="678" y="352" on="1"/>
        <pt x="651" y="352" on="0"/>
        <pt x="602" y="323" on="0"/>
        <pt x="566" y="279" on="0"/>
        <pt x="544" y="229" on="0"/>
        <pt x="544" y="207" on="1"/>
        <pt x="544" y="135" on="0"/>
        <pt x="508" y="24" on="0"/>
        <pt x="454" y="-23" on="1"/>
        <pt x="388" y="70" on="1"/>
        <pt x="400" y="86" on="0"/>
        <pt x="416" y="112" on="0"/>
        <pt x="426" y="141" on="0"/>
        <pt x="430" y="179" on="0"/>
        <pt x="430" y="207" on="1"/>
        <pt x="430" y="233" on="0"/>
        <pt x="411" y="285" on="0"/>
        <pt x="376" y="326" on="0"/>
        <pt x="328" y="352" on="0"/>
        <pt x="300" y="352" on="1"/>
        <pt x="274" y="352" on="0"/>
        <pt x="227" y="331" on="0"/>
        <pt x="191" y="292" on="0"/>
        <pt x="169" y="239" on="0"/>
        <pt x="169" y="207" on="1"/>
        <pt x="169" y="191" on="0"/>
        <pt x="170" y="164" on="0"/>
        <pt x="172" y="153" on="1"/>
        <pt x="181" y="153" on="1"/>
        <pt x="199" y="153" on="0"/>
        <pt x="231" y="139" on="0"/>
        <pt x="256" y="114" on="0"/>
        <pt x="270" y="82" on="0"/>
        <pt x="270" y="64" on="1"/>
        <pt x="270" y="28" on="0"/>
        <pt x="219" y="-23" on="0"/>
        <pt x="181" y="-23" on="1"/>
        <pt x="147" y="-23" on="0"/>
        <pt x="99" y="17" on="0"/>
        <pt x="69" y="82" on="0"/>
        <pt x="55" y="164" on="0"/>
        <pt x="55" y="207" on="1"/>
        <pt x="55" y="258" on="0"/>
        <pt x="92" y="352" on="0"/>
        <pt x="158" y="423" on="0"/>
        <pt x="247" y="466" on="0"/>
        <pt x="300" y="466" on="1"/>
        <pt x="360" y="466" on="0"/>
        <pt x="458" y="412" on="0"/>
        <pt x="490" y="367" on="1"/>
        <pt x="519" y="408" on="0"/>
        <pt x="615" y="466" on="0"/>
        <pt x="678" y="466" on="1"/>
        <pt x="728" y="466" on="0"/>
        <pt x="816" y="427" on="0"/>
        <pt x="882" y="361" on="0"/>
        <pt x="921" y="272" on="0"/>
      </contour>
    </TTGlyph>
    <TTGlyph name="u1000.med" xMin="-723" yMin="-471" xMax="-55" yMax="-93">
      <contour>
        <pt x="-55" y="-282" on="1"/>
        <pt x="-55" y="-321" on="0"/>
        <pt x="-84" y="-390" on="0"/>
        <pt x="-135" y="-441" on="0"/>
        <pt x="-203" y="-471" on="0"/>
        <pt x="-241" y="-471" on="1"/>
        <pt x="-278" y="-471" on="0"/>
        <pt x="-297" y="-461" on="1"/>
        <pt x="-262" y="-381" on="1"/>
        <pt x="-256" y="-384" on="0"/>
        <pt x="-241" y="-384" on="1"/>
        <pt x="-221" y="-384" on="0"/>
        <pt x="-185" y="-367" on="0"/>
        <pt x="-158" y="-339" on="0"/>
        <pt x="-142" y="-302" on="0"/>
        <pt x="-142" y="-282" on="1"/>
        <pt x="-142" y="-262" on="0"/>
        <pt x="-158" y="-225" on="0"/>
        <pt x="-185" y="-197" on="0"/>
        <pt x="-221" y="-180" on="0"/>
        <pt x="-241" y="-180" on="1"/>
        <pt x="-261" y="-180" on="0"/>
        <pt x="-298" y="-202" on="0"/>
        <pt x="-327" y="-236" on="0"/>
        <pt x="-345" y="-277" on="0"/>
        <pt x="-345" y="-296" on="1"/>
        <pt x="-345" y="-349" on="0"/>
        <pt x="-373" y="-435" on="0"/>
        <pt x="-415" y="-471" on="1"/>
        <pt x="-466" y="-398" on="1"/>
        <pt x="-457" y="-386" on="0"/>
        <pt x="-444" y="-366" on="0"/>
        <pt x="-436" y="-344" on="0"/>
        <pt x="-433" y="-315" on="0"/>
        <pt x="-433" y="-294" on="1"/>
        <pt x="-433" y="-273" on="0"/>
        <pt x="-446" y="-233" on="0"/>
        <pt x="-472" y="-200" on="0"/>
        <pt x="-510" y="-180" on="0"/>
        <pt x="-534" y="-180" on="1"/>
        <pt x="-558" y="-180" on="0"/>
        <pt x="-595" y="-200" on="0"/>
        <pt x="-621" y="-233" on="0"/>
        <pt x="-634" y="-273" on="0"/>
        <pt x="-634" y="-294" on="1"/>
        <pt x="-634" y="-315" on="0"/>
        <pt x="-631" y="-344" on="0"/>
        <pt x="-624" y="-366" on="0"/>
        <pt x="-611" y="-386" on="0"/>
        <pt x="-601" y="-398" on="1"/>
        <pt x="-652" y="-471" on="1"/>
        <pt x="-694" y="-435" on="0"/>
        <pt x="-723" y="-348" on="0"/>
        <pt x="-723" y="-294" on="1"/>
        <pt x="-723" y="-254" on="0"/>
        <pt x="-694" y="-181" on="0"/>
        <pt x="-643" y="-125" on="0"/>
        <pt x="-574" y="-93" on="0"/>
        <pt x="-534" y="-93" on="1"/>
        <pt x="-489" y="-93" on="0"/>
        <pt x="-413" y="-135" on="0"/>
        <pt x="-387" y="-170" on="1"/>
        <pt x="-364" y="-138" on="0"/>
        <pt x="-292" y="-93" on="0"/>
        <pt x="-241" y="-93" on="1"/>
        <pt x="-203" y="-93" on="0"/>
        <pt x="-135" y="-123" on="0"/>
        <pt x="-84" y="-175" on="0"/>
        <pt x="-55" y="-244" on="0"/>
      </contour>
    </TTGlyph>
    <TTGlyph name="u1000_u1001_u103B" xMin="55" yMin="-471" xMax="1102" yMax="466">
      <contour>
        <pt x="822" y="-401" on="1"/>
        <pt x="798" y="-426" on="0"/>
        <pt x="732" y="-455" on="0"/>
        <pt x="691" y="-455" on="1"/>
        <pt x="664" y="-455" on="0"/>
        <pt x="599" y="-435" on="0"/>
        <pt x="542" y="-396" on="0"/>
        <pt x="504" y="-339" on="0"/>
        <pt x="504" y="-302" on="1"/>
        <pt x="526" y="-282" on="0"/>
        <pt x="570" y="-257" on="0"/>
        <pt x="608" y="-244" on="0"/>
        <pt x="640" y="-240" on="0"/>
        <pt x="652" y="-240" on="1"/>
        <pt x="665" y="-240" on="0"/>
        <pt x="700" y="-246" on="0"/>
        <pt x="736" y="-259" on="0"/>
        <pt x="771" y="-281" on="0"/>
        <pt x="786" y="-296" on="1"/>
        <pt x="788" y="-289" on="0"/>
        <pt x="790" y="-274" on="0"/>
        <pt x="790" y="-267" on="1"/>
        <pt x="790" y="-260" on="0"/>
        <pt x="782" y="-227" on="0"/>
        <pt x="761" y="-193" on="0"/>
        <pt x="722" y="-167" on="0"/>
        <pt x="691" y="-167" on="1"/>
        <pt x="668" y="-167" on="0"/>
        <pt x="620" y="-185" on="0"/>
        <pt x="595" y="-219" on="1"/>
        <pt x="519" y="-179" on="1"/>
        <pt x="536" y="-146" on="0"/>
        <pt x="585" y="-106" on="0"/>
        <pt x="634" y="-85" on="0"/>
        <pt x="679" y="-78" on="0"/>
        <pt x="691" y="-78" on="1"/>
        <pt x="736" y="-78" on="0"/>
        <pt x="805" y="-113" on="0"/>
        <pt x="853" y="-168" on="0"/>
        <pt x="877" y="-235" on="0"/>
        <pt x="877" y="-267" on="1"/>
        <pt x="877" y="-280" on="0"/>
        <pt x="874" y="-296" on="1"/>
        <pt x="988" y="-324" on="1"/>
        <pt x="988" y="444" on="1"/>
        <pt x="1102" y="444" on="1"/>
        <pt x="1102" y="-471" on="1"/>
      </contour>
      <contour>
        <pt x="922" y="222" on="1"/>
        <pt x="922" y="171" on="0"/>
        <pt x="883" y="82" on="0"/>
        <pt x="817" y="16" on="0"/>
        <pt x="728" y="-23" on="0"/>
        <pt x="678" y="-23" on="1"/>
        <pt x="675" y="-23" on="0"/>
        <pt x="658" y="-23" on="0"/>
        <pt x="637" y="-20" on="0"/>
        <pt x="615" y="-16" on="0"/>
        <pt x="607" y="-11" on="1"/>
        <pt x="652" y="94" on="1"/>
        <pt x="658" y="93" on="0"/>
        <pt x="670" y="91" on="0"/>
        <pt x="678" y="91" on="1"/>
        <pt x="705" y="91" on="0"/>
        <pt x="752" y="112" on="0"/>
        <pt x="788" y="148" on="0"/>
        <pt x="808" y="195" on="0"/>
        <pt x="808" y="222" on="1"/>
        <pt x="808" y="248" on="0"/>
        <pt x="788" y="295" on="0"/>
        <pt x="752" y="331" on="0"/>
        <pt x="705" y="352" on="0"/>
        <pt x="678" y="352" on="1"/>
        <pt x="651" y="352" on="0"/>
        <pt x="602" y="323" on="0"/>
        <pt x="566" y="279" on="0"/>
        <pt x="544" y="229" on="0"/>
        <pt x="544" y="207" on="1"/>
        <pt x="544" y="135" on="0"/>
        <pt x="508" y="24" on="0"/>
        <pt x="454" y="-23" on="1"/>
        <pt x="388" y="70" on="1"/>
        <pt x="400" y="86" on="0"/>
        <pt x="416" y="112" on="0"/>
        <pt x="426" y="141" on="0"/>
        <pt x="430" y="179" on="0"/>
        <pt x="430" y="207" on="1"/>
        <pt x="430" y="233" on="0"/>
        <pt x="413" y="285" on="0"/>
        <pt x="380" y="326" on="0"/>
        <pt x="331" y="352" on="0"/>
        <pt x="300" y="352" on="1"/>
        <pt x="268" y="352" on="0"/>
        <pt x="220" y="326" on="0"/>
        <pt x="188" y="285" on="0"/>
        <pt x="171" y="233" on="0"/>
        <pt x="171" y="207" on="1"/>
        <pt x="171" y="179" on="0"/>
        <pt x="175" y="141" on="0"/>
        <pt x="184" y="112" on="0"/>
        <pt x="199" y="86" on="0"/>
        <pt x="211" y="70" on="1"/>
        <pt x="145" y="-23" on="1"/>
        <pt x="91" y="24" on="0"/>
        <pt x="55" y="135" on="0"/>
        <pt x="55" y="207" on="1"/>
        <pt x="55" y="259" on="0"/>
        <pt x="92" y="353" on="0"/>
        <pt x="158" y="424" on="0"/>
        <pt x="247" y="466" on="0"/>
        <pt x="300" y="466" on="1"/>
        <pt x="359" y="466" on="0"/>
        <pt x="458" y="412" on="0"/>
        <pt x="490" y="367" on="1"/>
        <pt x="519" y="408" on="0"/>
        <pt x="615" y="466" on="0"/>
        <pt x="678" y="466" on="1"/>
        <pt x="728" y="466" on="0"/>
        <pt x="817" y="427" on="0"/>
        <pt x="883" y="361" on="0"/>
        <pt x="922" y="272" on="0"/>
      </contour>
      <contour>
        <pt x="652" y="-311" on="1"/>
        <pt x="641" y="-311" on="0"/>
        <pt x="616" y="-313" on="0"/>
        <pt x="600" y="-318" on="1"/>
        <pt x="623" y="-347" on="0"/>
        <pt x="674" y="-366" on="0"/>
        <pt x="691" y="-366" on="1"/>
        <pt x="721" y="-366" on="0"/>
        <pt x="741" y="-353" on="1"/>
        <pt x="726" y="-335" on="0"/>
        <pt x="679" y="-311" on="0"/>
      </contour>
    </TTGlyph>
    <TTGlyph name="u1000_u103B_u1015_u103A" xMin="54" yMin="-471" xMax="1720" yMax="925">
      <contour>
        <pt x="741" y="-372" on="1"/>
        <pt x="741" y="-15" on="1"/>
        <pt x="725" y="-19" on="0"/>
        <pt x="695" y="-23" on="0"/>
        <pt x="678" y="-23" on="1"/>
        <pt x="664" y="-23" on="0"/>
        <pt x="620" y="-19" on="0"/>
        <pt x="607" y="-11" on="1"/>
        <pt x="652" y="94" on="1"/>
        <pt x="664" y="91" on="0"/>
        <pt x="678" y="91" on="1"/>
        <pt x="705" y="91" on="0"/>
        <pt x="752" y="112" on="0"/>
        <pt x="788" y="148" on="0"/>
        <pt x="808" y="195" on="0"/>
        <pt x="808" y="222" on="1"/>
        <pt x="808" y="248" on="0"/>
        <pt x="788" y="295" on="0"/>
        <pt x="752" y="331" on="0"/>
        <pt x="705" y="352" on="0"/>
        <pt x="678" y="352" on="1"/>
        <pt x="651" y="352" on="0"/>
        <pt x="602" y="323" on="0"/>
        <pt x="566" y="279" on="0"/>
        <pt x="544" y="229" on="0"/>
        <pt x="544" y="207" on="1"/>
        <pt x="544" y="135" on="0"/>
        <pt x="508" y="24" on="0"/>
        <pt x="454" y="-23" on="1"/>
        <pt x="388" y="70" on="1"/>
        <pt x="400" y="86" on="0"/>
        <pt x="416" y="112" on="0"/>
        <pt x="426" y="141" on="0"/>
        <pt x="430" y="179" on="0"/>
        <pt x="430" y="207" on="1"/>
        <pt x="430" y="233" on="0"/>
        <pt x="413" y="285" on="0"/>
        <pt x="380" y="326" on="0"/>
        <pt x="331" y="352" on="0"/>
        <pt x="300" y="352" on="1"/>
        <pt x="268" y="352" on="0"/>
        <pt x="220" y="326" on="0"/>
        <pt x="188" y="285" on="0"/>
        <pt x="171" y="233" on="0"/>
        <pt x="171" y="207" on="1"/>
        <pt x="171" y="179" on="0"/>
        <pt x="175" y="141" on="0"/>
        <pt x="184" y="112" on="0"/>
        <pt x="199" y="86" on="0"/>
        <pt x="211" y="70" on="1"/>
        <pt x="145" y="-23" on="1"/>
        <pt x="91" y="24" on="0"/>
        <pt x="54" y="135" on="0"/>
        <pt x="54" y="207" on="1"/>
        <pt x="54" y="259" on="0"/>
        <pt x="91" y="353" on="0"/>
        <pt x="157" y="424" on="0"/>
        <pt x="247" y="466" on="0"/>
        <pt x="300" y="466" on="1"/>
        <pt x="360" y="466" on="0"/>
        <pt x="458" y="412" on="0"/>
        <pt x="490" y="367" on="1"/>
        <pt x="519" y="408" on="0"/>
        <pt x="615" y="466" on="0"/>
        <pt x="678" y="466" on="1"/>
        <pt x="728" y="466" on="0"/>
        <pt x="817" y="427" on="0"/>
        <pt x="883" y="361" on="0"/>
        <pt x="922" y="272" on="0"/>
        <pt x="922" y="222" on="1"/>
        <pt x="922" y="172" on="0"/>
        <pt x="885" y="86" on="0"/>
        <pt x="853" y="52" on="1"/>
        <pt x="853" y="-282" on="1"/>
        <pt x="1020" y="-324" on="1"/>
        <pt x="1020" y="444" on="1"/>
        <pt x="1132" y="444" on="1"/>
        <pt x="1132" y="-471" on="1"/>
      </contour>
      <contour>
        <pt x="1720" y="237" on="1"/>
        <pt x="1720" y="185" on="0"/>
        <pt x="1683" y="91" on="0"/>
        <pt x="1617" y="19" on="0"/>
        <pt x="1528" y="-23" on="0"/>
        <pt x="1476" y="-23" on="1"/>
        <pt x="1423" y="-23" on="0"/>
        <pt x="1334" y="19" on="0"/>
        <pt x="1268" y="91" on="0"/>
        <pt x="1231" y="185" on="0"/>
        <pt x="1231" y="237" on="1"/>
        <pt x="1231" y="308" on="0"/>
        <pt x="1267" y="418" on="0"/>
        <pt x="1321" y="466" on="1"/>
        <pt x="1387" y="373" on="1"/>
        <pt x="1375" y="357" on="0"/>
        <pt x="1359" y="331" on="0"/>
        <pt x="1349" y="302" on="0"/>
        <pt x="1345" y="264" on="0"/>
        <pt x="1345" y="237" on="1"/>
        <pt x="1345" y="210" on="0"/>
        <pt x="1362" y="158" on="0"/>
        <pt x="1396" y="117" on="0"/>
        <pt x="1444" y="91" on="0"/>
        <pt x="1476" y="91" on="1"/>
        <pt x="1507" y="91" on="0"/>
        <pt x="1556" y="117" on="0"/>
        <pt x="1589" y="158" on="0"/>
        <pt x="1606" y="210" on="0"/>
        <pt x="1606" y="237" on="1"/>
        <pt x="1606" y="264" on="0"/>
        <pt x="1602" y="302" on="0"/>
        <pt x="1592" y="331" on="0"/>
        <pt x="1576" y="357" on="0"/>
        <pt x="1564" y="373" on="1"/>
        <pt x="1630" y="466" on="1"/>
        <pt x="1684" y="418" on="0"/>
        <pt x="1720" y="308" on="0"/>
      </contour>
      <contour>
        <pt x="1641" y="793" on="1"/>
        <pt x="1637" y="799" on="0"/>
        <pt x="1624" y="814" on="0"/>
        <pt x="1606" y="828" on="0"/>
        <pt x="1583" y="838" on="0"/>
        <pt x="1569" y="838" on="1"/>
        <pt x="1552" y="838" on="0"/>
        <pt x="1515" y="826" on="0"/>
        <pt x="1483" y="801" on="0"/>
        <pt x="1462" y="763" on="0"/>
        <pt x="1462" y="736" on="1"/>
        <pt x="1462" y="709" on="0"/>
        <pt x="1485" y="668" on="0"/>
        <pt x="1518" y="641" on="0"/>
        <pt x="1554" y="627" on="0"/>
        <pt x="1566" y="627" on="1"/>
        <pt x="1566" y="541" on="1"/>
        <pt x="1531" y="541" on="0"/>
        <pt x="1463" y="571" on="0"/>
        <pt x="1409" y="624" on="0"/>
        <pt x="1375" y="695" on="0"/>
        <pt x="1375" y="736" on="1"/>
        <pt x="1375" y="780" on="0"/>
        <pt x="1408" y="850" on="0"/>
        <pt x="1462" y="899" on="0"/>
        <pt x="1532" y="925" on="0"/>
        <pt x="1569" y="925" on="1"/>
        <pt x="1583" y="925" on="0"/>
        <pt x="1618" y="917" on="0"/>
        <pt x="1654" y="898" on="0"/>
        <pt x="1688" y="867" on="0"/>
        <pt x="1702" y="844" on="1"/>
      </contour>
    </TTGlyph>
    <TTGlyph name="u1001" xMin="57" yMin="-23" xMax="546" yMax="466">
      <contour>
        <pt x="546" y="222" on="1"/>
        <pt x="546" y="174" on="0"/>
        <pt x="511" y="85" on="0"/>
        <pt x="447" y="18" on="0"/>
        <pt x="356" y="-23" on="0"/>
        <pt x="301" y="-23" on="1"/>
        <pt x="265" y="-23" on="0"/>
        <pt x="180" y="5" on="0"/>
        <pt x="107" y="58" on="0"/>
        <pt x="57" y="136" on="0"/>
        <pt x="57" y="186" on="1"/>
        <pt x="117" y="229" on="0"/>
        <pt x="220" y="256" on="0"/>
        <pt x="250" y="256" on="1"/>
        <pt x="268" y="256" on="0"/>
        <pt x="313" y="248" on="0"/>
        <pt x="360" y="231" on="0"/>
        <pt x="406" y="203" on="0"/>
        <pt x="426" y="183" on="1"/>
        <pt x="432" y="199" on="0"/>
        <pt x="432" y="222" on="1"/>
        <pt x="432" y="231" on="0"/>
        <pt x="421" y="273" on="0"/>
        <pt x="393" y="318" on="0"/>
        <pt x="341" y="352" on="0"/>
        <pt x="301" y="352" on="1"/>
        <pt x="266" y="352" on="0"/>
        <pt x="204" y="320" on="0"/>
        <pt x="178" y="283" on="1"/>
        <pt x="79" y="336" on="1"/>
        <pt x="115" y="400" on="0"/>
        <pt x="234" y="466" on="0"/>
        <pt x="301" y="466" on="1"/>
        <pt x="361" y="466" on="0"/>
        <pt x="452" y="420" on="0"/>
        <pt x="514" y="348" on="0"/>
        <pt x="546" y="262" on="0"/>
      </contour>
      <contour>
        <pt x="367" y="108" on="1"/>
        <pt x="348" y="132" on="0"/>
        <pt x="286" y="163" on="0"/>
        <pt x="250" y="163" on="1"/>
        <pt x="219" y="163" on="0"/>
        <pt x="183" y="153" on="1"/>
        <pt x="214" y="115" on="0"/>
        <pt x="280" y="91" on="0"/>
        <pt x="301" y="91" on="1"/>
        <pt x="338" y="91" on="0"/>
      </contour>
    </TTGlyph>
    <TTGlyph name="u1001.med" xMin="-432" yMin="-471" xMax="-56" yMax="-93">
      <contour>
        <pt x="-56" y="-282" on="1"/>
        <pt x="-56" y="-322" on="0"/>
        <pt x="-85" y="-391" on="0"/>
        <pt x="-135" y="-442" on="0"/>
        <pt x="-204" y="-471" on="0"/>
        <pt x="-243" y="-471" on="1"/>
        <pt x="-271" y="-471" on="0"/>
        <pt x="-337" y="-449" on="0"/>
        <pt x="-394" y="-406" on="0"/>
        <pt x="-432" y="-344" on="0"/>
        <pt x="-432" y="-305" on="1"/>
        <pt x="-386" y="-273" on="0"/>
        <pt x="-307" y="-255" on="0"/>
        <pt x="-284" y="-255" on="1"/>
        <pt x="-256" y="-255" on="0"/>
        <pt x="-179" y="-281" on="0"/>
        <pt x="-149" y="-311" on="1"/>
        <pt x="-144" y="-300" on="0"/>
        <pt x="-144" y="-284" on="1"/>
        <pt x="-144" y="-266" on="0"/>
        <pt x="-158" y="-229" on="0"/>
        <pt x="-183" y="-199" on="0"/>
        <pt x="-220" y="-180" on="0"/>
        <pt x="-243" y="-180" on="1"/>
        <pt x="-271" y="-180" on="0"/>
        <pt x="-321" y="-207" on="0"/>
        <pt x="-339" y="-234" on="1"/>
        <pt x="-414" y="-194" on="1"/>
        <pt x="-388" y="-142" on="0"/>
        <pt x="-293" y="-93" on="0"/>
        <pt x="-243" y="-93" on="1"/>
        <pt x="-198" y="-93" on="0"/>
        <pt x="-128" y="-128" on="0"/>
        <pt x="-81" y="-183" on="0"/>
        <pt x="-56" y="-250" on="0"/>
      </contour>
      <contour>
        <pt x="-284" y="-326" on="1"/>
        <pt x="-295" y="-326" on="0"/>
        <pt x="-319" y="-329" on="0"/>
        <pt x="-335" y="-335" on="1"/>
        <pt x="-311" y="-364" on="0"/>
        <pt x="-259" y="-384" on="0"/>
        <pt x="-243" y="-384" on="1"/>
        <pt x="-229" y="-384" on="0"/>
        <pt x="-204" y="-376" on="0"/>
        <pt x="-194" y="-369" on="1"/>
        <pt x="-208" y="-351" on="0"/>
        <pt x="-257" y="-326" on="0"/>
      </contour>
    </TTGlyph>
    <TTGlyph name="u1002" xMin="55" yMin="-23" xMax="546" yMax="466">
      <contour>
        <pt x="546" y="207" on="1"/>
        <pt x="546" y="135" on="0"/>
        <pt x="508" y="24" on="0"/>
        <pt x="454" y="-23" on="1"/>
        <pt x="388" y="70" on="1"/>
        <pt x="400" y="86" on="0"/>
        <pt x="416" y="112" on="0"/>
        <pt x="426" y="141" on="0"/>
        <pt x="430" y="179" on="0"/>
        <pt x="430" y="207" on="1"/>
        <pt x="430" y="233" on="0"/>
        <pt x="413" y="285" on="0"/>
        <pt x="380" y="326" on="0"/>
        <pt x="331" y="352" on="0"/>
        <pt x="300" y="352" on="1"/>
        <pt x="268" y="352" on="0"/>
        <pt x="220" y="326" on="0"/>
        <pt x="186" y="285" on="0"/>
        <pt x="169" y="233" on="0"/>
        <pt x="169" y="207" on="1"/>
        <pt x="169" y="179" on="0"/>
        <pt x="173" y="141" on="0"/>
        <pt x="183" y="112" on="0"/>
        <pt x="199" y="86" on="0"/>
        <pt x="211" y="70" on="1"/>
        <pt x="145" y="-23" on="1"/>
        <pt x="91" y="24" on="0"/>
        <pt x="55" y="135" on="0"/>
        <pt x="55" y="207" on="1"/>
        <pt x="55" y="259" on="0"/>
        <pt x="92" y="353" on="0"/>
        <pt x="158" y="424" on="0"/>
        <pt x="247" y="466" on="0"/>
        <pt x="300" y="466" on="1"/>
        <pt x="345" y="466" on="0"/>
        <pt x="433" y="429" on="0"/>
        <pt x="503" y="362" on="0"/>
        <pt x="546" y="266" on="0"/>
      </contour>
    </TTGlyph>
    <TTGlyph name="u1002.kham" xMin="55" yMin="-23" xMax="546" yMax="466">
      <contour>
        <pt x="546" y="207" on="1"/>
        <pt x="546" y="135" on="0"/>
        <pt x="508" y="24" on="0"/>
        <pt x="454" y="-23" on="1"/>
        <pt x="388" y="70" on="1"/>
        <pt x="400" y="86" on="0"/>
        <pt x="416" y="112" on="0"/>
        <pt x="426" y="141" on="0"/>
        <pt x="430" y="179" on="0"/>
        <pt x="430" y="207" on="1"/>
        <pt x="430" y="233" on="0"/>
        <pt x="413" y="285" on="0"/>
        <pt x="380" y="326" on="0"/>
        <pt x="331" y="352" on="0"/>
        <pt x="300" y="352" on="1"/>
        <pt x="274" y="352" on="0"/>
        <pt x="227" y="331" on="0"/>
        <pt x="191" y="292" on="0"/>
        <pt x="169" y="239" on="0"/>
        <pt x="169" y="207" on="1"/>
        <pt x="169" y="191" on="0"/>
        <pt x="170" y="164" on="0"/>
        <pt x="172" y="153" on="1"/>
        <pt x="181" y="153" on="1"/>
        <pt x="199" y="153" on="0"/>
        <pt x="231" y="139" on="0"/>
        <pt x="256" y="114" on="0"/>
        <pt x="270" y="82" on="0"/>
        <pt x="270" y="64" on="1"/>
        <pt x="270" y="28" on="0"/>
        <pt x="219" y="-23" on="0"/>
        <pt x="181" y="-23" on="1"/>
        <pt x="147" y="-23" on="0"/>
        <pt x="99" y="17" on="0"/>
        <pt x="69" y="82" on="0"/>
        <pt x="55" y="164" on="0"/>
        <pt x="55" y="207" on="1"/>
        <pt x="55" y="258" on="0"/>
        <pt x="92" y="352" on="0"/>
        <pt x="158" y="423" on="0"/>
        <pt x="247" y="466" on="0"/>
        <pt x="300" y="466" on="1"/>
        <pt x="352" y="466" on="0"/>
        <pt x="442" y="424" on="0"/>
        <pt x="508" y="353" on="0"/>
        <pt x="546" y="259" on="0"/>
      </contour>
    </TTGlyph>
    <TTGlyph name="u1002.med" xMin="-434" yMin="-471" xMax="-56" yMax="-93">
      <contour>
        <pt x="-56" y="-294" on="1"/>
        <pt x="-56" y="-348" on="0"/>
        <pt x="-84" y="-435" on="0"/>
        <pt x="-126" y="-471" on="1"/>
        <pt x="-177" y="-398" on="1"/>
        <pt x="-156" y="-373" on="0"/>
        <pt x="-143" y="-326" on="0"/>
        <pt x="-143" y="-294" on="1"/>
        <pt x="-143" y="-273" on="0"/>
        <pt x="-157" y="-233" on="0"/>
        <pt x="-183" y="-200" on="0"/>
        <pt x="-221" y="-180" on="0"/>
        <pt x="-245" y="-180" on="1"/>
        <pt x="-269" y="-180" on="0"/>
        <pt x="-307" y="-200" on="0"/>
        <pt x="-333" y="-233" on="0"/>
        <pt x="-347" y="-273" on="0"/>
        <pt x="-347" y="-294" on="1"/>
        <pt x="-347" y="-326" on="0"/>
        <pt x="-334" y="-373" on="0"/>
        <pt x="-312" y="-398" on="1"/>
        <pt x="-363" y="-471" on="1"/>
        <pt x="-405" y="-435" on="0"/>
        <pt x="-434" y="-348" on="0"/>
        <pt x="-434" y="-294" on="1"/>
        <pt x="-434" y="-254" on="0"/>
        <pt x="-405" y="-181" on="0"/>
        <pt x="-354" y="-125" on="0"/>
        <pt x="-285" y="-93" on="0"/>
        <pt x="-245" y="-93" on="1"/>
        <pt x="-205" y="-93" on="0"/>
        <pt x="-136" y="-125" on="0"/>
        <pt x="-85" y="-181" on="0"/>
        <pt x="-56" y="-254" on="0"/>
      </contour>
    </TTGlyph>
    <TTGlyph name="u1003" xMin="55" yMin="-23" xMax="915" yMax="466">
      <contour>
        <pt x="915" y="222" on="1"/>
        <pt x="915" y="172" on="0"/>
        <pt x="876" y="83" on="0"/>
        <pt x="809" y="16" on="0"/>
        <pt x="720" y="-23" on="0"/>
        <pt x="670" y="-23" on="1"/>
        <pt x="607" y="-23" on="0"/>
        <pt x="513" y="35" on="0"/>
        <pt x="484" y="75" on="1"/>
        <pt x="449" y="27" on="0"/>
        <pt x="349" y="-23" on="0"/>
        <pt x="292" y="-23" on="1"/>
        <pt x="238" y="-23" on="0"/>
        <pt x="150" y="12" on="0"/>
        <pt x="88" y="67" on="0"/>
        <pt x="55" y="134" on="0"/>
        <pt x="55" y="166" on="1"/>
        <pt x="55" y="204" on="0"/>
        <pt x="75" y="252" on="0"/>
        <pt x="106" y="282" on="0"/>
        <pt x="142" y="299" on="0"/>
        <pt x="173" y="312" on="0"/>
        <pt x="193" y="328" on="0"/>
        <pt x="193" y="342" on="1"/>
        <pt x="193" y="355" on="0"/>
        <pt x="179" y="367" on="0"/>
        <pt x="168" y="367" on="1"/>
        <pt x="157" y="367" on="0"/>
        <pt x="142" y="353" on="0"/>
        <pt x="139" y="342" on="1"/>
        <pt x="55" y="391" on="1"/>
        <pt x="63" y="426" on="0"/>
        <pt x="130" y="466" on="0"/>
        <pt x="168" y="466" on="1"/>
        <pt x="190" y="466" on="0"/>
        <pt x="235" y="451" on="0"/>
        <pt x="270" y="421" on="0"/>
        <pt x="292" y="374" on="0"/>
        <pt x="292" y="342" on="1"/>
        <pt x="292" y="314" on="0"/>
        <pt x="274" y="276" on="0"/>
        <pt x="246" y="249" on="0"/>
        <pt x="215" y="229" on="0"/>
        <pt x="187" y="208" on="0"/>
        <pt x="169" y="184" on="0"/>
        <pt x="169" y="166" on="1"/>
        <pt x="169" y="154" on="0"/>
        <pt x="186" y="127" on="0"/>
        <pt x="218" y="105" on="0"/>
        <pt x="263" y="91" on="0"/>
        <pt x="292" y="91" on="1"/>
        <pt x="318" y="91" on="0"/>
        <pt x="365" y="111" on="0"/>
        <pt x="400" y="150" on="0"/>
        <pt x="421" y="205" on="0"/>
        <pt x="421" y="240" on="1"/>
        <pt x="421" y="277" on="0"/>
        <pt x="405" y="349" on="0"/>
        <pt x="381" y="373" on="1"/>
        <pt x="447" y="466" on="1"/>
        <pt x="497" y="429" on="0"/>
        <pt x="537" y="309" on="0"/>
        <pt x="537" y="234" on="1"/>
        <pt x="537" y="212" on="0"/>
        <pt x="559" y="162" on="0"/>
        <pt x="596" y="119" on="0"/>
        <pt x="644" y="91" on="0"/>
        <pt x="670" y="91" on="1"/>
        <pt x="697" y="91" on="0"/>
        <pt x="745" y="112" on="0"/>
        <pt x="780" y="148" on="0"/>
        <pt x="801" y="195" on="0"/>
        <pt x="801" y="222" on="1"/>
        <pt x="801" y="248" on="0"/>
        <pt x="780" y="295" on="0"/>
        <pt x="745" y="331" on="0"/>
        <pt x="697" y="352" on="0"/>
        <pt x="670" y="352" on="1"/>
        <pt x="665" y="352" on="0"/>
        <pt x="650" y="350" on="0"/>
        <pt x="645" y="348" on="1"/>
        <pt x="600" y="453" on="1"/>
        <pt x="612" y="461" on="0"/>
        <pt x="650" y="466" on="0"/>
        <pt x="670" y="466" on="1"/>
        <pt x="720" y="466" on="0"/>
        <pt x="809" y="428" on="0"/>
        <pt x="876" y="362" on="0"/>
        <pt x="915" y="273" on="0"/>
      </contour>
    </TTGlyph>
    <TTGlyph name="u1003.med" xMin="-716" yMin="-471" xMax="-56" yMax="-93">
      <contour>
        <pt x="-56" y="-282" on="1"/>
        <pt x="-56" y="-320" on="0"/>
        <pt x="-85" y="-389" on="0"/>
        <pt x="-136" y="-441" on="0"/>
        <pt x="-204" y="-471" on="0"/>
        <pt x="-242" y="-471" on="1"/>
        <pt x="-293" y="-471" on="0"/>
        <pt x="-364" y="-427" on="0"/>
        <pt x="-386" y="-395" on="1"/>
        <pt x="-413" y="-431" on="0"/>
        <pt x="-490" y="-471" on="0"/>
        <pt x="-533" y="-471" on="1"/>
        <pt x="-575" y="-471" on="0"/>
        <pt x="-643" y="-444" on="0"/>
        <pt x="-690" y="-401" on="0"/>
        <pt x="-716" y="-350" on="0"/>
        <pt x="-716" y="-326" on="1"/>
        <pt x="-716" y="-286" on="0"/>
        <pt x="-683" y="-243" on="0"/>
        <pt x="-644" y="-219" on="0"/>
        <pt x="-611" y="-203" on="0"/>
        <pt x="-611" y="-189" on="1"/>
        <pt x="-611" y="-171" on="0"/>
        <pt x="-630" y="-171" on="1"/>
        <pt x="-637" y="-171" on="0"/>
        <pt x="-649" y="-182" on="0"/>
        <pt x="-651" y="-189" on="1"/>
        <pt x="-716" y="-150" on="1"/>
        <pt x="-712" y="-124" on="0"/>
        <pt x="-659" y="-93" on="0"/>
        <pt x="-630" y="-93" on="1"/>
        <pt x="-613" y="-93" on="0"/>
        <pt x="-578" y="-105" on="0"/>
        <pt x="-550" y="-129" on="0"/>
        <pt x="-533" y="-165" on="0"/>
        <pt x="-533" y="-189" on="1"/>
        <pt x="-533" y="-221" on="0"/>
        <pt x="-563" y="-256" on="0"/>
        <pt x="-599" y="-281" on="0"/>
        <pt x="-629" y="-305" on="0"/>
        <pt x="-629" y="-326" on="1"/>
        <pt x="-629" y="-335" on="0"/>
        <pt x="-615" y="-355" on="0"/>
        <pt x="-590" y="-373" on="0"/>
        <pt x="-554" y="-384" on="0"/>
        <pt x="-533" y="-384" on="1"/>
        <pt x="-514" y="-384" on="0"/>
        <pt x="-479" y="-368" on="0"/>
        <pt x="-451" y="-338" on="0"/>
        <pt x="-434" y="-295" on="0"/>
        <pt x="-434" y="-269" on="1"/>
        <pt x="-434" y="-241" on="0"/>
        <pt x="-447" y="-186" on="0"/>
        <pt x="-467" y="-167" on="1"/>
        <pt x="-414" y="-93" on="1"/>
        <pt x="-382" y="-119" on="0"/>
        <pt x="-345" y="-203" on="0"/>
        <pt x="-345" y="-269" on="1"/>
        <pt x="-345" y="-289" on="0"/>
        <pt x="-327" y="-330" on="0"/>
        <pt x="-299" y="-363" on="0"/>
        <pt x="-262" y="-384" on="0"/>
        <pt x="-242" y="-384" on="1"/>
        <pt x="-221" y="-384" on="0"/>
        <pt x="-185" y="-367" on="0"/>
        <pt x="-158" y="-339" on="0"/>
        <pt x="-143" y="-302" on="0"/>
        <pt x="-143" y="-282" on="1"/>
        <pt x="-143" y="-262" on="0"/>
        <pt x="-158" y="-225" on="0"/>
        <pt x="-185" y="-197" on="0"/>
        <pt x="-221" y="-180" on="0"/>
        <pt x="-242" y="-180" on="1"/>
        <pt x="-246" y="-180" on="0"/>
        <pt x="-258" y="-181" on="0"/>
        <pt x="-263" y="-183" on="1"/>
        <pt x="-297" y="-104" on="1"/>
        <pt x="-286" y="-98" on="0"/>
        <pt x="-258" y="-93" on="0"/>
        <pt x="-242" y="-93" on="1"/>
        <pt x="-204" y="-93" on="0"/>
        <pt x="-136" y="-123" on="0"/>
        <pt x="-85" y="-175" on="0"/>
        <pt x="-56" y="-243" on="0"/>
      </contour>
    </TTGlyph>
    <TTGlyph name="u1004" xMin="55" yMin="-23" xMax="522" yMax="466">
      <contour>
        <pt x="522" y="108" on="1"/>
        <pt x="488" y="47" on="0"/>
        <pt x="367" y="-23" on="0"/>
        <pt x="298" y="-23" on="1"/>
        <pt x="248" y="-23" on="0"/>
        <pt x="160" y="16" on="0"/>
        <pt x="94" y="82" on="0"/>
        <pt x="55" y="171" on="0"/>
        <pt x="55" y="222" on="1"/>
        <pt x="55" y="272" on="0"/>
        <pt x="94" y="361" on="0"/>
        <pt x="160" y="427" on="0"/>
        <pt x="248" y="466" on="0"/>
        <pt x="298" y="466" on="1"/>
        <pt x="329" y="466" on="0"/>
        <pt x="395" y="450" on="0"/>
        <pt x="455" y="417" on="0"/>
        <pt x="506" y="368" on="0"/>
        <pt x="522" y="336" on="1"/>
        <pt x="420" y="283" on="1"/>
        <pt x="396" y="321" on="0"/>
        <pt x="336" y="352" on="0"/>
        <pt x="298" y="352" on="1"/>
        <pt x="272" y="352" on="0"/>
        <pt x="225" y="331" on="0"/>
        <pt x="190" y="295" on="0"/>
        <pt x="169" y="248" on="0"/>
        <pt x="169" y="222" on="1"/>
        <pt x="169" y="195" on="0"/>
        <pt x="190" y="148" on="0"/>
        <pt x="225" y="112" on="0"/>
        <pt x="272" y="91" on="0"/>
        <pt x="298" y="91" on="1"/>
        <pt x="380" y="91" on="0"/>
        <pt x="420" y="160" on="1"/>
        <pt x="522" y="108" on="1"/>
      </contour>
    </TTGlyph>
    <TTGlyph name="u1004.kham" xMin="55" yMin="-23" xMax="522" yMax="466">
      <contour>
        <pt x="522" y="108" on="1"/>
        <pt x="503" y="72" on="0"/>
        <pt x="449" y="22" on="0"/>
        <pt x="388" y="-9" on="0"/>
        <pt x="326" y="-23" on="0"/>
        <pt x="298" y="-23" on="1"/>
        <pt x="248" y="-23" on="0"/>
        <pt x="160" y="16" on="0"/>
        <pt x="94" y="82" on="0"/>
        <pt x="55" y="171" on="0"/>
        <pt x="55" y="222" on="1"/>
        <pt x="55" y="272" on="0"/>
        <pt x="94" y="361" on="0"/>
        <pt x="160" y="427" on="0"/>
        <pt x="248" y="466" on="0"/>
        <pt x="298" y="466" on="1"/>
        <pt x="348" y="466" on="0"/>
        <pt x="427" y="441" on="0"/>
        <pt x="481" y="402" on="0"/>
        <pt x="510" y="353" on="0"/>
        <pt x="510" y="330" on="1"/>
        <pt x="510" y="311" on="0"/>
        <pt x="496" y="277" on="0"/>
        <pt x="471" y="252" on="0"/>
        <pt x="439" y="238" on="0"/>
        <pt x="421" y="238" on="1"/>
        <pt x="404" y="238" on="0"/>
        <pt x="372" y="252" on="0"/>
        <pt x="348" y="277" on="0"/>
        <pt x="333" y="309" on="0"/>
        <pt x="333" y="327" on="1"/>
        <pt x="333" y="336" on="0"/>
        <pt x="336" y="348" on="1"/>
        <pt x="323" y="351" on="0"/>
        <pt x="303" y="352" on="0"/>
        <pt x="298" y="352" on="1"/>
        <pt x="272" y="352" on="0"/>
        <pt x="225" y="331" on="0"/>
        <pt x="190" y="295" on="0"/>
        <pt x="169" y="248" on="0"/>
        <pt x="169" y="222" on="1"/>
        <pt x="169" y="195" on="0"/>
        <pt x="190" y="148" on="0"/>
        <pt x="225" y="112" on="0"/>
        <pt x="272" y="91" on="0"/>
        <pt x="298" y="91" on="1"/>
        <pt x="337" y="91" on="0"/>
        <pt x="400" y="125" on="0"/>
        <pt x="420" y="160" on="1"/>
        <pt x="522" y="108" on="1"/>
      </contour>
    </TTGlyph>
    <TTGlyph name="u1004.kinzi" xMin="-213" yMin="543" xMax="0" yMax="921">
      <contour>
        <pt x="0" y="603" on="1"/>
        <pt x="-17" y="571" on="0"/>
        <pt x="-76" y="543" on="0"/>
        <pt x="-102" y="543" on="1"/>
        <pt x="-125" y="543" on="0"/>
        <pt x="-166" y="561" on="0"/>
        <pt x="-196" y="591" on="0"/>
        <pt x="-213" y="632" on="0"/>
        <pt x="-213" y="655" on="1"/>
        <pt x="-213" y="702" on="0"/>
        <pt x="-180" y="735" on="1"/>
        <pt x="-195" y="749" on="0"/>
        <pt x="-213" y="788" on="0"/>
        <pt x="-213" y="811" on="1"/>
        <pt x="-213" y="837" on="0"/>
        <pt x="-194" y="878" on="0"/>
        <pt x="-162" y="906" on="0"/>
        <pt x="-121" y="921" on="0"/>
        <pt x="-99" y="921" on="1"/>
        <pt x="-70" y="921" on="0"/>
        <pt x="-29" y="896" on="0"/>
        <pt x="-18" y="879" on="1"/>
        <pt x="-74" y="831" on="1"/>
        <pt x="-78" y="837" on="0"/>
        <pt x="-94" y="848" on="0"/>
        <pt x="-102" y="848" on="1"/>
        <pt x="-117" y="848" on="0"/>
        <pt x="-140" y="828" on="0"/>
        <pt x="-140" y="811" on="1"/>
        <pt x="-140" y="796" on="0"/>
        <pt x="-119" y="771" on="0"/>
        <pt x="-102" y="771" on="1"/>
        <pt x="-91" y="771" on="0"/>
        <pt x="-63" y="763" on="0"/>
        <pt x="-35" y="748" on="0"/>
        <pt x="-9" y="724" on="0"/>
        <pt x="0" y="708" on="1"/>
        <pt x="-60" y="676" on="1"/>
        <pt x="-68" y="689" on="0"/>
        <pt x="-87" y="697" on="0"/>
        <pt x="-98" y="697" on="1"/>
        <pt x="-112" y="697" on="0"/>
        <pt x="-138" y="677" on="0"/>
        <pt x="-138" y="656" on="1"/>
        <pt x="-138" y="640" on="0"/>
        <pt x="-115" y="616" on="0"/>
        <pt x="-98" y="616" on="1"/>
        <pt x="-87" y="616" on="0"/>
        <pt x="-69" y="625" on="0"/>
        <pt x="-60" y="639" on="1"/>
        <pt x="0" y="603" on="1"/>
      </contour>
    </TTGlyph>
    <TTGlyph name="u1004.kinzi_u102D" xMin="-620" yMin="543" xMax="0" yMax="922">
      <contour>
        <pt x="0" y="733" on="1"/>
        <pt x="0" y="694" on="0"/>
        <pt x="-28" y="626" on="0"/>
        <pt x="-78" y="574" on="0"/>
        <pt x="-144" y="544" on="0"/>
        <pt x="-182" y="544" on="1"/>
        <pt x="-221" y="544" on="0"/>
        <pt x="-288" y="574" on="0"/>
        <pt x="-339" y="626" on="0"/>
        <pt x="-368" y="694" on="0"/>
        <pt x="-368" y="733" on="1"/>
        <pt x="-368" y="771" on="0"/>
        <pt x="-339" y="840" on="0"/>
        <pt x="-289" y="892" on="0"/>
        <pt x="-223" y="922" on="0"/>
        <pt x="-185" y="922" on="1"/>
        <pt x="-146" y="922" on="0"/>
        <pt x="-78" y="892" on="0"/>
        <pt x="-29" y="840" on="0"/>
        <pt x="0" y="771" on="0"/>
      </contour>
      <contour>
        <pt x="-87" y="733" on="1"/>
        <pt x="-87" y="753" on="0"/>
        <pt x="-102" y="790" on="0"/>
        <pt x="-127" y="818" on="0"/>
        <pt x="-162" y="835" on="0"/>
        <pt x="-182" y="835" on="1"/>
        <pt x="-203" y="835" on="0"/>
        <pt x="-239" y="818" on="0"/>
        <pt x="-266" y="790" on="0"/>
        <pt x="-281" y="753" on="0"/>
        <pt x="-281" y="733" on="1"/>
        <pt x="-281" y="713" on="0"/>
        <pt x="-266" y="676" on="0"/>
        <pt x="-239" y="648" on="0"/>
        <pt x="-205" y="631" on="0"/>
        <pt x="-185" y="631" on="1"/>
        <pt x="-164" y="631" on="0"/>
        <pt x="-128" y="648" on="0"/>
        <pt x="-102" y="676" on="0"/>
        <pt x="-87" y="713" on="0"/>
      </contour>
      <contour>
        <pt x="-407" y="603" on="1"/>
        <pt x="-424" y="571" on="0"/>
        <pt x="-483" y="543" on="0"/>
        <pt x="-509" y="543" on="1"/>
        <pt x="-532" y="543" on="0"/>
        <pt x="-573" y="561" on="0"/>
        <pt x="-603" y="591" on="0"/>
        <pt x="-620" y="632" on="0"/>
        <pt x="-620" y="655" on="1"/>
        <pt x="-620" y="702" on="0"/>
        <pt x="-587" y="735" on="1"/>
        <pt x="-602" y="749" on="0"/>
        <pt x="-620" y="788" on="0"/>
        <pt x="-620" y="811" on="1"/>
        <pt x="-620" y="838" on="0"/>
        <pt x="-601" y="879" on="0"/>
        <pt x="-569" y="907" on="0"/>
        <pt x="-528" y="922" on="0"/>
        <pt x="-506" y="922" on="1"/>
        <pt x="-477" y="922" on="0"/>
        <pt x="-436" y="896" on="0"/>
        <pt x="-425" y="879" on="1"/>
        <pt x="-481" y="831" on="1"/>
        <pt x="-485" y="837" on="0"/>
        <pt x="-501" y="847" on="0"/>
        <pt x="-509" y="847" on="1"/>
        <pt x="-524" y="847" on="0"/>
        <pt x="-547" y="827" on="0"/>
        <pt x="-547" y="810" on="1"/>
        <pt x="-547" y="795" on="0"/>
        <pt x="-526" y="771" on="0"/>
        <pt x="-509" y="771" on="1"/>
        <pt x="-498" y="771" on="0"/>
        <pt x="-470" y="763" on="0"/>
        <pt x="-442" y="748" on="0"/>
        <pt x="-416" y="724" on="0"/>
        <pt x="-407" y="708" on="1"/>
        <pt x="-467" y="676" on="1"/>
        <pt x="-475" y="689" on="0"/>
        <pt x="-494" y="697" on="0"/>
        <pt x="-505" y="697" on="1"/>
        <pt x="-519" y="697" on="0"/>
        <pt x="-545" y="677" on="0"/>
        <pt x="-545" y="656" on="1"/>
        <pt x="-545" y="640" on="0"/>
        <pt x="-522" y="616" on="0"/>
        <pt x="-505" y="616" on="1"/>
        <pt x="-494" y="616" on="0"/>
        <pt x="-476" y="625" on="0"/>
        <pt x="-467" y="639" on="1"/>
      </contour>
    </TTGlyph>
    <TTGlyph name="u1004.kinzi_u102D_u1036" xMin="-856" yMin="544" xMax="0" yMax="922">
      <contour>
        <pt x="-236" y="733" on="1"/>
        <pt x="-236" y="694" on="0"/>
        <pt x="-264" y="626" on="0"/>
        <pt x="-314" y="574" on="0"/>
        <pt x="-380" y="544" on="0"/>
        <pt x="-418" y="544" on="1"/>
        <pt x="-457" y="544" on="0"/>
        <pt x="-524" y="574" on="0"/>
        <pt x="-575" y="626" on="0"/>
        <pt x="-604" y="694" on="0"/>
        <pt x="-604" y="733" on="1"/>
        <pt x="-604" y="771" on="0"/>
        <pt x="-575" y="840" on="0"/>
        <pt x="-525" y="892" on="0"/>
        <pt x="-459" y="922" on="0"/>
        <pt x="-421" y="922" on="1"/>
        <pt x="-382" y="922" on="0"/>
        <pt x="-314" y="892" on="0"/>
        <pt x="-265" y="840" on="0"/>
        <pt x="-236" y="771" on="0"/>
      </contour>
      <contour>
        <pt x="-323" y="733" on="1"/>
        <pt x="-323" y="753" on="0"/>
        <pt x="-338" y="790" on="0"/>
        <pt x="-363" y="818" on="0"/>
        <pt x="-398" y="835" on="0"/>
        <pt x="-418" y="835" on="1"/>
        <pt x="-439" y="835" on="0"/>
        <pt x="-475" y="818" on="0"/>
        <pt x="-502" y="790" on="0"/>
        <pt x="-517" y="753" on="0"/>
        <pt x="-517" y="733" on="1"/>
        <pt x="-517" y="713" on="0"/>
        <pt x="-502" y="676" on="0"/>
        <pt x="-475" y="648" on="0"/>
        <pt x="-441" y="631" on="0"/>
        <pt x="-421" y="631" on="1"/>
        <pt x="-400" y="631" on="0"/>
        <pt x="-364" y="648" on="0"/>
        <pt x="-338" y="676" on="0"/>
        <pt x="-323" y="713" on="0"/>
      </contour>
      <contour>
        <pt x="0" y="654" on="1"/>
        <pt x="0" y="631" on="0"/>
        <pt x="-18" y="591" on="0"/>
        <pt x="-48" y="561" on="0"/>
        <pt x="-89" y="544" on="0"/>
        <pt x="-111" y="544" on="1"/>
        <pt x="-133" y="544" on="0"/>
        <pt x="-173" y="561" on="0"/>
        <pt x="-204" y="591" on="0"/>
        <pt x="-222" y="631" on="0"/>
        <pt x="-222" y="654" on="1"/>
        <pt x="-222" y="676" on="0"/>
        <pt x="-204" y="716" on="0"/>
        <pt x="-173" y="746" on="0"/>
        <pt x="-133" y="763" on="0"/>
        <pt x="-111" y="763" on="1"/>
        <pt x="-89" y="763" on="0"/>
        <pt x="-48" y="746" on="0"/>
        <pt x="-18" y="716" on="0"/>
        <pt x="0" y="676" on="0"/>
      </contour>
      <contour>
        <pt x="-66" y="654" on="1"/>
        <pt x="-66" y="670" on="0"/>
        <pt x="-92" y="696" on="0"/>
        <pt x="-111" y="696" on="1"/>
        <pt x="-131" y="696" on="0"/>
        <pt x="-155" y="670" on="0"/>
        <pt x="-155" y="654" on="1"/>
        <pt x="-155" y="638" on="0"/>
        <pt x="-131" y="607" on="0"/>
        <pt x="-111" y="607" on="1"/>
        <pt x="-92" y="607" on="0"/>
        <pt x="-66" y="636" on="0"/>
      </contour>
      <contour>
        <pt x="-643" y="604" on="1"/>
        <pt x="-660" y="572" on="0"/>
        <pt x="-719" y="544" on="0"/>
        <pt x="-745" y="544" on="1"/>
        <pt x="-768" y="544" on="0"/>
        <pt x="-809" y="562" on="0"/>
        <pt x="-839" y="592" on="0"/>
        <pt x="-856" y="633" on="0"/>
        <pt x="-856" y="656" on="1"/>
        <pt x="-856" y="703" on="0"/>
        <pt x="-823" y="736" on="1"/>
        <pt x="-838" y="750" on="0"/>
        <pt x="-856" y="789" on="0"/>
        <pt x="-856" y="812" on="1"/>
        <pt x="-856" y="838" on="0"/>
        <pt x="-837" y="879" on="0"/>
        <pt x="-805" y="907" on="0"/>
        <pt x="-764" y="922" on="0"/>
        <pt x="-742" y="922" on="1"/>
        <pt x="-713" y="922" on="0"/>
        <pt x="-672" y="897" on="0"/>
        <pt x="-661" y="880" on="1"/>
        <pt x="-717" y="832" on="1"/>
        <pt x="-721" y="838" on="0"/>
        <pt x="-737" y="849" on="0"/>
        <pt x="-745" y="849" on="1"/>
        <pt x="-760" y="849" on="0"/>
        <pt x="-783" y="829" on="0"/>
        <pt x="-783" y="812" on="1"/>
        <pt x="-783" y="797" on="0"/>
        <pt x="-762" y="772" on="0"/>
        <pt x="-745" y="772" on="1"/>
        <pt x="-734" y="772" on="0"/>
        <pt x="-706" y="764" on="0"/>
        <pt x="-678" y="749" on="0"/>
        <pt x="-652" y="725" on="0"/>
        <pt x="-643" y="709" on="1"/>
        <pt x="-703" y="677" on="1"/>
        <pt x="-711" y="690" on="0"/>
        <pt x="-730" y="698" on="0"/>
        <pt x="-741" y="698" on="1"/>
        <pt x="-755" y="698" on="0"/>
        <pt x="-781" y="678" on="0"/>
        <pt x="-781" y="657" on="1"/>
        <pt x="-781" y="641" on="0"/>
        <pt x="-758" y="617" on="0"/>
        <pt x="-741" y="617" on="1"/>
        <pt x="-730" y="617" on="0"/>
        <pt x="-712" y="626" on="0"/>
        <pt x="-703" y="640" on="1"/>
      </contour>
    </TTGlyph>
    <TTGlyph name="u1004.kinzi_u102E" xMin="-620" yMin="544" xMax="0" yMax="924">
      <contour>
        <pt x="0" y="735" on="1"/>
        <pt x="0" y="696" on="0"/>
        <pt x="-28" y="627" on="0"/>
        <pt x="-78" y="576" on="0"/>
        <pt x="-144" y="546" on="0"/>
        <pt x="-182" y="546" on="1"/>
        <pt x="-221" y="546" on="0"/>
        <pt x="-288" y="576" on="0"/>
        <pt x="-339" y="627" on="0"/>
        <pt x="-368" y="696" on="0"/>
        <pt x="-368" y="735" on="1"/>
        <pt x="-368" y="773" on="0"/>
        <pt x="-339" y="842" on="0"/>
        <pt x="-289" y="894" on="0"/>
        <pt x="-223" y="924" on="0"/>
        <pt x="-185" y="924" on="1"/>
        <pt x="-146" y="924" on="0"/>
        <pt x="-78" y="894" on="0"/>
        <pt x="-29" y="842" on="0"/>
        <pt x="0" y="773" on="0"/>
      </contour>
      <contour>
        <pt x="-86" y="742" on="1"/>
        <pt x="-87" y="742" on="0"/>
        <pt x="-87" y="743" on="1"/>
        <pt x="-87" y="745" on="1"/>
        <pt x="-87" y="748" on="1"/>
        <pt x="-89" y="765" on="0"/>
        <pt x="-105" y="797" on="0"/>
        <pt x="-131" y="822" on="0"/>
        <pt x="-163" y="837" on="0"/>
        <pt x="-182" y="837" on="1"/>
        <pt x="-201" y="837" on="0"/>
        <pt x="-235" y="822" on="0"/>
        <pt x="-262" y="796" on="0"/>
        <pt x="-280" y="763" on="0"/>
        <pt x="-281" y="745" on="1"/>
        <pt x="-281" y="741" on="1"/>
        <pt x="-255" y="758" on="0"/>
        <pt x="-205" y="769" on="0"/>
        <pt x="-182" y="769" on="1"/>
        <pt x="-162" y="769" on="0"/>
        <pt x="-111" y="757" on="0"/>
      </contour>
      <contour>
        <pt x="-107" y="673" on="1"/>
        <pt x="-123" y="684" on="0"/>
        <pt x="-160" y="699" on="0"/>
        <pt x="-182" y="699" on="1"/>
        <pt x="-203" y="699" on="0"/>
        <pt x="-243" y="683" on="0"/>
        <pt x="-260" y="672" on="1"/>
        <pt x="-246" y="654" on="0"/>
        <pt x="-208" y="633" on="0"/>
        <pt x="-185" y="633" on="1"/>
        <pt x="-161" y="633" on="0"/>
        <pt x="-121" y="655" on="0"/>
      </contour>
      <contour>
        <pt x="-407" y="604" on="1"/>
        <pt x="-424" y="572" on="0"/>
        <pt x="-483" y="544" on="0"/>
        <pt x="-509" y="544" on="1"/>
        <pt x="-532" y="544" on="0"/>
        <pt x="-573" y="562" on="0"/>
        <pt x="-603" y="592" on="0"/>
        <pt x="-620" y="633" on="0"/>
        <pt x="-620" y="656" on="1"/>
        <pt x="-620" y="703" on="0"/>
        <pt x="-587" y="736" on="1"/>
        <pt x="-602" y="750" on="0"/>
        <pt x="-620" y="789" on="0"/>
        <pt x="-620" y="812" on="1"/>
        <pt x="-620" y="838" on="0"/>
        <pt x="-601" y="879" on="0"/>
        <pt x="-569" y="907" on="0"/>
        <pt x="-528" y="922" on="0"/>
        <pt x="-506" y="922" on="1"/>
        <pt x="-477" y="922" on="0"/>
        <pt x="-436" y="897" on="0"/>
        <pt x="-425" y="880" on="1"/>
        <pt x="-481" y="832" on="1"/>
        <pt x="-485" y="838" on="0"/>
        <pt x="-501" y="849" on="0"/>
        <pt x="-509" y="849" on="1"/>
        <pt x="-524" y="849" on="0"/>
        <pt x="-547" y="829" on="0"/>
        <pt x="-547" y="812" on="1"/>
        <pt x="-547" y="797" on="0"/>
        <pt x="-526" y="772" on="0"/>
        <pt x="-509" y="772" on="1"/>
        <pt x="-498" y="772" on="0"/>
        <pt x="-470" y="764" on="0"/>
        <pt x="-442" y="749" on="0"/>
        <pt x="-416" y="725" on="0"/>
        <pt x="-407" y="709" on="1"/>
        <pt x="-467" y="677" on="1"/>
        <pt x="-475" y="690" on="0"/>
        <pt x="-494" y="698" on="0"/>
        <pt x="-505" y="698" on="1"/>
        <pt x="-519" y="698" on="0"/>
        <pt x="-545" y="678" on="0"/>
        <pt x="-545" y="657" on="1"/>
        <pt x="-545" y="641" on="0"/>
        <pt x="-522" y="617" on="0"/>
        <pt x="-505" y="617" on="1"/>
        <pt x="-494" y="617" on="0"/>
        <pt x="-476" y="626" on="0"/>
        <pt x="-467" y="640" on="1"/>
      </contour>
    </TTGlyph>
    <TTGlyph name="u1004.kinzi_u1032" xMin="-620" yMin="544" xMax="0" yMax="922">
      <contour>
        <pt x="-54" y="548" on="1"/>
        <pt x="-360" y="791" on="1"/>
        <pt x="-309" y="861" on="1"/>
        <pt x="0" y="617" on="1"/>
      </contour>
      <contour>
        <pt x="-407" y="604" on="1"/>
        <pt x="-424" y="572" on="0"/>
        <pt x="-483" y="544" on="0"/>
        <pt x="-509" y="544" on="1"/>
        <pt x="-532" y="544" on="0"/>
        <pt x="-573" y="562" on="0"/>
        <pt x="-603" y="592" on="0"/>
        <pt x="-620" y="633" on="0"/>
        <pt x="-620" y="656" on="1"/>
        <pt x="-620" y="703" on="0"/>
        <pt x="-587" y="736" on="1"/>
        <pt x="-602" y="750" on="0"/>
        <pt x="-620" y="789" on="0"/>
        <pt x="-620" y="812" on="1"/>
        <pt x="-620" y="838" on="0"/>
        <pt x="-601" y="879" on="0"/>
        <pt x="-569" y="907" on="0"/>
        <pt x="-528" y="922" on="0"/>
        <pt x="-506" y="922" on="1"/>
        <pt x="-477" y="922" on="0"/>
        <pt x="-436" y="897" on="0"/>
        <pt x="-425" y="880" on="1"/>
        <pt x="-481" y="832" on="1"/>
        <pt x="-485" y="838" on="0"/>
        <pt x="-501" y="849" on="0"/>
        <pt x="-509" y="849" on="1"/>
        <pt x="-524" y="849" on="0"/>
        <pt x="-547" y="829" on="0"/>
        <pt x="-547" y="812" on="1"/>
        <pt x="-547" y="797" on="0"/>
        <pt x="-526" y="772" on="0"/>
        <pt x="-509" y="772" on="1"/>
        <pt x="-498" y="772" on="0"/>
        <pt x="-470" y="764" on="0"/>
        <pt x="-442" y="749" on="0"/>
        <pt x="-416" y="725" on="0"/>
        <pt x="-407" y="709" on="1"/>
        <pt x="-467" y="677" on="1"/>
        <pt x="-475" y="690" on="0"/>
        <pt x="-494" y="698" on="0"/>
        <pt x="-505" y="698" on="1"/>
        <pt x="-519" y="698" on="0"/>
        <pt x="-545" y="678" on="0"/>
        <pt x="-545" y="657" on="1"/>
        <pt x="-545" y="641" on="0"/>
        <pt x="-522" y="617" on="0"/>
        <pt x="-505" y="617" on="1"/>
        <pt x="-494" y="617" on="0"/>
        <pt x="-476" y="626" on="0"/>
        <pt x="-467" y="640" on="1"/>
      </contour>
    </TTGlyph>
    <TTGlyph name="u1004.kinzi_u1033" xMin="-620" yMin="544" xMax="0" yMax="924">
      <contour>
        <pt x="0" y="735" on="1"/>
        <pt x="0" y="696" on="0"/>
        <pt x="-28" y="627" on="0"/>
        <pt x="-78" y="576" on="0"/>
        <pt x="-144" y="546" on="0"/>
        <pt x="-182" y="546" on="1"/>
        <pt x="-221" y="546" on="0"/>
        <pt x="-288" y="576" on="0"/>
        <pt x="-339" y="627" on="0"/>
        <pt x="-368" y="696" on="0"/>
        <pt x="-368" y="735" on="1"/>
        <pt x="-368" y="773" on="0"/>
        <pt x="-339" y="842" on="0"/>
        <pt x="-289" y="894" on="0"/>
        <pt x="-223" y="924" on="0"/>
        <pt x="-185" y="924" on="1"/>
        <pt x="-146" y="924" on="0"/>
        <pt x="-78" y="894" on="0"/>
        <pt x="-29" y="842" on="0"/>
        <pt x="0" y="773" on="0"/>
      </contour>
      <contour>
        <pt x="-87" y="735" on="1"/>
        <pt x="-87" y="755" on="0"/>
        <pt x="-102" y="792" on="0"/>
        <pt x="-127" y="820" on="0"/>
        <pt x="-162" y="837" on="0"/>
        <pt x="-182" y="837" on="1"/>
        <pt x="-203" y="837" on="0"/>
        <pt x="-239" y="820" on="0"/>
        <pt x="-266" y="792" on="0"/>
        <pt x="-281" y="755" on="0"/>
        <pt x="-281" y="735" on="1"/>
        <pt x="-281" y="715" on="0"/>
        <pt x="-266" y="678" on="0"/>
        <pt x="-239" y="650" on="0"/>
        <pt x="-205" y="633" on="0"/>
        <pt x="-185" y="633" on="1"/>
        <pt x="-164" y="633" on="0"/>
        <pt x="-128" y="650" on="0"/>
        <pt x="-102" y="678" on="0"/>
        <pt x="-87" y="715" on="0"/>
      </contour>
      <contour>
        <pt x="-133" y="735" on="1"/>
        <pt x="-133" y="715" on="0"/>
        <pt x="-161" y="683" on="0"/>
        <pt x="-182" y="683" on="1"/>
        <pt x="-203" y="683" on="0"/>
        <pt x="-232" y="715" on="0"/>
        <pt x="-232" y="735" on="1"/>
        <pt x="-232" y="755" on="0"/>
        <pt x="-203" y="788" on="0"/>
        <pt x="-182" y="788" on="1"/>
        <pt x="-161" y="788" on="0"/>
        <pt x="-133" y="755" on="0"/>
      </contour>
      <contour>
        <pt x="-182" y="736" on="1"/>
        <pt x="-183" y="735" on="1"/>
        <pt x="-182" y="734" on="1"/>
        <pt x="-181" y="735" on="1"/>
      </contour>
      <contour>
        <pt x="-407" y="604" on="1"/>
        <pt x="-424" y="572" on="0"/>
        <pt x="-483" y="544" on="0"/>
        <pt x="-509" y="544" on="1"/>
        <pt x="-532" y="544" on="0"/>
        <pt x="-573" y="562" on="0"/>
        <pt x="-603" y="592" on="0"/>
        <pt x="-620" y="633" on="0"/>
        <pt x="-620" y="656" on="1"/>
        <pt x="-620" y="703" on="0"/>
        <pt x="-587" y="736" on="1"/>
        <pt x="-602" y="750" on="0"/>
        <pt x="-620" y="789" on="0"/>
        <pt x="-620" y="812" on="1"/>
        <pt x="-620" y="838" on="0"/>
        <pt x="-601" y="879" on="0"/>
        <pt x="-569" y="907" on="0"/>
        <pt x="-528" y="922" on="0"/>
        <pt x="-506" y="922" on="1"/>
        <pt x="-477" y="922" on="0"/>
        <pt x="-436" y="897" on="0"/>
        <pt x="-425" y="880" on="1"/>
        <pt x="-481" y="832" on="1"/>
        <pt x="-485" y="838" on="0"/>
        <pt x="-501" y="849" on="0"/>
        <pt x="-509" y="849" on="1"/>
        <pt x="-524" y="849" on="0"/>
        <pt x="-547" y="829" on="0"/>
        <pt x="-547" y="812" on="1"/>
        <pt x="-547" y="797" on="0"/>
        <pt x="-526" y="772" on="0"/>
        <pt x="-509" y="772" on="1"/>
        <pt x="-498" y="772" on="0"/>
        <pt x="-470" y="764" on="0"/>
        <pt x="-442" y="749" on="0"/>
        <pt x="-416" y="725" on="0"/>
        <pt x="-407" y="709" on="1"/>
        <pt x="-467" y="677" on="1"/>
        <pt x="-475" y="690" on="0"/>
        <pt x="-494" y="698" on="0"/>
        <pt x="-505" y="698" on="1"/>
        <pt x="-519" y="698" on="0"/>
        <pt x="-545" y="678" on="0"/>
        <pt x="-545" y="657" on="1"/>
        <pt x="-545" y="641" on="0"/>
        <pt x="-522" y="617" on="0"/>
        <pt x="-505" y="617" on="1"/>
        <pt x="-494" y="617" on="0"/>
        <pt x="-476" y="626" on="0"/>
        <pt x="-467" y="640" on="1"/>
      </contour>
    </TTGlyph>
    <TTGlyph name="u1004.kinzi_u1036" xMin="-450" yMin="545" xMax="0" yMax="923">
      <contour>
        <pt x="0" y="683" on="1"/>
        <pt x="0" y="660" on="0"/>
        <pt x="-18" y="620" on="0"/>
        <pt x="-48" y="590" on="0"/>
        <pt x="-89" y="573" on="0"/>
        <pt x="-111" y="573" on="1"/>
        <pt x="-133" y="573" on="0"/>
        <pt x="-173" y="590" on="0"/>
        <pt x="-204" y="620" on="0"/>
        <pt x="-222" y="660" on="0"/>
        <pt x="-222" y="683" on="1"/>
        <pt x="-222" y="705" on="0"/>
        <pt x="-204" y="745" on="0"/>
        <pt x="-173" y="775" on="0"/>
        <pt x="-133" y="792" on="0"/>
        <pt x="-111" y="792" on="1"/>
        <pt x="-89" y="792" on="0"/>
        <pt x="-48" y="775" on="0"/>
        <pt x="-18" y="745" on="0"/>
        <pt x="0" y="705" on="0"/>
      </contour>
      <contour>
        <pt x="-66" y="683" on="1"/>
        <pt x="-66" y="699" on="0"/>
        <pt x="-92" y="725" on="0"/>
        <pt x="-111" y="725" on="1"/>
        <pt x="-131" y="725" on="0"/>
        <pt x="-155" y="699" on="0"/>
        <pt x="-155" y="683" on="1"/>
        <pt x="-155" y="667" on="0"/>
        <pt x="-131" y="636" on="0"/>
        <pt x="-111" y="636" on="1"/>
        <pt x="-92" y="636" on="0"/>
        <pt x="-66" y="665" on="0"/>
      </contour>
      <contour>
        <pt x="-237" y="605" on="1"/>
        <pt x="-254" y="573" on="0"/>
        <pt x="-313" y="545" on="0"/>
        <pt x="-339" y="545" on="1"/>
        <pt x="-362" y="545" on="0"/>
        <pt x="-403" y="563" on="0"/>
        <pt x="-433" y="593" on="0"/>
        <pt x="-450" y="634" on="0"/>
        <pt x="-450" y="657" on="1"/>
        <pt x="-450" y="704" on="0"/>
        <pt x="-417" y="737" on="1"/>
        <pt x="-432" y="751" on="0"/>
        <pt x="-450" y="790" on="0"/>
        <pt x="-450" y="813" on="1"/>
        <pt x="-450" y="839" on="0"/>
        <pt x="-431" y="880" on="0"/>
        <pt x="-399" y="908" on="0"/>
        <pt x="-358" y="923" on="0"/>
        <pt x="-336" y="923" on="1"/>
        <pt x="-307" y="923" on="0"/>
        <pt x="-266" y="898" on="0"/>
        <pt x="-255" y="881" on="1"/>
        <pt x="-311" y="833" on="1"/>
        <pt x="-315" y="839" on="0"/>
        <pt x="-331" y="850" on="0"/>
        <pt x="-339" y="850" on="1"/>
        <pt x="-354" y="850" on="0"/>
        <pt x="-377" y="830" on="0"/>
        <pt x="-377" y="813" on="1"/>
        <pt x="-377" y="798" on="0"/>
        <pt x="-356" y="773" on="0"/>
        <pt x="-339" y="773" on="1"/>
        <pt x="-328" y="773" on="0"/>
        <pt x="-300" y="765" on="0"/>
        <pt x="-272" y="750" on="0"/>
        <pt x="-246" y="726" on="0"/>
        <pt x="-237" y="710" on="1"/>
        <pt x="-297" y="678" on="1"/>
        <pt x="-305" y="691" on="0"/>
        <pt x="-324" y="699" on="0"/>
        <pt x="-335" y="699" on="1"/>
        <pt x="-349" y="699" on="0"/>
        <pt x="-375" y="679" on="0"/>
        <pt x="-375" y="658" on="1"/>
        <pt x="-375" y="642" on="0"/>
        <pt x="-352" y="618" on="0"/>
        <pt x="-335" y="618" on="1"/>
        <pt x="-324" y="618" on="0"/>
        <pt x="-306" y="627" on="0"/>
        <pt x="-297" y="641" on="1"/>
      </contour>
    </TTGlyph>
    <TTGlyph name="u1004.kinzi_u103A" xMin="-620" yMin="540" xMax="0" yMax="925">
      <contour>
        <pt x="-62" y="793" on="1"/>
        <pt x="-66" y="799" on="0"/>
        <pt x="-79" y="814" on="0"/>
        <pt x="-97" y="828" on="0"/>
        <pt x="-120" y="838" on="0"/>
        <pt x="-134" y="838" on="1"/>
        <pt x="-150" y="838" on="0"/>
        <pt x="-187" y="826" on="0"/>
        <pt x="-218" y="801" on="0"/>
        <pt x="-239" y="763" on="0"/>
        <pt x="-239" y="736" on="1"/>
        <pt x="-239" y="709" on="0"/>
        <pt x="-216" y="668" on="0"/>
        <pt x="-183" y="641" on="0"/>
        <pt x="-149" y="627" on="0"/>
        <pt x="-137" y="627" on="1"/>
        <pt x="-137" y="540" on="1"/>
        <pt x="-172" y="540" on="0"/>
        <pt x="-240" y="571" on="0"/>
        <pt x="-293" y="624" on="0"/>
        <pt x="-326" y="695" on="0"/>
        <pt x="-326" y="736" on="1"/>
        <pt x="-326" y="780" on="0"/>
        <pt x="-293" y="850" on="0"/>
        <pt x="-239" y="899" on="0"/>
        <pt x="-170" y="925" on="0"/>
        <pt x="-134" y="925" on="1"/>
        <pt x="-119" y="925" on="0"/>
        <pt x="-84" y="917" on="0"/>
        <pt x="-48" y="898" on="0"/>
        <pt x="-14" y="867" on="0"/>
        <pt x="0" y="844" on="1"/>
      </contour>
      <contour>
        <pt x="-407" y="604" on="1"/>
        <pt x="-424" y="572" on="0"/>
        <pt x="-483" y="544" on="0"/>
        <pt x="-509" y="544" on="1"/>
        <pt x="-532" y="544" on="0"/>
        <pt x="-573" y="562" on="0"/>
        <pt x="-603" y="592" on="0"/>
        <pt x="-620" y="633" on="0"/>
        <pt x="-620" y="656" on="1"/>
        <pt x="-620" y="703" on="0"/>
        <pt x="-587" y="736" on="1"/>
        <pt x="-602" y="750" on="0"/>
        <pt x="-620" y="789" on="0"/>
        <pt x="-620" y="812" on="1"/>
        <pt x="-620" y="838" on="0"/>
        <pt x="-601" y="879" on="0"/>
        <pt x="-569" y="907" on="0"/>
        <pt x="-528" y="922" on="0"/>
        <pt x="-506" y="922" on="1"/>
        <pt x="-477" y="922" on="0"/>
        <pt x="-436" y="897" on="0"/>
        <pt x="-425" y="880" on="1"/>
        <pt x="-481" y="832" on="1"/>
        <pt x="-485" y="838" on="0"/>
        <pt x="-501" y="849" on="0"/>
        <pt x="-509" y="849" on="1"/>
        <pt x="-524" y="849" on="0"/>
        <pt x="-547" y="829" on="0"/>
        <pt x="-547" y="812" on="1"/>
        <pt x="-547" y="797" on="0"/>
        <pt x="-526" y="772" on="0"/>
        <pt x="-509" y="772" on="1"/>
        <pt x="-498" y="772" on="0"/>
        <pt x="-470" y="764" on="0"/>
        <pt x="-442" y="749" on="0"/>
        <pt x="-416" y="725" on="0"/>
        <pt x="-407" y="709" on="1"/>
        <pt x="-467" y="677" on="1"/>
        <pt x="-475" y="690" on="0"/>
        <pt x="-494" y="698" on="0"/>
        <pt x="-505" y="698" on="1"/>
        <pt x="-519" y="698" on="0"/>
        <pt x="-545" y="678" on="0"/>
        <pt x="-545" y="657" on="1"/>
        <pt x="-545" y="641" on="0"/>
        <pt x="-522" y="617" on="0"/>
        <pt x="-505" y="617" on="1"/>
        <pt x="-494" y="617" on="0"/>
        <pt x="-476" y="626" on="0"/>
        <pt x="-467" y="640" on="1"/>
      </contour>
    </TTGlyph>
    <TTGlyph name="u1004.med" xMin="-420" yMin="-471" xMax="-55" yMax="-93">
      <contour>
        <pt x="-55" y="-378" on="1"/>
        <pt x="-89" y="-431" on="0"/>
        <pt x="-173" y="-471" on="0"/>
        <pt x="-231" y="-471" on="1"/>
        <pt x="-270" y="-471" on="0"/>
        <pt x="-338" y="-441" on="0"/>
        <pt x="-390" y="-390" on="0"/>
        <pt x="-420" y="-321" on="0"/>
        <pt x="-420" y="-282" on="1"/>
        <pt x="-420" y="-244" on="0"/>
        <pt x="-390" y="-175" on="0"/>
        <pt x="-338" y="-123" on="0"/>
        <pt x="-270" y="-93" on="0"/>
        <pt x="-231" y="-93" on="1"/>
        <pt x="-173" y="-93" on="0"/>
        <pt x="-89" y="-133" on="0"/>
        <pt x="-55" y="-186" on="1"/>
        <pt x="-127" y="-233" on="1"/>
        <pt x="-146" y="-204" on="0"/>
        <pt x="-192" y="-180" on="0"/>
        <pt x="-226" y="-180" on="1"/>
        <pt x="-249" y="-180" on="0"/>
        <pt x="-288" y="-197" on="0"/>
        <pt x="-316" y="-225" on="0"/>
        <pt x="-333" y="-262" on="0"/>
        <pt x="-333" y="-282" on="1"/>
        <pt x="-333" y="-302" on="0"/>
        <pt x="-317" y="-339" on="0"/>
        <pt x="-288" y="-367" on="0"/>
        <pt x="-250" y="-384" on="0"/>
        <pt x="-228" y="-384" on="1"/>
        <pt x="-198" y="-384" on="0"/>
        <pt x="-148" y="-361" on="0"/>
        <pt x="-127" y="-332" on="1"/>
        <pt x="-55" y="-378" on="1"/>
      </contour>
    </TTGlyph>
    <TTGlyph name="u1005" xMin="55" yMin="-23" xMax="535" yMax="466">
      <contour>
        <pt x="535" y="222" on="1"/>
        <pt x="535" y="171" on="0"/>
        <pt x="498" y="82" on="0"/>
        <pt x="433" y="16" on="0"/>
        <pt x="345" y="-23" on="0"/>
        <pt x="294" y="-23" on="1"/>
        <pt x="245" y="-23" on="0"/>
        <pt x="158" y="16" on="0"/>
        <pt x="93" y="82" on="0"/>
        <pt x="55" y="171" on="0"/>
        <pt x="55" y="222" on="1"/>
        <pt x="55" y="272" on="0"/>
        <pt x="93" y="361" on="0"/>
        <pt x="157" y="427" on="0"/>
        <pt x="244" y="466" on="0"/>
        <pt x="294" y="466" on="1"/>
        <pt x="345" y="466" on="0"/>
        <pt x="433" y="427" on="0"/>
        <pt x="498" y="361" on="0"/>
        <pt x="535" y="272" on="0"/>
      </contour>
      <contour>
        <pt x="421" y="222" on="1"/>
        <pt x="421" y="246" on="0"/>
        <pt x="403" y="291" on="0"/>
        <pt x="372" y="327" on="0"/>
        <pt x="330" y="350" on="0"/>
        <pt x="306" y="352" on="1"/>
        <pt x="304" y="352" on="1"/>
        <pt x="328" y="318" on="0"/>
        <pt x="343" y="250" on="0"/>
        <pt x="343" y="222" on="1"/>
        <pt x="343" y="193" on="0"/>
        <pt x="325" y="124" on="0"/>
        <pt x="304" y="91" on="1"/>
        <pt x="306" y="91" on="1"/>
        <pt x="330" y="94" on="0"/>
        <pt x="371" y="117" on="0"/>
        <pt x="403" y="152" on="0"/>
        <pt x="421" y="197" on="0"/>
      </contour>
      <contour>
        <pt x="250" y="222" on="1"/>
        <pt x="250" y="276" on="0"/>
        <pt x="216" y="322" on="1"/>
        <pt x="195" y="304" on="0"/>
        <pt x="169" y="252" on="0"/>
        <pt x="169" y="222" on="1"/>
        <pt x="169" y="190" on="0"/>
        <pt x="195" y="138" on="0"/>
        <pt x="216" y="120" on="1"/>
        <pt x="232" y="142" on="0"/>
        <pt x="250" y="193" on="0"/>
      </contour>
    </TTGlyph>
    <TTGlyph name="u1005.med" xMin="-423" yMin="-471" xMax="-54" yMax="-93">
      <contour>
        <pt x="-54" y="-282" on="1"/>
        <pt x="-54" y="-321" on="0"/>
        <pt x="-83" y="-390" on="0"/>
        <pt x="-132" y="-441" on="0"/>
        <pt x="-199" y="-471" on="0"/>
        <pt x="-237" y="-471" on="1"/>
        <pt x="-276" y="-471" on="0"/>
        <pt x="-343" y="-441" on="0"/>
        <pt x="-394" y="-390" on="0"/>
        <pt x="-423" y="-321" on="0"/>
        <pt x="-423" y="-282" on="1"/>
        <pt x="-423" y="-244" on="0"/>
        <pt x="-394" y="-175" on="0"/>
        <pt x="-344" y="-123" on="0"/>
        <pt x="-278" y="-93" on="0"/>
        <pt x="-240" y="-93" on="1"/>
        <pt x="-201" y="-93" on="0"/>
        <pt x="-133" y="-123" on="0"/>
        <pt x="-83" y="-175" on="0"/>
        <pt x="-54" y="-244" on="0"/>
      </contour>
      <contour>
        <pt x="-141" y="-282" on="1"/>
        <pt x="-141" y="-263" on="0"/>
        <pt x="-154" y="-228" on="0"/>
        <pt x="-178" y="-200" on="0"/>
        <pt x="-210" y="-182" on="0"/>
        <pt x="-229" y="-180" on="1"/>
        <pt x="-231" y="-180" on="1"/>
        <pt x="-213" y="-206" on="0"/>
        <pt x="-201" y="-259" on="0"/>
        <pt x="-201" y="-282" on="1"/>
        <pt x="-201" y="-302" on="0"/>
        <pt x="-216" y="-359" on="0"/>
        <pt x="-232" y="-384" on="1"/>
        <pt x="-230" y="-384" on="1"/>
        <pt x="-211" y="-383" on="0"/>
        <pt x="-178" y="-364" on="0"/>
        <pt x="-154" y="-336" on="0"/>
        <pt x="-141" y="-301" on="0"/>
      </contour>
      <contour>
        <pt x="-271" y="-282" on="1"/>
        <pt x="-271" y="-261" on="0"/>
        <pt x="-287" y="-221" on="0"/>
        <pt x="-298" y="-203" on="1"/>
        <pt x="-336" y="-233" on="0"/>
        <pt x="-336" y="-282" on="1"/>
        <pt x="-336" y="-330" on="0"/>
        <pt x="-298" y="-360" on="1"/>
        <pt x="-287" y="-343" on="0"/>
        <pt x="-271" y="-302" on="0"/>
      </contour>
    </TTGlyph>
    <TTGlyph name="u1006" xMin="57" yMin="-23" xMax="912" yMax="466">
      <contour>
        <pt x="912" y="222" on="1"/>
        <pt x="912" y="171" on="0"/>
        <pt x="874" y="82" on="0"/>
        <pt x="808" y="16" on="0"/>
        <pt x="721" y="-23" on="0"/>
        <pt x="672" y="-23" on="1"/>
        <pt x="615" y="-23" on="0"/>
        <pt x="520" y="24" on="0"/>
        <pt x="487" y="64" on="1"/>
        <pt x="456" y="25" on="0"/>
        <pt x="361" y="-23" on="0"/>
        <pt x="300" y="-23" on="1"/>
        <pt x="265" y="-23" on="0"/>
        <pt x="180" y="4" on="0"/>
        <pt x="107" y="58" on="0"/>
        <pt x="57" y="139" on="0"/>
        <pt x="57" y="192" on="1"/>
        <pt x="117" y="231" on="0"/>
        <pt x="220" y="256" on="0"/>
        <pt x="250" y="256" on="1"/>
        <pt x="268" y="256" on="0"/>
        <pt x="312" y="248" on="0"/>
        <pt x="359" y="231" on="0"/>
        <pt x="405" y="204" on="0"/>
        <pt x="424" y="184" on="1"/>
        <pt x="430" y="202" on="0"/>
        <pt x="430" y="222" on="1"/>
        <pt x="430" y="231" on="0"/>
        <pt x="420" y="273" on="0"/>
        <pt x="391" y="318" on="0"/>
        <pt x="340" y="352" on="0"/>
        <pt x="300" y="352" on="1"/>
        <pt x="271" y="352" on="0"/>
        <pt x="211" y="328" on="0"/>
        <pt x="177" y="283" on="1"/>
        <pt x="78" y="336" on="1"/>
        <pt x="94" y="368" on="0"/>
        <pt x="143" y="417" on="0"/>
        <pt x="202" y="450" on="0"/>
        <pt x="268" y="466" on="0"/>
        <pt x="300" y="466" on="1"/>
        <pt x="363" y="466" on="0"/>
        <pt x="456" y="415" on="0"/>
        <pt x="486" y="376" on="1"/>
        <pt x="520" y="418" on="0"/>
        <pt x="615" y="466" on="0"/>
        <pt x="672" y="466" on="1"/>
        <pt x="722" y="466" on="0"/>
        <pt x="810" y="427" on="0"/>
        <pt x="875" y="361" on="0"/>
        <pt x="912" y="272" on="0"/>
      </contour>
      <contour>
        <pt x="798" y="222" on="1"/>
        <pt x="798" y="248" on="0"/>
        <pt x="778" y="295" on="0"/>
        <pt x="744" y="331" on="0"/>
        <pt x="698" y="352" on="0"/>
        <pt x="672" y="352" on="1"/>
        <pt x="645" y="352" on="0"/>
        <pt x="598" y="331" on="0"/>
        <pt x="564" y="295" on="0"/>
        <pt x="544" y="248" on="0"/>
        <pt x="544" y="222" on="1"/>
        <pt x="544" y="195" on="0"/>
        <pt x="565" y="148" on="0"/>
        <pt x="600" y="112" on="0"/>
        <pt x="646" y="91" on="0"/>
        <pt x="672" y="91" on="1"/>
        <pt x="699" y="91" on="0"/>
        <pt x="745" y="112" on="0"/>
        <pt x="779" y="148" on="0"/>
        <pt x="798" y="195" on="0"/>
      </contour>
      <contour>
        <pt x="367" y="108" on="1"/>
        <pt x="346" y="132" on="0"/>
        <pt x="285" y="163" on="0"/>
        <pt x="250" y="163" on="1"/>
        <pt x="234" y="163" on="0"/>
        <pt x="202" y="160" on="0"/>
        <pt x="181" y="153" on="1"/>
        <pt x="213" y="115" on="0"/>
        <pt x="279" y="91" on="0"/>
        <pt x="300" y="91" on="1"/>
        <pt x="336" y="91" on="0"/>
      </contour>
    </TTGlyph>
    <TTGlyph name="u1006.med" xMin="-712" yMin="-471" xMax="-55" yMax="-93">
      <contour>
        <pt x="-55" y="-282" on="1"/>
        <pt x="-55" y="-321" on="0"/>
        <pt x="-83" y="-390" on="0"/>
        <pt x="-133" y="-441" on="0"/>
        <pt x="-199" y="-471" on="0"/>
        <pt x="-237" y="-471" on="1"/>
        <pt x="-282" y="-471" on="0"/>
        <pt x="-355" y="-434" on="0"/>
        <pt x="-381" y="-404" on="1"/>
        <pt x="-406" y="-434" on="0"/>
        <pt x="-477" y="-471" on="0"/>
        <pt x="-525" y="-471" on="1"/>
        <pt x="-561" y="-471" on="0"/>
        <pt x="-628" y="-444" on="0"/>
        <pt x="-681" y="-399" on="0"/>
        <pt x="-712" y="-339" on="0"/>
        <pt x="-712" y="-305" on="1"/>
        <pt x="-664" y="-273" on="0"/>
        <pt x="-587" y="-255" on="0"/>
        <pt x="-564" y="-255" on="1"/>
        <pt x="-536" y="-255" on="0"/>
        <pt x="-459" y="-281" on="0"/>
        <pt x="-429" y="-311" on="1"/>
        <pt x="-424" y="-294" on="0"/>
        <pt x="-424" y="-282" on="1"/>
        <pt x="-424" y="-275" on="0"/>
        <pt x="-431" y="-241" on="0"/>
        <pt x="-453" y="-207" on="0"/>
        <pt x="-493" y="-180" on="0"/>
        <pt x="-525" y="-180" on="1"/>
        <pt x="-542" y="-180" on="0"/>
        <pt x="-590" y="-197" on="0"/>
        <pt x="-619" y="-234" on="1"/>
        <pt x="-696" y="-194" on="1"/>
        <pt x="-678" y="-161" on="0"/>
        <pt x="-630" y="-121" on="0"/>
        <pt x="-581" y="-100" on="0"/>
        <pt x="-538" y="-93" on="0"/>
        <pt x="-525" y="-93" on="1"/>
        <pt x="-477" y="-93" on="0"/>
        <pt x="-404" y="-132" on="0"/>
        <pt x="-381" y="-162" on="1"/>
        <pt x="-356" y="-130" on="0"/>
        <pt x="-282" y="-93" on="0"/>
        <pt x="-237" y="-93" on="1"/>
        <pt x="-198" y="-93" on="0"/>
        <pt x="-131" y="-123" on="0"/>
        <pt x="-83" y="-175" on="0"/>
        <pt x="-55" y="-244" on="0"/>
      </contour>
      <contour>
        <pt x="-142" y="-282" on="1"/>
        <pt x="-142" y="-262" on="0"/>
        <pt x="-157" y="-225" on="0"/>
        <pt x="-182" y="-197" on="0"/>
        <pt x="-217" y="-180" on="0"/>
        <pt x="-237" y="-180" on="1"/>
        <pt x="-258" y="-180" on="0"/>
        <pt x="-294" y="-197" on="0"/>
        <pt x="-321" y="-225" on="0"/>
        <pt x="-336" y="-262" on="0"/>
        <pt x="-336" y="-282" on="1"/>
        <pt x="-336" y="-302" on="0"/>
        <pt x="-320" y="-339" on="0"/>
        <pt x="-292" y="-367" on="0"/>
        <pt x="-257" y="-384" on="0"/>
        <pt x="-237" y="-384" on="1"/>
        <pt x="-217" y="-384" on="0"/>
        <pt x="-182" y="-367" on="0"/>
        <pt x="-157" y="-339" on="0"/>
        <pt x="-142" y="-302" on="0"/>
      </contour>
      <contour>
        <pt x="-474" y="-369" on="1"/>
        <pt x="-488" y="-350" on="0"/>
        <pt x="-537" y="-326" on="0"/>
        <pt x="-564" y="-326" on="1"/>
        <pt x="-585" y="-326" on="0"/>
        <pt x="-616" y="-335" on="1"/>
        <pt x="-593" y="-364" on="0"/>
        <pt x="-541" y="-384" on="0"/>
        <pt x="-525" y="-384" on="1"/>
        <pt x="-510" y="-384" on="0"/>
        <pt x="-485" y="-375" on="0"/>
      </contour>
    </TTGlyph>
    <TTGlyph name="u1007" xMin="55" yMin="-23" xMax="607" yMax="466">
      <contour>
        <pt x="526" y="91" on="1"/>
        <pt x="517" y="108" on="0"/>
        <pt x="490" y="158" on="0"/>
        <pt x="483" y="171" on="1"/>
        <pt x="463" y="153" on="0"/>
        <pt x="411" y="138" on="0"/>
        <pt x="385" y="138" on="1"/>
        <pt x="362" y="138" on="0"/>
        <pt x="320" y="153" on="0"/>
        <pt x="287" y="181" on="0"/>
        <pt x="267" y="220" on="0"/>
        <pt x="267" y="244" on="1"/>
        <pt x="267" y="259" on="0"/>
        <pt x="276" y="292" on="0"/>
        <pt x="297" y="321" on="0"/>
        <pt x="329" y="343" on="0"/>
        <pt x="353" y="348" on="1"/>
        <pt x="354" y="348" on="1"/>
        <pt x="328" y="357" on="0"/>
        <pt x="297" y="357" on="1"/>
        <pt x="274" y="357" on="0"/>
        <pt x="229" y="334" on="0"/>
        <pt x="192" y="297" on="0"/>
        <pt x="169" y="248" on="0"/>
        <pt x="169" y="222" on="1"/>
        <pt x="169" y="195" on="0"/>
        <pt x="189" y="148" on="0"/>
        <pt x="224" y="112" on="0"/>
        <pt x="270" y="91" on="0"/>
        <pt x="297" y="91" on="1"/>
        <pt x="334" y="91" on="0"/>
        <pt x="386" y="105" on="0"/>
        <pt x="400" y="115" on="1"/>
        <pt x="481" y="36" on="1"/>
        <pt x="454" y="7" on="0"/>
        <pt x="372" y="-23" on="0"/>
        <pt x="297" y="-23" on="1"/>
        <pt x="249" y="-23" on="0"/>
        <pt x="161" y="16" on="0"/>
        <pt x="95" y="82" on="0"/>
        <pt x="55" y="171" on="0"/>
        <pt x="55" y="222" on="1"/>
        <pt x="55" y="272" on="0"/>
        <pt x="95" y="361" on="0"/>
        <pt x="162" y="427" on="0"/>
        <pt x="250" y="466" on="0"/>
        <pt x="297" y="466" on="1"/>
        <pt x="332" y="466" on="0"/>
        <pt x="406" y="448" on="0"/>
        <pt x="469" y="409" on="0"/>
        <pt x="514" y="346" on="0"/>
        <pt x="520" y="301" on="1"/>
        <pt x="540" y="276" on="0"/>
        <pt x="587" y="193" on="0"/>
        <pt x="607" y="150" on="1"/>
      </contour>
      <contour>
        <pt x="430" y="247" on="1"/>
        <pt x="418" y="263" on="0"/>
        <pt x="399" y="270" on="0"/>
        <pt x="379" y="270" on="1"/>
        <pt x="367" y="270" on="0"/>
        <pt x="351" y="257" on="0"/>
        <pt x="351" y="244" on="1"/>
        <pt x="351" y="237" on="0"/>
        <pt x="359" y="229" on="0"/>
        <pt x="370" y="224" on="0"/>
        <pt x="381" y="222" on="0"/>
        <pt x="385" y="222" on="1"/>
        <pt x="424" y="222" on="0"/>
      </contour>
    </TTGlyph>
    <TTGlyph name="u1007.med" xMin="-482" yMin="-471" xMax="-56" yMax="-92">
      <contour>
        <pt x="-119" y="-383" on="1"/>
        <pt x="-122" y="-378" on="0"/>
        <pt x="-131" y="-360" on="0"/>
        <pt x="-141" y="-341" on="0"/>
        <pt x="-150" y="-324" on="0"/>
        <pt x="-152" y="-321" on="1"/>
        <pt x="-168" y="-334" on="0"/>
        <pt x="-208" y="-347" on="0"/>
        <pt x="-228" y="-347" on="1"/>
        <pt x="-246" y="-347" on="0"/>
        <pt x="-279" y="-335" on="0"/>
        <pt x="-304" y="-313" on="0"/>
        <pt x="-320" y="-282" on="0"/>
        <pt x="-320" y="-263" on="1"/>
        <pt x="-320" y="-241" on="0"/>
        <pt x="-288" y="-192" on="0"/>
        <pt x="-253" y="-185" on="1"/>
        <pt x="-252" y="-185" on="1"/>
        <pt x="-270" y="-179" on="0"/>
        <pt x="-295" y="-179" on="1"/>
        <pt x="-314" y="-179" on="0"/>
        <pt x="-350" y="-196" on="0"/>
        <pt x="-378" y="-225" on="0"/>
        <pt x="-395" y="-262" on="0"/>
        <pt x="-395" y="-282" on="1"/>
        <pt x="-395" y="-302" on="0"/>
        <pt x="-379" y="-339" on="0"/>
        <pt x="-351" y="-367" on="0"/>
        <pt x="-314" y="-384" on="0"/>
        <pt x="-293" y="-384" on="1"/>
        <pt x="-267" y="-384" on="0"/>
        <pt x="-232" y="-376" on="0"/>
        <pt x="-215" y="-363" on="1"/>
        <pt x="-153" y="-425" on="1"/>
        <pt x="-175" y="-448" on="0"/>
        <pt x="-241" y="-471" on="0"/>
        <pt x="-296" y="-471" on="1"/>
        <pt x="-334" y="-471" on="0"/>
        <pt x="-401" y="-441" on="0"/>
        <pt x="-452" y="-390" on="0"/>
        <pt x="-482" y="-321" on="0"/>
        <pt x="-482" y="-282" on="1"/>
        <pt x="-482" y="-244" on="0"/>
        <pt x="-451" y="-175" on="0"/>
        <pt x="-400" y="-123" on="0"/>
        <pt x="-332" y="-92" on="0"/>
        <pt x="-296" y="-92" on="1"/>
        <pt x="-270" y="-92" on="0"/>
        <pt x="-213" y="-106" on="0"/>
        <pt x="-163" y="-138" on="0"/>
        <pt x="-128" y="-187" on="0"/>
        <pt x="-123" y="-221" on="1"/>
        <pt x="-109" y="-239" on="0"/>
        <pt x="-76" y="-295" on="0"/>
        <pt x="-56" y="-338" on="1"/>
      </contour>
      <contour>
        <pt x="-192" y="-261" on="1"/>
        <pt x="-203" y="-250" on="0"/>
        <pt x="-216" y="-245" on="0"/>
        <pt x="-233" y="-245" on="1"/>
        <pt x="-242" y="-245" on="0"/>
        <pt x="-254" y="-255" on="0"/>
        <pt x="-254" y="-263" on="1"/>
        <pt x="-254" y="-272" on="0"/>
        <pt x="-239" y="-282" on="0"/>
        <pt x="-228" y="-282" on="1"/>
        <pt x="-211" y="-282" on="0"/>
        <pt x="-196" y="-272" on="0"/>
      </contour>
    </TTGlyph>
    <TTGlyph name="u1008" xMin="55" yMin="-471" xMax="744" yMax="468">
      <contour>
        <pt x="333" y="-374" on="1"/>
        <pt x="333" y="-18" on="1"/>
        <pt x="322" y="-20" on="0"/>
        <pt x="306" y="-21" on="0"/>
        <pt x="297" y="-21" on="1"/>
        <pt x="246" y="-21" on="0"/>
        <pt x="158" y="17" on="0"/>
        <pt x="93" y="83" on="0"/>
        <pt x="55" y="172" on="0"/>
        <pt x="55" y="223" on="1"/>
        <pt x="55" y="273" on="0"/>
        <pt x="93" y="362" on="0"/>
        <pt x="157" y="429" on="0"/>
        <pt x="244" y="468" on="0"/>
        <pt x="294" y="468" on="1"/>
        <pt x="345" y="468" on="0"/>
        <pt x="433" y="429" on="0"/>
        <pt x="498" y="362" on="0"/>
        <pt x="535" y="273" on="0"/>
        <pt x="535" y="223" on="1"/>
        <pt x="535" y="163" on="0"/>
        <pt x="489" y="65" on="0"/>
        <pt x="447" y="31" on="1"/>
        <pt x="447" y="-284" on="1"/>
        <pt x="630" y="-324" on="1"/>
        <pt x="630" y="466" on="1"/>
        <pt x="744" y="466" on="1"/>
        <pt x="744" y="-471" on="1"/>
      </contour>
      <contour>
        <pt x="421" y="223" on="1"/>
        <pt x="421" y="248" on="0"/>
        <pt x="403" y="294" on="0"/>
        <pt x="371" y="330" on="0"/>
        <pt x="329" y="352" on="0"/>
        <pt x="305" y="354" on="1"/>
        <pt x="304" y="354" on="1"/>
        <pt x="328" y="321" on="0"/>
        <pt x="343" y="251" on="0"/>
        <pt x="343" y="223" on="1"/>
        <pt x="343" y="195" on="0"/>
        <pt x="326" y="124" on="0"/>
        <pt x="304" y="91" on="1"/>
        <pt x="305" y="91" on="1"/>
        <pt x="329" y="94" on="0"/>
        <pt x="371" y="117" on="0"/>
        <pt x="403" y="153" on="0"/>
        <pt x="421" y="198" on="0"/>
      </contour>
      <contour>
        <pt x="250" y="223" on="1"/>
        <pt x="250" y="278" on="0"/>
        <pt x="216" y="324" on="1"/>
        <pt x="194" y="306" on="0"/>
        <pt x="169" y="254" on="0"/>
        <pt x="169" y="223" on="1"/>
        <pt x="169" y="191" on="0"/>
        <pt x="194" y="139" on="0"/>
        <pt x="216" y="121" on="1"/>
        <pt x="232" y="144" on="0"/>
        <pt x="250" y="195" on="0"/>
      </contour>
    </TTGlyph>
    <TTGlyph name="u1008.med" xMin="-410" yMin="-471" xMax="169" yMax="444">
      <contour>
        <pt x="-99" y="-402" on="1"/>
        <pt x="-123" y="-427" on="0"/>
        <pt x="-186" y="-455" on="0"/>
        <pt x="-224" y="-455" on="1"/>
        <pt x="-263" y="-455" on="0"/>
        <pt x="-330" y="-426" on="0"/>
        <pt x="-381" y="-375" on="0"/>
        <pt x="-410" y="-306" on="0"/>
        <pt x="-410" y="-267" on="1"/>
        <pt x="-410" y="-229" on="0"/>
        <pt x="-384" y="-161" on="0"/>
        <pt x="-338" y="-110" on="0"/>
        <pt x="-275" y="-80" on="0"/>
        <pt x="-237" y="-80" on="1"/>
        <pt x="-198" y="-80" on="0"/>
        <pt x="-127" y="-110" on="0"/>
        <pt x="-73" y="-161" on="0"/>
        <pt x="-41" y="-229" on="0"/>
        <pt x="-41" y="-267" on="1"/>
        <pt x="-41" y="-274" on="0"/>
        <pt x="-43" y="-293" on="0"/>
        <pt x="-45" y="-299" on="1"/>
        <pt x="55" y="-324" on="1"/>
        <pt x="55" y="444" on="1"/>
        <pt x="169" y="444" on="1"/>
        <pt x="169" y="-471" on="1"/>
      </contour>
      <contour>
        <pt x="-128" y="-267" on="1"/>
        <pt x="-128" y="-248" on="0"/>
        <pt x="-142" y="-212" on="0"/>
        <pt x="-166" y="-185" on="0"/>
        <pt x="-198" y="-168" on="0"/>
        <pt x="-217" y="-167" on="1"/>
        <pt x="-218" y="-167" on="1"/>
        <pt x="-198" y="-192" on="0"/>
        <pt x="-188" y="-244" on="0"/>
        <pt x="-188" y="-267" on="1"/>
        <pt x="-188" y="-287" on="0"/>
        <pt x="-202" y="-344" on="0"/>
        <pt x="-218" y="-368" on="1"/>
        <pt x="-217" y="-368" on="1"/>
        <pt x="-199" y="-366" on="0"/>
        <pt x="-166" y="-348" on="0"/>
        <pt x="-142" y="-321" on="0"/>
        <pt x="-128" y="-286" on="0"/>
      </contour>
      <contour>
        <pt x="-258" y="-267" on="1"/>
        <pt x="-258" y="-246" on="0"/>
        <pt x="-273" y="-205" on="0"/>
        <pt x="-284" y="-188" on="1"/>
        <pt x="-302" y="-202" on="0"/>
        <pt x="-323" y="-242" on="0"/>
        <pt x="-323" y="-267" on="1"/>
        <pt x="-323" y="-290" on="0"/>
        <pt x="-302" y="-331" on="0"/>
        <pt x="-285" y="-345" on="1"/>
        <pt x="-273" y="-328" on="0"/>
        <pt x="-258" y="-287" on="0"/>
      </contour>
    </TTGlyph>
    <TTGlyph name="u1009" xMin="55" yMin="-471" xMax="892" yMax="466">
      <contour>
        <pt x="892" y="-344" on="1"/>
        <pt x="892" y="-379" on="0"/>
        <pt x="880" y="-423" on="0"/>
        <pt x="868" y="-437" on="1"/>
        <pt x="854" y="-454" on="0"/>
        <pt x="808" y="-471" on="0"/>
        <pt x="765" y="-471" on="1"/>
        <pt x="244" y="-471" on="1"/>
        <pt x="201" y="-471" on="0"/>
        <pt x="135" y="-439" on="0"/>
        <pt x="109" y="-413" on="1"/>
        <pt x="55" y="-359" on="0"/>
        <pt x="55" y="-282" on="1"/>
        <pt x="55" y="108" on="1"/>
        <pt x="157" y="160" on="1"/>
        <pt x="173" y="134" on="0"/>
        <pt x="211" y="106" on="0"/>
        <pt x="245" y="93" on="0"/>
        <pt x="273" y="91" on="0"/>
        <pt x="280" y="91" on="1"/>
        <pt x="307" y="91" on="0"/>
        <pt x="354" y="112" on="0"/>
        <pt x="389" y="148" on="0"/>
        <pt x="409" y="195" on="0"/>
        <pt x="409" y="222" on="1"/>
        <pt x="409" y="248" on="0"/>
        <pt x="389" y="295" on="0"/>
        <pt x="354" y="331" on="0"/>
        <pt x="307" y="352" on="0"/>
        <pt x="280" y="352" on="1"/>
        <pt x="273" y="352" on="0"/>
        <pt x="245" y="350" on="0"/>
        <pt x="211" y="336" on="0"/>
        <pt x="173" y="308" on="0"/>
        <pt x="157" y="283" on="1"/>
        <pt x="55" y="336" on="1"/>
        <pt x="74" y="372" on="0"/>
        <pt x="128" y="422" on="0"/>
        <pt x="189" y="452" on="0"/>
        <pt x="252" y="466" on="0"/>
        <pt x="280" y="466" on="1"/>
        <pt x="329" y="466" on="0"/>
        <pt x="418" y="427" on="0"/>
        <pt x="484" y="361" on="0"/>
        <pt x="523" y="272" on="0"/>
        <pt x="523" y="222" on="1"/>
        <pt x="523" y="171" on="0"/>
        <pt x="484" y="82" on="0"/>
        <pt x="418" y="16" on="0"/>
        <pt x="329" y="-23" on="0"/>
        <pt x="280" y="-23" on="1"/>
        <pt x="227" y="-23" on="0"/>
        <pt x="169" y="1" on="1"/>
        <pt x="169" y="-273" on="1"/>
        <pt x="169" y="-289" on="0"/>
        <pt x="179" y="-322" on="0"/>
        <pt x="190" y="-332" on="1"/>
        <pt x="202" y="-343" on="0"/>
        <pt x="233" y="-357" on="0"/>
        <pt x="256" y="-357" on="1"/>
        <pt x="748" y="-357" on="1"/>
        <pt x="765" y="-357" on="0"/>
        <pt x="778" y="-340" on="0"/>
        <pt x="778" y="-320" on="1"/>
        <pt x="778" y="-272" on="1"/>
        <pt x="892" y="-272" on="1"/>
      </contour>
    </TTGlyph>
    <TTGlyph name="u1009_u102C" xMin="55" yMin="-471" xMax="900" yMax="466">
      <contour>
        <pt x="900" y="222" on="1"/>
        <pt x="900" y="171" on="0"/>
        <pt x="861" y="82" on="0"/>
        <pt x="794" y="16" on="0"/>
        <pt x="705" y="-23" on="0"/>
        <pt x="655" y="-23" on="1"/>
        <pt x="636" y="-23" on="0"/>
        <pt x="597" y="-18" on="0"/>
        <pt x="585" y="-11" on="1"/>
        <pt x="630" y="94" on="1"/>
        <pt x="635" y="92" on="0"/>
        <pt x="650" y="91" on="0"/>
        <pt x="655" y="91" on="1"/>
        <pt x="682" y="91" on="0"/>
        <pt x="729" y="112" on="0"/>
        <pt x="765" y="148" on="0"/>
        <pt x="786" y="195" on="0"/>
        <pt x="786" y="222" on="1"/>
        <pt x="786" y="248" on="0"/>
        <pt x="765" y="295" on="0"/>
        <pt x="729" y="331" on="0"/>
        <pt x="682" y="352" on="0"/>
        <pt x="655" y="352" on="1"/>
        <pt x="631" y="352" on="0"/>
        <pt x="586" y="328" on="0"/>
        <pt x="550" y="291" on="0"/>
        <pt x="526" y="246" on="0"/>
        <pt x="522" y="225" on="1"/>
        <pt x="522" y="222" on="1"/>
        <pt x="522" y="171" on="0"/>
        <pt x="483" y="82" on="0"/>
        <pt x="417" y="16" on="0"/>
        <pt x="329" y="-23" on="0"/>
        <pt x="280" y="-23" on="1"/>
        <pt x="254" y="-23" on="0"/>
        <pt x="196" y="-11" on="0"/>
        <pt x="169" y="3" on="1"/>
        <pt x="169" y="-273" on="1"/>
        <pt x="169" y="-289" on="0"/>
        <pt x="179" y="-322" on="0"/>
        <pt x="190" y="-332" on="1"/>
        <pt x="202" y="-343" on="0"/>
        <pt x="233" y="-357" on="0"/>
        <pt x="256" y="-357" on="1"/>
        <pt x="738" y="-357" on="1"/>
        <pt x="755" y="-357" on="0"/>
        <pt x="768" y="-340" on="0"/>
        <pt x="768" y="-320" on="1"/>
        <pt x="768" y="-272" on="1"/>
        <pt x="882" y="-272" on="1"/>
        <pt x="882" y="-344" on="1"/>
        <pt x="882" y="-379" on="0"/>
        <pt x="870" y="-423" on="0"/>
        <pt x="858" y="-437" on="1"/>
        <pt x="844" y="-454" on="0"/>
        <pt x="798" y="-471" on="0"/>
        <pt x="755" y="-471" on="1"/>
        <pt x="244" y="-471" on="1"/>
        <pt x="201" y="-471" on="0"/>
        <pt x="135" y="-439" on="0"/>
        <pt x="109" y="-413" on="1"/>
        <pt x="57" y="-361" on="0"/>
        <pt x="57" y="-285" on="1"/>
        <pt x="55" y="108" on="1"/>
        <pt x="157" y="160" on="1"/>
        <pt x="200" y="91" on="0"/>
        <pt x="280" y="91" on="1"/>
        <pt x="307" y="91" on="0"/>
        <pt x="354" y="112" on="0"/>
        <pt x="389" y="148" on="0"/>
        <pt x="409" y="195" on="0"/>
        <pt x="409" y="222" on="1"/>
        <pt x="409" y="248" on="0"/>
        <pt x="389" y="295" on="0"/>
        <pt x="354" y="331" on="0"/>
        <pt x="307" y="352" on="0"/>
        <pt x="280" y="352" on="1"/>
        <pt x="273" y="352" on="0"/>
        <pt x="245" y="350" on="0"/>
        <pt x="211" y="336" on="0"/>
        <pt x="173" y="308" on="0"/>
        <pt x="157" y="283" on="1"/>
        <pt x="55" y="336" on="1"/>
        <pt x="74" y="372" on="0"/>
        <pt x="128" y="422" on="0"/>
        <pt x="189" y="452" on="0"/>
        <pt x="252" y="466" on="0"/>
        <pt x="280" y="466" on="1"/>
        <pt x="337" y="466" on="0"/>
        <pt x="437" y="415" on="0"/>
        <pt x="469" y="372" on="1"/>
        <pt x="500" y="410" on="0"/>
        <pt x="592" y="466" on="0"/>
        <pt x="655" y="466" on="1"/>
        <pt x="705" y="466" on="0"/>
        <pt x="794" y="427" on="0"/>
        <pt x="861" y="361" on="0"/>
        <pt x="900" y="272" on="0"/>
      </contour>
    </TTGlyph>
</ttFont>
